<svg xmlns="http://www.w3.org/2000/svg" id="a" data-name="Laag 1" viewBox="0 0 24.2 23.53"><defs><style>      .c {        fill: #f8f6f6;      }      .c, .d, .e {        stroke-width: 0px;      }      .d {        fill: #6d2f71;      }      .e {        fill: #ea590c;      }    </style></defs><g id="b" data-name="Laag 1"><g><path class="d" d="m24.2,9.93H.48v11.02c0,1.44,1.17,2.58,2.58,2.58h18.53c1.44,0,2.58-1.17,2.58-2.58v-11.02h.03Z"></path><path class="d" d="m24.2,7.56v2.37H.48v-2.37c0-.13.11-.24.24-.24h23.24c.13,0,.24.11.24.24Z"></path><polygon class="e" points="24.2 9.93 21.11 9.93 18.47 7.32 21.59 7.32 24.2 9.93"></polygon><polygon class="e" points="18 9.93 14.88 9.93 12.27 7.32 15.39 7.32 18 9.93"></polygon><polygon class="e" points="11.79 9.93 8.68 9.93 6.07 7.32 9.16 7.32 11.79 9.93"></polygon><polygon class="e" points="5.56 9.93 2.48 9.93 .48 7.96 .48 7.32 2.95 7.32 5.56 9.93"></polygon><path class="d" d="m23.69,2.42l-.45-2.26c-.03-.08-.11-.13-.19-.13L.13,4.71c-.08.03-.13.11-.13.19l.45,2.26c.03.08.11.13.19.13L23.56,2.61c.11-.03.16-.11.13-.19Z"></path><polygon class="e" points="23.21 0 20.15 .64 18.13 3.73 21.16 3.11 23.21 0"></polygon><polygon class="e" points="17.12 1.25 14.08 1.86 12.03 4.98 15.07 4.34 17.12 1.25"></polygon><polygon class="e" points="11.02 2.5 7.99 3.11 5.94 6.2 9 5.59 11.02 2.5"></polygon><polygon class="e" points="4.95 3.73 1.92 4.37 .37 6.68 .48 7.32 2.9 6.81 4.95 3.73"></polygon><path class="c" d="m10.04,13.68v5.75c0,.43.45.67.8.45l4.87-2.87c.35-.21.35-.72,0-.91l-4.87-2.87c-.35-.21-.8.05-.8.45Z"></path></g></g></svg>