<svg xmlns="http://www.w3.org/2000/svg" id="uuid-29c7d562-15be-4c8d-8569-17b023dc0bdf" data-name="Laag 1" viewBox="0 0 33.73 33.73"><defs><style>      .uuid-d018a8b4-c108-4145-ac8f-6f83636d390a {        fill: #f4adb6;      }      .uuid-d018a8b4-c108-4145-ac8f-6f83636d390a, .uuid-b4bfba47-6344-47c9-8019-1a8c255c15a2, .uuid-8c3f2b18-667c-4c94-9360-0323050b5624 {        stroke-width: 0px;      }      .uuid-b4bfba47-6344-47c9-8019-1a8c255c15a2 {        fill: #f2f2f2;      }      .uuid-8c3f2b18-667c-4c94-9360-0323050b5624 {        fill: #da306c;      }    </style></defs><circle class="uuid-b4bfba47-6344-47c9-8019-1a8c255c15a2" cx="16.86" cy="16.86" r="16.86"></circle><g><path class="uuid-8c3f2b18-667c-4c94-9360-0323050b5624" d="m16.86,12.1s.07-.07.1-.1c.06-.06.12-.12.18-.18.03-.03.07-.07.1-.1,2.08-2.08,5.47-2.09,7.55,0,2.08,2.08,1.54,4.91-.55,7,0,0-.72.72-1.37,1.36"></path><path class="uuid-d018a8b4-c108-4145-ac8f-6f83636d390a" d="m22.95,20.14l-1.13-1.13c-.51-.6-1.35-.6-1.77.08-.29.46-.08,1.01.3,1.4h0c-.51-.6-1.35-.6-1.77.08-.29.46-.09,1.01.3,1.39h0c-.51-.59-1.35-.59-1.77.08-.29.46-.09,1,.29,1.39h0c-.38-.44.42-.96-.01-.71l-1-7.17c1.83,1.4,3.03,1.69,4.02.87.23-.19.28-.51.07-.72-1.38-1.38-2.11-2.11-3.6-3.61-.03-.03-.07-.07-.1-.1-.06-.06-.12-.12-.18-.18-.03-.03-.07-.07-.1-.1-2.08-2.08-5.47-2.09-7.55,0-2.08,2.08-1.54,4.91.55,7,0,0,5.35,5.11,6.44,6.19,0,0,0,0,.01.01h0s0,0,0,0h0s1.13,1.13,1.13,1.13c.51.6,1.22.47,1.64-.2.28-.45.21-.85-.13-1.23h0c.5.55,1.2.41,1.61-.24.28-.44.22-.84-.11-1.21h0c.5.52,1.18.38,1.59-.26.27-.43.22-.82-.1-1.19h0c.5.5,1.17.35,1.57-.29.29-.46.21-.88-.17-1.27Z"></path><path class="uuid-8c3f2b18-667c-4c94-9360-0323050b5624" d="m17.56,14.49l-5.95,5.61c-.36.36-.55.87-.28,1.3.39.62,1.17.62,1.64.07l5.79-5.27"></path><path class="uuid-8c3f2b18-667c-4c94-9360-0323050b5624" d="m19.87,14.49l-6.88,6.99c-.36.36-.55.87-.28,1.3.39.62,1.17.62,1.64.07l8.53-2.78"></path><path class="uuid-8c3f2b18-667c-4c94-9360-0323050b5624" d="m19.06,18.11l-4.73,4.72c-.36.36-.55.87-.28,1.3.39.62,1.17.62,1.64.07l5.5-2.65"></path><path class="uuid-8c3f2b18-667c-4c94-9360-0323050b5624" d="m20.44,19.44l-4.73,4.72c-.36.36-.55.87-.28,1.3.39.62,1.17.62,1.64.07l4.78-4.01"></path><path class="uuid-d018a8b4-c108-4145-ac8f-6f83636d390a" d="m16.38,15.55c1.83,1.4,3.03,1.69,4.02.87.23-.19.28-.51.07-.72-1.38-1.38-2.11-2.11-3.6-3.61"></path><path class="uuid-d018a8b4-c108-4145-ac8f-6f83636d390a" d="m15.93,24.91h0s1.13,1.13,1.13,1.13c.51.6,1.22.47,1.64-.2.28-.45.21-.85-.13-1.23h0c.5.55,1.2.41,1.61-.24.28-.44.22-.84-.11-1.21h0c.5.52,1.18.38,1.59-.26.27-.43.22-.82-.1-1.19h0c.5.5,1.17.35,1.57-.29.29-.46.21-.88-.17-1.27l-1.13-1.13c-.51-.6-1.35-.6-1.77.08-.29.46-.08,1.01.3,1.4h0c-.51-.6-1.35-.6-1.77.08-.29.46-.09,1.01.3,1.39h0c-.51-.59-1.35-.59-1.77.08-.29.46-.09,1,.29,1.39h0c-.38-.44-.93-.55-1.37-.3,0,0-1.23.66-.1,1.78Z"></path></g></svg>