<svg xmlns="http://www.w3.org/2000/svg" xmlns:xlink="http://www.w3.org/1999/xlink" id="Laag_1" x="0px" y="0px" viewBox="0 0 66.6 103.9" style="enable-background:new 0 0 66.6 103.9;" xml:space="preserve"><style type="text/css">	.st0{fill:#703B76;}	.st1{fill:#73A529;}	.st2{fill:#9169A8;}	.st3{fill:#EA6609;}	.st4{fill:#F39A00;}	.st5{fill:#006633;}	.st6{fill:#65041C;}</style><g id="boom">	<g>		<g>			<g>				<circle class="st0" cx="12.9" cy="61.4" r="4.9"></circle>			</g>			<g>				<circle class="st0" cx="24.2" cy="56.8" r="4.9"></circle>			</g>			<g>				<circle class="st0" cx="35.5" cy="52.2" r="4.9"></circle>			</g>			<g>				<circle class="st0" cx="22" cy="83.1" r="4.9"></circle>			</g>			<g>				<circle class="st0" cx="33.5" cy="78.6" r="4.9"></circle>			</g>			<g>				<circle class="st0" cx="41.4" cy="98.9" r="4.9"></circle>			</g>			<g>				<circle class="st0" cx="44.8" cy="73.9" r="4.9"></circle>			</g>			<g>				<circle class="st0" cx="11.4" cy="74.8" r="4.9"></circle>			</g>			<g>				<circle class="st0" cx="22.9" cy="70.1" r="4.9"></circle>			</g>			<g>				<circle class="st0" cx="34.3" cy="65.4" r="4.9"></circle>			</g>			<g>				<circle class="st0" cx="45.8" cy="60.7" r="4.9"></circle>			</g>			<g>				<circle class="st0" cx="31.3" cy="91.5" r="4.9"></circle>			</g>			<g>				<circle class="st0" cx="42.8" cy="86.8" r="4.9"></circle>			</g>			<g>				<path class="st1" d="M15.7,41c-1.2,0.8-2.4,1.7-3.3,2.9c-0.9,1.2-1.6,2.5-2,3.9l10.9,3.1L15.7,41z"></path>			</g>			<g>				<path class="st1" d="M19.4,41.4c1.2-0.3,2.4-0.3,3.7-0.2c1.3,0.2,2.5,0.6,3.5,1.1l-4.7,8.2L19.4,41.4z"></path>			</g>			<g>				<path class="st2" d="M23.8,85.8c-2.2,0.9-4.8-0.2-5.7-2.4c-0.4-1.1-0.4-2.3,0-3.3c-1,1.3-1.3,3.2-0.6,4.9c1,2.5,3.9,3.7,6.4,2.7     s3.7-3.9,2.7-6.4c-0.1-0.1-0.1-0.3-0.2-0.4C26.8,82.9,25.8,85,23.8,85.8z"></path>			</g>			<g>				<path class="st2" d="M33,94.2c-2.2,0.9-4.8-0.2-5.7-2.4c-0.4-1.1-0.4-2.3,0-3.3c-1,1.3-1.3,3.2-0.6,4.9c1,2.5,3.9,3.7,6.4,2.7     s3.7-3.9,2.7-6.4c-0.1-0.1-0.1-0.3-0.2-0.4C36.1,91.3,35,93.4,33,94.2z"></path>			</g>			<g>				<path class="st2" d="M44.5,89.5c-2.2,0.9-4.8-0.2-5.7-2.4c-0.4-1.1-0.4-2.3,0-3.3c-1,1.3-1.3,3.2-0.6,4.9c1,2.5,3.9,3.7,6.4,2.7     s3.7-3.9,2.7-6.4c-0.1-0.1-0.1-0.3-0.2-0.4C47.6,86.6,46.5,88.7,44.5,89.5z"></path>			</g>			<g>				<path class="st2" d="M35.2,81.3c-2.2,0.9-4.8-0.2-5.7-2.4c-0.4-1.1-0.4-2.3,0-3.3c-1,1.3-1.3,3.2-0.6,4.9c1,2.5,3.9,3.7,6.4,2.7     s3.7-3.9,2.7-6.4c-0.1-0.1-0.1-0.3-0.2-0.4C38.3,78.4,37.2,80.5,35.2,81.3z"></path>			</g>			<g>				<path class="st2" d="M43.1,101.6c-2.2,0.9-4.8-0.2-5.7-2.4c-0.4-1.1-0.4-2.3,0-3.3c-1,1.3-1.3,3.2-0.6,4.9     c1,2.5,3.9,3.7,6.4,2.7s3.7-3.9,2.7-6.4c-0.1-0.1-0.1-0.3-0.2-0.4C46.2,98.7,45.1,100.8,43.1,101.6z"></path>			</g>			<g>				<path class="st2" d="M46.6,76.6c-2.2,0.9-4.8-0.2-5.7-2.4c-0.4-1.1-0.4-2.3,0-3.3c-1,1.3-1.3,3.2-0.6,4.9c1,2.5,3.9,3.7,6.4,2.7     s3.7-3.9,2.7-6.4c-0.1-0.1-0.1-0.3-0.2-0.4C49.6,73.7,48.6,75.8,46.6,76.6z"></path>			</g>			<g>				<path class="st2" d="M13.2,77.4C11,78.3,8.4,77.2,7.5,75c-0.4-1.1-0.4-2.3,0-3.3c-1,1.3-1.3,3.2-0.6,4.9c1,2.5,3.9,3.7,6.4,2.7     s3.7-3.9,2.7-6.4c-0.1-0.1-0.1-0.3-0.2-0.4C16.2,74.5,15.2,76.6,13.2,77.4z"></path>			</g>			<g>				<path class="st2" d="M24.6,72.7c-2.2,0.9-4.8-0.2-5.7-2.4c-0.4-1.1-0.4-2.3,0-3.3c-1,1.3-1.3,3.2-0.6,4.9c1,2.5,3.9,3.7,6.4,2.7     s3.7-3.9,2.7-6.4c-0.1-0.1-0.1-0.3-0.2-0.4C27.7,69.8,26.6,71.9,24.6,72.7z"></path>			</g>			<g>				<path class="st2" d="M14.7,64.1C12.5,65,9.9,63.9,9,61.7c-0.4-1.1-0.4-2.3,0-3.3c-1,1.3-1.3,3.2-0.6,4.9c1,2.5,3.9,3.7,6.4,2.7     s3.7-3.9,2.7-6.4c-0.1-0.1-0.1-0.3-0.2-0.4C17.7,61.2,16.7,63.3,14.7,64.1z"></path>			</g>			<g>				<path class="st2" d="M26,59.5c-2.2,0.9-4.8-0.2-5.7-2.4c-0.4-1.1-0.4-2.3,0-3.3c-1,1.3-1.3,3.2-0.6,4.9c1,2.5,3.9,3.7,6.4,2.7     s3.7-3.9,2.7-6.4c-0.1-0.1-0.1-0.3-0.2-0.4C29,56.6,28,58.7,26,59.5z"></path>			</g>			<g>				<path class="st2" d="M37.2,54.9c-2.2,0.9-4.8-0.2-5.7-2.4c-0.4-1.1-0.4-2.3,0-3.3c-1,1.3-1.3,3.2-0.6,4.9c1,2.5,3.9,3.7,6.4,2.7     s3.7-3.9,2.7-6.4c-0.1-0.1-0.1-0.3-0.2-0.4C40.3,52,39.2,54.1,37.2,54.9z"></path>			</g>			<g>				<path class="st2" d="M36.1,68c-2.2,0.9-4.8-0.2-5.7-2.4c-0.4-1.1-0.4-2.3,0-3.3c-1,1.3-1.3,3.2-0.6,4.9c1,2.5,3.9,3.7,6.4,2.7     s3.7-3.9,2.7-6.4c-0.1-0.1-0.1-0.3-0.2-0.4C39.1,65.1,38.1,67.2,36.1,68z"></path>			</g>			<g>				<path class="st2" d="M47.5,63.3c-2.2,0.9-4.8-0.2-5.7-2.4c-0.4-1.1-0.4-2.3,0-3.3c-1,1.3-1.3,3.2-0.6,4.9c1,2.5,3.9,3.7,6.4,2.7     s3.7-3.9,2.7-6.4c-0.1-0.1-0.1-0.3-0.2-0.4C50.6,60.4,49.5,62.5,47.5,63.3z"></path>			</g>		</g>		<g>			<g>				<circle class="st3" cx="45.8" cy="20.8" r="20.8"></circle>			</g>			<g>				<path class="st4" d="M57.3,7.7c-2.9-2.6-6.6-4.2-10.7-4.4v15.1L57.3,7.7z"></path>			</g>			<g>				<path class="st4" d="M63.2,19.8C63,15.7,61.4,12,58.8,9.2L48.2,19.8H63.2z"></path>			</g>			<g>				<g>					<path class="st4" d="M48.2,22l10.6,10.6c2.5-2.9,4.1-6.5,4.4-10.6H48.2z"></path>				</g>				<g>					<path class="st4" d="M46.7,23.4v15c4.1-0.2,7.8-1.9,10.6-4.4L46.7,23.4z"></path>				</g>			</g>			<g>				<path class="st4" d="M33.8,7.7c2.9-2.6,6.6-4.2,10.7-4.4v15.1L33.8,7.7z"></path>			</g>			<g>				<path class="st4" d="M28,19.8c0.2-4.1,1.8-7.8,4.4-10.6L43,19.8H28z"></path>			</g>			<g>				<g>					<path class="st4" d="M42.9,22L32.3,32.6c-2.5-2.9-4.1-6.5-4.4-10.6H42.9z"></path>				</g>				<g>					<path class="st4" d="M44.5,23.4v15c-4.1-0.2-7.8-1.9-10.6-4.4L44.5,23.4z"></path>				</g>			</g>		</g>		<g>			<g>				<path class="st5" d="M20.1,10.3l-0.4,0.1C6.5,13.5,6.7,26,6.8,26.1v0.4l2-0.1V26c0-0.4-0.2-11,11.4-13.7l0.4-0.1L20.1,10.3z"></path>			</g>			<g>				<g>					<path class="st6" d="M11.9,26.8L11.9,26.8L11.9,26.8L11.9,26.8L11.9,26.8c-0.5-0.6-1.2-1-2-1.1c-0.7-0.1-1.5,0-2.2,0.3      c-0.5-0.5-1.2-0.9-1.9-1c-0.8-0.1-1.6,0-2.3,0.3l0,0l0,0l0,0l0,0c-1.8,0.8-3,2.6-3.4,4.6c-0.7,3.6,1.7,7.2,5.4,7.9      c3.6,0.7,7.2-1.7,7.9-5.4C13.8,30.3,13.3,28.1,11.9,26.8z"></path>				</g>			</g>			<g>				<g>					<path class="st5" d="M12.5,3.9c-0.9,0.6-1.7,1.4-2.3,2.3c-0.6,0.9-1.1,1.9-1.4,3L17,11L12.5,3.9z"></path>				</g>			</g>		</g>	</g></g></svg>