<svg xmlns="http://www.w3.org/2000/svg" viewBox="0 0 142.8 142.8">
  <circle fill="#F1F1F1" cx="71.4" cy="71.4" r="71.4"/>
<g transform="translate(71.4,72) rotate(0) scale(1.5)">
  <path d="M0,-26 C20,-26 30,-10 28,8 C26,26 14,38 0,38 C-14,38 -26,26 -28,8 C-30,-10 -20,-26 0,-26 Z" fill="#74A72D"/>
  <path d="M-6,-25 C-20,-22 -28,-8 -28,8 C-28,20 -22,30 -14,35 C-24,22 -26,-6 -6,-25 Z" fill="#4F8D36"/>
  <path d="M2,-26 L0,-36 L4,-36 Z" fill="#651220"/>
  <path d="M4,-33 C14,-44 30,-42 34,-40 C28,-30 14,-26 4,-33 Z" fill="#74A72D"/>
</g></svg>