<svg xmlns="http://www.w3.org/2000/svg" viewBox="0 0 66.6 103.9">
  <!-- three mangoes stacked diagonally -->
  <g>
    <path d="M18 8 c11 0 16 8 15 17 c-1 9 -8 15 -15 15 c-7 0 -14 -6 -15 -15 c-1 -9 4 -17 15 -17 z" fill="#F6A200"/>
    <path d="M6 14 c-4 6 -3 15 3 21 c-5 -8 -5 -16 -3 -21 z" fill="#EDA20B"/>
    <path d="M18.8 8 l-1 -6 l2 0 z" fill="#651220"/>
    <path d="M19.5 4 c5 -5 13 -4 16 -3 c-3 5 -11 6 -16 3 z" fill="#7AA82D"/>
  </g>
  <g>
    <path d="M46 40 c11 0 16 8 15 17 c-1 9 -8 15 -15 15 c-7 0 -14 -6 -15 -15 c-1 -9 4 -17 15 -17 z" fill="#EDA20B"/>
    <path d="M34 46 c-4 6 -3 15 3 21 c-5 -8 -5 -16 -3 -21 z" fill="#F39A00"/>
    <path d="M46.8 40 l-1 -6 l2 0 z" fill="#651220"/>
    <path d="M47.5 36 c5 -5 13 -4 16 -3 c-3 5 -11 6 -16 3 z" fill="#619B26"/>
  </g>
  <g>
    <path d="M22 72 c11 0 16 8 15 17 c-1 9 -8 15 -15 15 c-7 0 -14 -6 -15 -15 c-1 -9 4 -17 15 -17 z" fill="#F6A200"/>
    <path d="M10 78 c-4 6 -3 15 3 21 c-5 -8 -5 -16 -3 -21 z" fill="#EDA20B"/>
    <path d="M22.8 72 l-1 -6 l2 0 z" fill="#651220"/>
    <path d="M23.5 68 c5 -5 13 -4 16 -3 c-3 5 -11 6 -16 3 z" fill="#7AA82D"/>
  </g>
</svg>
