<svg xmlns="http://www.w3.org/2000/svg" id="a-1" data-name="Laag 1" viewBox="0 0 16.83 15.87"><defs><style>      .b {        fill: #f8c6a7;      }      .b, .c, .d, .e, .f, .g, .h {        stroke-width: 0px;      }      .c {        fill: #c61d5d;      }      .d {        fill: #8d72b1;      }      .e {        fill: #6d2f71;      }      .f {        fill: #7e4e24;      }      .g {        fill: #f39a00;      }      .h {        fill: #e5b89b;      }    </style></defs><g><path class="g" d="m14.72.7c-2.04-1.28-4.73-.66-6.02,1.38-.77,1.23-.85,2.7-.35,3.95l-1.01.92,1.65.18c.3.37.66.7,1.08.96,2.04,1.28,4.73.66,6.02-1.38s.66-4.73-1.38-6.02Z"></path><g><g><path class="e" d="m.29,9.79h6.59c.16,0,.29.13.29.29v5.79H0v-5.79c0-.16.13-.29.29-.29Z"></path><polygon class="d" points="5.41 15.87 2.01 15.87 1 9.79 6.16 9.79 5.41 15.87"></polygon></g><g><polygon class="h" points="4.64 9.81 3.58 10.54 2.53 9.81 2.53 8.37 4.64 8.37 4.64 9.81"></polygon><path class="f" d="m6.25,5.77v-2.94h-3.67s-1.62-.08-1.62,1.23v1.44l5.28.26Z"></path><path class="h" d="m5.72,5.34v-.94H1.45v.94c-.44,0-.79.35-.79.79s.35.79.79.79c0,0,.01,0,.02,0,.14,1.05,1.03,1.86,2.11,1.86s1.98-.81,2.11-1.86c0,0,.01,0,.02,0,.44,0,.79-.35.79-.79s-.35-.79-.79-.79Z"></path><path class="b" d="m5.79,6.6c0,1.2-.98,2.18-2.18,2.18s-2.18-.98-2.18-2.18v-2.15l2.21-.18,2.15.42v1.91Z"></path><path class="f" d="m1.31,4.47c.68.53,1.61.75,2.54.75.77,0,1.48-.22,2.09-.59v-.56H1.55l-.23.4Z"></path></g></g><g><path class="c" d="m9,3.67h.32v1.47h-.32v-1.47Z"></path><path class="c" d="m9.58,3.57h.31v.96l.34-.4h.38l-.4.45.41.55h-.39l-.34-.51h0v.51h-.31v-1.57Z"></path><path class="c" d="m11.23,4.13h.33l.21.63h0l.17-.63h.34l.19.63h0l.19-.63h.32l-.36,1.01h-.31l-.21-.67h0l-.19.67h-.31l-.37-1.01Z"></path><path class="c" d="m13.06,3.81s.02-.09.05-.13c.04-.04.08-.05.13-.05s.09.02.13.05c.04.04.05.08.05.13s-.02.09-.05.13c-.04.04-.08.05-.13.05s-.09-.02-.13-.05c-.04-.04-.05-.08-.05-.13Zm.02.32h.31v1.01h-.31v-1.01Z"></path><path class="c" d="m13.62,3.57h.31v1.57h-.31v-1.57Z"></path><path class="c" d="m14.16,4.96s0-.05.01-.07c0-.02.02-.04.04-.06.02-.02.04-.03.06-.04s.05-.01.07-.01.05,0,.07.01.04.02.06.04.03.04.04.06c0,.02.01.05.01.07s0,.05-.01.07c0,.02-.02.04-.04.06s-.04.03-.06.04-.05.01-.07.01-.05,0-.07-.01-.04-.02-.06-.04c-.02-.02-.03-.04-.04-.06,0-.02-.01-.05-.01-.07Z"></path><path class="c" d="m14.78,4.96s0-.05.01-.07c0-.02.02-.04.04-.06.02-.02.04-.03.06-.04s.05-.01.07-.01.05,0,.07.01.04.02.06.04.03.04.04.06c0,.02.01.05.01.07s0,.05-.01.07c0,.02-.02.04-.04.06s-.04.03-.06.04-.05.01-.07.01-.05,0-.07-.01-.04-.02-.06-.04c-.02-.02-.03-.04-.04-.06,0-.02-.01-.05-.01-.07Z"></path><path class="c" d="m15.39,4.96s0-.05.01-.07c0-.02.02-.04.04-.06.02-.02.04-.03.06-.04s.05-.01.07-.01.05,0,.07.01.04.02.06.04.03.04.04.06c0,.02.01.05.01.07s0,.05-.01.07c0,.02-.02.04-.04.06s-.04.03-.06.04-.05.01-.07.01-.05,0-.07-.01-.04-.02-.06-.04c-.02-.02-.03-.04-.04-.06,0-.02-.01-.05-.01-.07Z"></path></g></g><path class="g" d="m14.69.7C12.55-.64,9.73,0,8.39,2.14c-.81,1.29-.89,2.83-.37,4.14l-1.06.97,1.73.19c.31.39.69.73,1.13,1.01,2.14,1.34,4.96.7,6.3-1.44s.7-4.96-1.44-6.3Z"></path><g><path class="c" d="m8.79,3.55h.32v1.45h-.32v-1.45Z"></path><path class="c" d="m9.85,4.01h.33l.2.63h0l.17-.63h.34l.18.63h0l.19-.63h.31l-.35,1h-.3l-.21-.66h0l-.18.66h-.31l-.37-1Z"></path><path class="c" d="m12.31,4.88h0c-.03.05-.08.09-.14.11-.06.02-.12.03-.18.03-.05,0-.09,0-.13-.02-.04-.01-.08-.03-.11-.06-.03-.03-.06-.06-.08-.1-.02-.04-.03-.08-.03-.13,0-.06.01-.11.03-.15s.05-.07.09-.1c.04-.03.08-.05.12-.06s.09-.02.14-.03c.05,0,.1-.01.15-.01.05,0,.1,0,.14,0,0-.05-.02-.1-.06-.13-.04-.03-.09-.05-.14-.05-.05,0-.1.01-.14.03s-.08.05-.11.09l-.16-.17c.06-.05.12-.09.2-.12.08-.03.16-.04.24-.04.09,0,.16.01.22.03.06.02.1.06.14.1s.06.1.07.16c.01.06.02.14.02.22v.51h-.28v-.13Zm-.08-.31s-.05,0-.09,0c-.03,0-.07,0-.1.02-.03,0-.06.02-.08.04-.02.02-.03.05-.03.08,0,.04.02.06.05.08.03.02.06.03.1.03.03,0,.06,0,.09-.01s.05-.02.07-.03c.02-.01.04-.03.05-.06.01-.02.02-.05.02-.08v-.07h-.08Z"></path><path class="c" d="m12.78,4.01h.3v.14h0s.02-.04.04-.06c.02-.02.04-.04.06-.05.02-.01.05-.03.08-.04.03,0,.07-.01.1-.01.08,0,.14.01.19.04.05.02.09.06.11.1s.04.09.05.15c0,.06.01.12.01.19v.55h-.31v-.49s0-.06,0-.09,0-.06-.02-.09c-.01-.03-.03-.05-.05-.06-.02-.02-.05-.02-.09-.02s-.07,0-.1.02c-.02.01-.04.03-.06.06s-.02.05-.03.08,0,.06,0,.09v.5h-.31v-1Z"></path><path class="c" d="m14.64,4.25h-.27v.33s0,.05,0,.07,0,.04.02.06c0,.02.02.03.04.04.02,0,.05.01.08.01.02,0,.04,0,.06,0,.03,0,.05-.01.06-.02v.26s-.07.02-.11.02c-.04,0-.07,0-.11,0-.05,0-.1,0-.14-.02-.04-.01-.08-.03-.11-.05-.03-.02-.06-.06-.08-.09-.02-.04-.03-.08-.03-.14v-.47h-.2v-.25h.2v-.3h.31v.3h.27v.25Z"></path><path class="c" d="m14.8,4.83s0-.05.01-.07c0-.02.02-.04.04-.06.02-.02.04-.03.06-.04.02,0,.05-.01.07-.01s.05,0,.07.01c.02,0,.04.02.06.04.02.02.03.04.04.06,0,.02.01.05.01.07s0,.05-.01.07c0,.02-.02.04-.04.06s-.04.03-.06.04c-.02,0-.05.01-.07.01s-.05,0-.07-.01c-.02,0-.04-.02-.06-.04s-.03-.04-.04-.06c0-.02-.01-.05-.01-.07Z"></path><path class="c" d="m15.41,4.83s0-.05.01-.07c0-.02.02-.04.04-.06.02-.02.04-.03.06-.04.02,0,.05-.01.07-.01s.05,0,.07.01c.02,0,.04.02.06.04.02.02.03.04.04.06,0,.02.01.05.01.07s0,.05-.01.07c0,.02-.02.04-.04.06s-.04.03-.06.04c-.02,0-.05.01-.07.01s-.05,0-.07-.01c-.02,0-.04-.02-.06-.04s-.03-.04-.04-.06c0-.02-.01-.05-.01-.07Z"></path><path class="c" d="m16.01,4.83s0-.05.01-.07c0-.02.02-.04.04-.06.02-.02.04-.03.06-.04.02,0,.05-.01.07-.01s.05,0,.07.01c.02,0,.04.02.06.04.02.02.03.04.04.06,0,.02.01.05.01.07s0,.05-.01.07c0,.02-.02.04-.04.06s-.04.03-.06.04c-.02,0-.05.01-.07.01s-.05,0-.07-.01c-.02,0-.04-.02-.06-.04s-.03-.04-.04-.06c0-.02-.01-.05-.01-.07Z"></path></g></svg>