<svg xmlns="http://www.w3.org/2000/svg" viewBox="0 0 77.85 79.66">
  <!-- circular arrow ring (the "chain" / cycle) -->
  <g fill="none" stroke="#7AA82D" stroke-width="4">
    <path d="M64 26 a30 30 0 1 1 -11 -12" stroke-linecap="round"/>
  </g>
  <!-- arrowhead -->
  <path d="M52 8 l10 6 l-11 6 z" fill="#619B26"/>
  <!-- centre mango -->
  <g transform="translate(38.9 42)">
    <path d="M0 -15 c11 0 16 8 15 16 c-1 8 -8 14 -15 14 c-7 0 -14 -6 -15 -14 c-1 -8 4 -16 15 -16 z" fill="#F6A200"/>
    <path d="M-11 -9 c-4 6 -3 14 3 20 c-5 -8 -5 -15 -3 -20 z" fill="#EDA20B"/>
    <path d="M0.8 -15 l-1 -6 l2 0 z" fill="#651220"/>
    <path d="M1.5 -19 c5 -5 13 -4 16 -3 c-3 5 -11 6 -16 3 z" fill="#7AA82D"/>
  </g>
</svg>
