<svg xmlns="http://www.w3.org/2000/svg" id="uuid-ef09ac5a-7a65-44f1-8ea7-7753c98ee936" data-name="Laag 1" viewBox="0 0 77.85 79.66"><defs><style>      .uuid-0a4e0c79-3bdf-438e-90e6-ad3898a93aca, .uuid-27009d96-3e95-410c-ba9a-8bcc45b01068 {        fill: #005791;      }      .uuid-fab355fe-9d67-46a2-b048-50b063f6ffe5 {        opacity: .2;      }      .uuid-3bc9563e-23c6-40a3-809b-c14a3239d116 {        fill: #b07e4a;      }      .uuid-3bc9563e-23c6-40a3-809b-c14a3239d116, .uuid-25e7eacc-ec99-4f50-a9e8-ae3501634848 {        fill-rule: evenodd;      }      .uuid-3bc9563e-23c6-40a3-809b-c14a3239d116, .uuid-25e7eacc-ec99-4f50-a9e8-ae3501634848, .uuid-f86ffd75-f66f-4a3d-960f-c0a601fc0cf0, .uuid-337a8e33-b933-4183-9af9-291f59d4ea8f, .uuid-3dd91579-9482-4c88-948f-4e60d1a4cbee, .uuid-241837c1-9fcc-438c-9453-030499b4ec52, .uuid-ac04c38d-5190-432f-9fd7-76b0a1c3deb0, .uuid-49bf1937-6e1a-44e3-b8ba-85bb484a5a01, .uuid-b6146273-52b3-4157-bd65-37b30d79eadc, .uuid-0dc60453-982c-43c8-b34e-65d320b6c448, .uuid-e633f669-636a-4451-aa0f-70d82e5dde84, .uuid-6c7020b2-7388-4881-8208-21f5352d9254, .uuid-17e8cbf5-901a-4c3a-9866-cb2c2ccc8090, .uuid-61672743-18d2-48d4-b0da-0115e81cded4, .uuid-5f0c680c-833f-4fd7-9e9b-5012d20f457c, .uuid-1e380499-5049-4c96-b52d-c553e57a1af5, .uuid-2c2e6407-b1d4-456e-b9c3-7e49ae634a53, .uuid-5c9ff416-d2fc-4424-97af-c3a7df7a0b8f, .uuid-e23ca2a0-adca-4655-bbb1-c2a9f500d5c9, .uuid-579094b4-e9ea-43f6-86e8-8f90321644ee, .uuid-db5e64a5-0f28-40cd-90f4-576fa5650569, .uuid-27ad830b-d137-41e0-b2dc-d79190c9aae6, .uuid-e69eb06e-1381-4b2c-8607-a0a3ab73e61a, .uuid-d74b4785-1b07-4640-8fbd-6378e9522129, .uuid-c2af3e78-cb56-41e7-9524-7d9eb86eb13f, .uuid-90c5256f-a623-4450-b9bf-c52994744137, .uuid-40c78611-70b3-41ff-a37b-86c835dea1e1, .uuid-f1b3d059-26bf-4971-bc41-e4cea222b078, .uuid-b5e89532-fec1-469a-93bb-edcc04f049e2, .uuid-c7c0b402-ab12-4509-bcf4-787bee27d538, .uuid-27009d96-3e95-410c-ba9a-8bcc45b01068, .uuid-6bbfdb65-91dc-40ac-b449-f0a2b03b3acb, .uuid-599ff69a-758f-42c0-bbeb-13007167e177 {        stroke-width: 0px;      }      .uuid-25e7eacc-ec99-4f50-a9e8-ae3501634848 {        fill: #906037;      }      .uuid-f86ffd75-f66f-4a3d-960f-c0a601fc0cf0 {        fill: #f8c6a7;      }      .uuid-337a8e33-b933-4183-9af9-291f59d4ea8f {        fill: #619b26;      }      .uuid-3dd91579-9482-4c88-948f-4e60d1a4cbee {        fill: #53b9cf;      }      .uuid-241837c1-9fcc-438c-9453-030499b4ec52 {        fill: #65041c;      }      .uuid-ac04c38d-5190-432f-9fd7-76b0a1c3deb0 {        fill: #99c237;      }      .uuid-49bf1937-6e1a-44e3-b8ba-85bb484a5a01 {        fill: #94bf1f;      }      .uuid-b6146273-52b3-4157-bd65-37b30d79eadc {        fill: #703b76;      }      .uuid-0dc60453-982c-43c8-b34e-65d320b6c448 {        fill: #2f3571;      }      .uuid-e633f669-636a-4451-aa0f-70d82e5dde84 {        fill: #c61d5d;      }      .uuid-6c7020b2-7388-4881-8208-21f5352d9254 {        fill: #d51937;      }      .uuid-17e8cbf5-901a-4c3a-9866-cb2c2ccc8090 {        fill: #da306c;      }      .uuid-61672743-18d2-48d4-b0da-0115e81cded4 {        fill: #acdae6;      }      .uuid-5f0c680c-833f-4fd7-9e9b-5012d20f457c {        fill: #b1ca08;      }      .uuid-1e380499-5049-4c96-b52d-c553e57a1af5 {        fill: #8d72b1;      }      .uuid-2c2e6407-b1d4-456e-b9c3-7e49ae634a53 {        fill: #9169a8;      }      .uuid-5c9ff416-d2fc-4424-97af-c3a7df7a0b8f {        fill: #6d2f71;      }      .uuid-e23ca2a0-adca-4655-bbb1-c2a9f500d5c9 {        fill: #7e4e24;      }      .uuid-579094b4-e9ea-43f6-86e8-8f90321644ee {        fill: #73a52d;      }      .uuid-db5e64a5-0f28-40cd-90f4-576fa5650569 {        fill: #73a529;      }      .uuid-27ad830b-d137-41e0-b2dc-d79190c9aae6 {        fill: #f39a00;      }      .uuid-e69eb06e-1381-4b2c-8607-a0a3ab73e61a {        fill: #fff;      }      .uuid-d74b4785-1b07-4640-8fbd-6378e9522129 {        fill: #ea7108;      }      .uuid-c2af3e78-cb56-41e7-9524-7d9eb86eb13f {        fill: #e63b4b;      }      .uuid-90c5256f-a623-4450-b9bf-c52994744137 {        fill: #ea6609;      }      .uuid-40c78611-70b3-41ff-a37b-86c835dea1e1 {        fill: #e5b89b;      }      .uuid-f1b3d059-26bf-4971-bc41-e4cea222b078 {        fill: #f08f0a;      }      .uuid-b5e89532-fec1-469a-93bb-edcc04f049e2 {        fill: #f6a200;      }      .uuid-c7c0b402-ab12-4509-bcf4-787bee27d538 {        fill: #f5aeb6;      }      .uuid-6bbfdb65-91dc-40ac-b449-f0a2b03b3acb {        fill: #008b39;      }      .uuid-599ff69a-758f-42c0-bbeb-13007167e177 {        fill: #063;      }    </style></defs><g><path class="uuid-337a8e33-b933-4183-9af9-291f59d4ea8f" d="m23.46,31.64h.69l.46,1.84h0l.6-1.84h.59l.6,1.89h0l.48-1.89h.64l-.84,2.87h-.56l-.63-1.98h0l-.63,1.98h-.54l-.85-2.87Z"></path><path class="uuid-337a8e33-b933-4183-9af9-291f59d4ea8f" d="m27.69,31.92c0-.1.03-.18.1-.25s.15-.1.25-.1.18.03.25.1.1.15.1.25-.03.18-.1.25-.15.1-.25.1-.18-.03-.25-.1-.1-.15-.1-.25Zm.05.62h.61v1.97h-.61v-1.97Z"></path><path class="uuid-337a8e33-b933-4183-9af9-291f59d4ea8f" d="m30.13,33.03h-.53v.66c0,.05,0,.1,0,.15,0,.04.02.08.04.12.02.03.05.06.09.08s.09.03.16.03c.03,0,.08,0,.13,0,.05,0,.09-.02.12-.05v.51c-.07.02-.14.04-.21.05-.07,0-.14.01-.21.01-.1,0-.2-.01-.28-.03-.09-.02-.16-.06-.23-.1-.06-.05-.12-.11-.15-.18-.04-.08-.05-.17-.05-.28v-.94h-.39v-.49h.39v-.58h.61v.58h.53v.49Z"></path><path class="uuid-337a8e33-b933-4183-9af9-291f59d4ea8f" d="m31.04,31.45v1.36h0s.04-.08.07-.11c.03-.04.07-.07.12-.1s.1-.05.16-.07c.06-.02.13-.03.2-.03.15,0,.28.02.37.07.09.05.17.11.22.2.05.08.09.18.11.3.02.11.03.24.03.37v1.09h-.61v-.96c0-.06,0-.12,0-.18,0-.06-.02-.12-.04-.17-.02-.05-.05-.09-.09-.13-.04-.03-.1-.05-.18-.05s-.14.01-.19.04c-.05.03-.09.07-.11.11-.03.05-.04.1-.05.16,0,.06-.01.12-.01.19v.98h-.61v-3.06h.61Z"></path><path class="uuid-337a8e33-b933-4183-9af9-291f59d4ea8f" d="m32.69,33.52c0-.16.03-.3.08-.42.06-.13.13-.24.23-.33s.21-.16.35-.21c.13-.05.28-.07.43-.07s.29.02.43.07c.13.05.25.12.35.21s.18.2.23.33.08.27.08.42-.03.3-.08.43c-.06.13-.13.24-.23.33s-.21.16-.35.21c-.13.05-.28.07-.43.07s-.29-.02-.43-.07c-.13-.05-.25-.12-.35-.21s-.18-.2-.23-.33c-.06-.13-.08-.27-.08-.43Zm.61,0c0,.15.04.27.13.36s.2.14.36.14.27-.05.36-.14.13-.21.13-.36-.04-.27-.13-.36-.2-.14-.36-.14-.27.05-.36.14-.13.21-.13.36Z"></path><path class="uuid-337a8e33-b933-4183-9af9-291f59d4ea8f" d="m37.13,34.51h-.58v-.27h0s-.05.08-.08.11c-.03.04-.07.07-.12.1-.05.03-.1.05-.17.07-.06.02-.13.03-.2.03-.15,0-.28-.02-.38-.07-.1-.05-.17-.11-.22-.2-.05-.08-.09-.18-.1-.3-.02-.11-.03-.24-.03-.37v-1.09h.61v.96c0,.06,0,.12,0,.18,0,.06.02.12.04.17.02.05.05.09.09.13.04.03.1.05.18.05s.14-.01.19-.04c.05-.03.09-.07.11-.11.03-.05.04-.1.05-.16,0-.06.01-.12.01-.19v-.98h.61v1.97Z"></path><path class="uuid-337a8e33-b933-4183-9af9-291f59d4ea8f" d="m38.9,33.03h-.53v.66c0,.05,0,.1,0,.15,0,.04.02.08.04.12.02.03.05.06.09.08s.09.03.16.03c.03,0,.08,0,.13,0,.05,0,.09-.02.12-.05v.51c-.07.02-.14.04-.21.05-.07,0-.14.01-.21.01-.1,0-.2-.01-.28-.03-.09-.02-.16-.06-.23-.1-.06-.05-.12-.11-.15-.18-.04-.08-.05-.17-.05-.28v-.94h-.39v-.49h.39v-.58h.61v.58h.53v.49Z"></path><path class="uuid-337a8e33-b933-4183-9af9-291f59d4ea8f" d="m42.47,34.51h-.56v-.26h0s-.06.07-.09.11-.08.07-.14.1-.11.05-.17.07c-.06.02-.13.03-.2.03-.15,0-.28-.03-.4-.08s-.22-.12-.31-.21c-.09-.09-.15-.2-.2-.32-.05-.12-.07-.26-.07-.41,0-.14.02-.27.06-.4s.1-.24.18-.33c.08-.1.17-.17.28-.23s.24-.09.38-.09c.13,0,.25.02.35.06s.2.11.27.2h0v-1.3h.61v3.06Zm-.56-.98c0-.15-.04-.27-.13-.36s-.21-.14-.36-.14-.27.05-.36.14-.13.21-.13.36.04.27.13.36.2.14.36.14.27-.05.36-.14.13-.21.13-.36Z"></path><path class="uuid-337a8e33-b933-4183-9af9-291f59d4ea8f" d="m44.82,34.17c-.1.12-.22.22-.37.29s-.3.1-.46.1-.29-.02-.43-.07c-.13-.05-.25-.12-.35-.21s-.18-.2-.23-.33c-.06-.13-.08-.27-.08-.43s.03-.3.08-.42.13-.24.23-.33.21-.16.35-.21c.13-.05.28-.07.43-.07.14,0,.27.02.38.07.12.05.21.12.29.21.08.09.14.2.18.33.04.13.06.27.06.42v.19h-1.41c.02.12.08.21.16.28s.18.1.3.1c.1,0,.18-.02.25-.07.07-.04.13-.1.18-.17l.43.31Zm-.51-.87c0-.1-.03-.19-.1-.26s-.16-.11-.27-.11c-.07,0-.13.01-.18.03-.05.02-.1.05-.13.08-.04.03-.06.07-.08.12s-.03.09-.03.14h.8Z"></path><path class="uuid-337a8e33-b933-4183-9af9-291f59d4ea8f" d="m45.28,32.54h.58v.27h0s.05-.08.08-.11c.04-.04.08-.07.13-.1s.1-.05.17-.07c.06-.02.13-.03.2-.03.14,0,.26.03.37.09.11.06.19.15.24.27.07-.13.16-.22.26-.27.1-.05.22-.08.37-.08.13,0,.24.02.33.07s.16.11.21.18c.05.08.09.17.11.27.02.1.03.22.03.33v1.16h-.61v-1.15c0-.09-.02-.17-.06-.24-.04-.07-.11-.1-.21-.1-.07,0-.13.01-.18.03s-.08.05-.11.1-.05.09-.06.14c-.01.05-.02.11-.02.17v1.04h-.61v-1.04s0-.08,0-.13-.01-.1-.03-.15c-.02-.05-.04-.08-.08-.12-.04-.03-.09-.05-.16-.05-.08,0-.14.01-.19.04s-.09.07-.11.11c-.03.05-.04.1-.05.16,0,.06-.01.12-.01.19v.98h-.61v-1.97Z"></path><path class="uuid-337a8e33-b933-4183-9af9-291f59d4ea8f" d="m50.04,34.26h0c-.07.11-.16.18-.27.23-.11.05-.23.07-.35.07-.09,0-.18-.01-.27-.04-.08-.03-.16-.06-.22-.12s-.12-.11-.15-.19c-.04-.08-.06-.16-.06-.26,0-.11.02-.21.06-.29.04-.08.1-.14.17-.19.07-.05.15-.09.25-.12s.19-.05.29-.06.2-.02.3-.02c.1,0,.19,0,.27,0,0-.11-.04-.19-.12-.26-.08-.06-.17-.1-.27-.1s-.19.02-.27.06c-.08.04-.16.1-.22.17l-.32-.33c.11-.1.25-.18.4-.24s.31-.08.47-.08c.18,0,.33.02.44.07.12.04.21.11.28.2.07.09.12.19.14.32.03.13.04.27.04.44v1h-.56v-.25Zm-.15-.62s-.1,0-.17,0c-.07,0-.13.02-.2.03-.06.02-.12.05-.16.08-.04.04-.07.09-.07.16,0,.07.03.13.09.16.06.04.13.05.19.05.06,0,.12,0,.17-.02s.1-.04.15-.07c.04-.03.08-.07.1-.11.03-.05.04-.1.04-.16v-.13h-.15Z"></path><path class="uuid-337a8e33-b933-4183-9af9-291f59d4ea8f" d="m50.98,32.54h.58v.27h0s.05-.08.08-.11c.04-.04.08-.07.13-.1s.1-.05.17-.07c.06-.02.13-.03.2-.03.15,0,.28.02.37.07s.17.11.22.2c.05.08.09.18.11.3.02.11.03.24.03.37v1.09h-.61v-.96c0-.06,0-.12,0-.18,0-.06-.02-.12-.04-.17s-.05-.09-.09-.13c-.04-.03-.1-.05-.18-.05s-.14.01-.19.04-.09.07-.11.11c-.03.05-.04.1-.05.16,0,.06-.01.12-.01.19v.98h-.61v-1.97Z"></path><path class="uuid-337a8e33-b933-4183-9af9-291f59d4ea8f" d="m55.37,34.51h-.56v-.26h0s-.06.07-.09.11-.08.07-.14.1-.11.05-.17.07c-.06.02-.13.03-.2.03-.15,0-.28-.03-.4-.08s-.22-.12-.31-.21-.15-.2-.2-.32c-.05-.12-.07-.26-.07-.41,0-.14.02-.27.06-.4.04-.13.1-.24.18-.33s.17-.17.28-.23.24-.09.38-.09c.13,0,.25.02.35.06s.2.11.27.2h0v-1.3h.61v3.06Zm-.56-.98c0-.15-.04-.27-.13-.36s-.21-.14-.36-.14-.27.05-.36.14-.13.21-.13.36.04.27.13.36.2.14.36.14.27-.05.36-.14.13-.21.13-.36Z"></path><path class="uuid-337a8e33-b933-4183-9af9-291f59d4ea8f" d="m56.01,33.85h.58l-.37,1.14h-.52l.3-1.14Z"></path><path class="uuid-337a8e33-b933-4183-9af9-291f59d4ea8f" d="m27.73,37.4h.58v.27h0s.05-.08.08-.11c.04-.04.08-.07.13-.1.05-.03.1-.05.17-.07.06-.02.13-.03.2-.03.15,0,.28.02.37.07.09.05.17.11.22.2.05.08.09.18.11.3.02.11.03.24.03.37v1.09h-.61v-.96c0-.06,0-.12,0-.18,0-.06-.02-.12-.04-.17-.02-.05-.05-.09-.09-.13-.04-.03-.1-.05-.18-.05s-.14.01-.19.04c-.05.03-.09.07-.11.11-.03.05-.04.1-.05.16,0,.06-.01.12-.01.19v.98h-.61v-1.97Z"></path><path class="uuid-337a8e33-b933-4183-9af9-291f59d4ea8f" d="m29.99,38.38c0-.16.03-.3.08-.42.06-.13.13-.24.23-.33s.21-.16.35-.21c.13-.05.28-.07.43-.07s.29.02.43.07c.13.05.25.12.35.21s.18.2.23.33.08.27.08.42-.03.3-.08.43c-.06.13-.13.24-.23.33s-.21.16-.35.21c-.13.05-.28.07-.43.07s-.29-.02-.43-.07c-.13-.05-.25-.12-.35-.21s-.18-.2-.23-.33c-.06-.13-.08-.27-.08-.43Zm.61,0c0,.15.04.27.13.36s.2.14.36.14.27-.05.36-.14.13-.21.13-.36-.04-.27-.13-.36-.2-.14-.36-.14-.27.05-.36.14-.13.21-.13.36Z"></path><path class="uuid-337a8e33-b933-4183-9af9-291f59d4ea8f" d="m33.78,37.4h.56v.26h0s.06-.07.1-.11.08-.07.14-.1.11-.05.17-.07c.06-.02.13-.03.2-.03.15,0,.28.03.4.08.12.05.22.12.31.21s.15.2.2.32c.05.12.07.26.07.41,0,.14-.02.27-.06.4-.04.13-.1.24-.18.33-.08.1-.17.17-.28.23s-.24.09-.38.09c-.13,0-.25-.02-.35-.06s-.2-.11-.27-.2h0v1.13h-.61v-2.89Zm.56.98c0,.15.04.27.13.36.08.09.2.14.36.14s.27-.05.36-.14.13-.21.13-.36-.04-.27-.13-.36-.2-.14-.36-.14-.27.05-.36.14c-.09.09-.13.21-.13.36Z"></path><path class="uuid-337a8e33-b933-4183-9af9-291f59d4ea8f" d="m36.28,37.4h.61v.32h0c.06-.12.14-.21.23-.27.09-.06.2-.09.34-.09.03,0,.07,0,.1,0,.04,0,.07,0,.1.02v.55s-.09-.02-.13-.03-.09-.01-.13-.01c-.12,0-.21.02-.28.05-.07.03-.12.08-.16.14s-.06.13-.07.21-.02.17-.02.27v.82h-.61v-1.97Z"></path><path class="uuid-337a8e33-b933-4183-9af9-291f59d4ea8f" d="m37.78,38.38c0-.16.03-.3.08-.42.06-.13.13-.24.23-.33s.21-.16.35-.21c.13-.05.28-.07.43-.07s.29.02.43.07c.13.05.25.12.35.21s.18.2.23.33.08.27.08.42-.03.3-.08.43c-.06.13-.13.24-.23.33s-.21.16-.35.21c-.13.05-.28.07-.43.07s-.29-.02-.43-.07c-.13-.05-.25-.12-.35-.21s-.18-.2-.23-.33c-.06-.13-.08-.27-.08-.43Zm.61,0c0,.15.04.27.13.36s.2.14.36.14.27-.05.36-.14.13-.21.13-.36-.04-.27-.13-.36-.2-.14-.36-.14-.27.05-.36.14-.13.21-.13.36Z"></path><path class="uuid-337a8e33-b933-4183-9af9-291f59d4ea8f" d="m42.39,39.37h-.56v-.26h0s-.05.07-.09.11-.09.07-.14.1-.11.05-.17.07c-.06.02-.13.03-.2.03-.14,0-.28-.03-.4-.08s-.22-.12-.31-.21c-.09-.09-.15-.2-.2-.32-.05-.12-.07-.26-.07-.41,0-.14.02-.27.06-.4s.1-.24.18-.33c.08-.1.17-.17.28-.23.11-.06.24-.09.38-.09.13,0,.25.02.36.06s.2.11.27.2h0v-1.3h.61v3.06Zm-.56-.98c0-.15-.04-.27-.13-.36-.08-.09-.21-.14-.36-.14s-.27.05-.36.14c-.08.09-.13.21-.13.36s.04.27.13.36c.09.09.21.14.36.14s.27-.05.36-.14c.09-.09.13-.21.13-.36Z"></path><path class="uuid-337a8e33-b933-4183-9af9-291f59d4ea8f" d="m44.77,39.37h-.58v-.27h0s-.05.08-.08.11c-.03.04-.08.07-.12.1-.05.03-.1.05-.17.07-.06.02-.13.03-.2.03-.15,0-.28-.02-.37-.07-.1-.05-.17-.11-.22-.2-.05-.08-.09-.18-.11-.3-.02-.11-.03-.24-.03-.37v-1.09h.61v.96c0,.06,0,.12,0,.18,0,.06.02.12.04.17.02.05.05.09.09.13s.1.05.18.05.14-.01.19-.04c.05-.03.09-.07.11-.11.03-.05.04-.1.05-.16,0-.06.01-.12.01-.19v-.98h.61v1.97Z"></path><path class="uuid-337a8e33-b933-4183-9af9-291f59d4ea8f" d="m46.53,38.03s-.07-.08-.12-.11c-.05-.03-.11-.04-.17-.04-.15,0-.27.05-.36.14s-.13.21-.13.36.04.27.13.36.21.14.36.14c.07,0,.13-.02.17-.04.05-.03.09-.06.12-.1l.4.42c-.09.1-.21.17-.33.2-.13.04-.25.06-.37.06-.15,0-.29-.02-.43-.07-.13-.05-.25-.12-.35-.21s-.18-.2-.23-.33c-.06-.13-.08-.27-.08-.43s.03-.3.08-.42.13-.24.23-.33.21-.16.35-.21c.13-.05.28-.07.43-.07.12,0,.24.02.37.06.13.04.24.11.33.2l-.4.42Z"></path><path class="uuid-337a8e33-b933-4183-9af9-291f59d4ea8f" d="m48.49,37.88h-.54v.66c0,.05,0,.1,0,.15,0,.04.02.08.04.12.02.03.05.06.09.08s.09.03.16.03c.03,0,.07,0,.13,0s.09-.02.12-.05v.51c-.07.02-.14.04-.21.05-.07,0-.14.01-.21.01-.1,0-.2-.01-.28-.03-.09-.02-.16-.06-.23-.1-.07-.05-.12-.11-.15-.18-.04-.08-.05-.17-.05-.28v-.94h-.39v-.49h.39v-.58h.61v.58h.54v.49Z"></path><path class="uuid-337a8e33-b933-4183-9af9-291f59d4ea8f" d="m49.91,37.98c-.09-.11-.21-.17-.35-.17-.05,0-.1.01-.15.04-.05.02-.07.07-.07.13,0,.05.03.08.08.11s.11.04.19.06.16.04.25.06c.09.02.17.05.25.1.08.04.14.1.19.18s.08.17.08.3-.03.23-.08.31c-.06.08-.13.15-.21.2-.09.05-.18.08-.29.1-.11.02-.21.03-.32.03-.14,0-.28-.02-.42-.06-.14-.04-.26-.11-.36-.21l.37-.41c.06.07.12.12.19.16.07.04.15.05.24.05.07,0,.13-.01.19-.03.06-.02.09-.06.09-.11s-.03-.09-.08-.12c-.05-.03-.11-.05-.19-.06s-.16-.04-.25-.06c-.09-.02-.17-.05-.25-.09s-.14-.1-.19-.17-.08-.17-.08-.3c0-.12.02-.22.07-.3.05-.08.11-.15.19-.21.08-.05.17-.09.26-.12.1-.03.2-.04.3-.04.13,0,.26.02.39.06.13.04.24.1.34.2l-.37.37Z"></path><path class="uuid-337a8e33-b933-4183-9af9-291f59d4ea8f" d="m50.69,39.02c0-.05,0-.1.03-.15.02-.05.05-.09.08-.12.03-.03.07-.06.12-.08.05-.02.09-.03.15-.03s.1,0,.15.03c.05.02.09.04.12.08.03.03.06.07.08.12.02.05.03.09.03.15s0,.1-.03.15c-.02.05-.04.09-.08.12-.03.03-.07.06-.12.08-.05.02-.09.03-.15.03s-.1,0-.15-.03c-.05-.02-.08-.05-.12-.08-.03-.03-.06-.07-.08-.12-.02-.05-.03-.09-.03-.15Z"></path><path class="uuid-337a8e33-b933-4183-9af9-291f59d4ea8f" d="m30.09,41.92h-.82v-.56h2.27v.56h-.82v2.31h-.63v-2.31Z"></path><path class="uuid-337a8e33-b933-4183-9af9-291f59d4ea8f" d="m32.39,41.17v1.36h0s.04-.08.07-.11c.03-.04.07-.07.12-.1.05-.03.1-.05.16-.07.06-.02.13-.03.2-.03.15,0,.28.02.37.07.09.05.17.11.22.2.05.08.09.18.11.3.02.11.03.24.03.37v1.08h-.61v-.96c0-.06,0-.12,0-.18,0-.06-.02-.12-.04-.17-.02-.05-.05-.09-.09-.12-.04-.03-.1-.05-.18-.05s-.14.01-.19.04c-.05.03-.09.07-.11.11-.03.05-.04.1-.05.16,0,.06-.01.12-.01.19v.98h-.61v-3.06h.61Z"></path><path class="uuid-337a8e33-b933-4183-9af9-291f59d4ea8f" d="m35.34,43.98h0c-.07.11-.16.18-.27.23-.11.05-.23.07-.35.07-.09,0-.18-.01-.27-.04-.08-.03-.16-.06-.22-.12-.06-.05-.12-.11-.15-.19-.04-.08-.06-.16-.06-.26,0-.11.02-.21.06-.29s.1-.14.17-.19c.07-.05.15-.09.25-.12s.19-.05.29-.06c.1-.01.2-.02.3-.02.1,0,.19,0,.27,0,0-.11-.04-.19-.12-.26s-.17-.09-.27-.09-.19.02-.27.06c-.08.04-.16.1-.22.17l-.32-.33c.11-.11.25-.18.4-.24.15-.05.31-.08.47-.08.18,0,.32.02.44.07.11.04.21.11.28.2.07.09.12.19.14.32.03.12.04.27.04.44v1h-.56v-.25Zm-.15-.62s-.1,0-.17,0-.14.02-.2.03c-.06.02-.12.05-.16.08-.04.04-.07.09-.07.16,0,.07.03.13.09.16.06.04.13.05.19.05.06,0,.12,0,.17-.02.06-.02.1-.04.15-.07.04-.03.08-.07.1-.11.03-.05.04-.1.04-.16v-.13h-.15Z"></path><path class="uuid-337a8e33-b933-4183-9af9-291f59d4ea8f" d="m37.62,42.74h-.53v.66c0,.05,0,.1,0,.15,0,.04.02.08.04.12.02.03.05.06.09.07s.09.03.16.03c.03,0,.08,0,.13,0,.05,0,.09-.02.12-.05v.51c-.07.02-.14.04-.21.05-.07,0-.14.01-.21.01-.1,0-.2-.01-.28-.03-.09-.02-.16-.06-.23-.1-.06-.05-.12-.11-.15-.18-.04-.08-.05-.17-.05-.28v-.94h-.39v-.49h.39v-.58h.61v.58h.53v.49Z"></path><path class="uuid-337a8e33-b933-4183-9af9-291f59d4ea8f" d="m38.06,41.36h.51v1.14h-.51v-1.14Z"></path><path class="uuid-337a8e33-b933-4183-9af9-291f59d4ea8f" d="m40.24,42.84c-.09-.11-.21-.17-.35-.17-.05,0-.1.01-.15.04-.05.02-.07.07-.07.12,0,.05.02.08.07.11.05.02.11.04.19.06.08.02.16.04.25.06.09.02.17.05.25.09s.14.1.19.18c.05.07.07.17.07.3s-.03.23-.08.31c-.06.08-.13.15-.21.2s-.18.08-.29.11c-.11.02-.21.03-.32.03-.14,0-.28-.02-.42-.06-.14-.04-.26-.11-.36-.21l.37-.41c.06.07.12.12.19.16s.15.05.24.05c.07,0,.13,0,.19-.03s.08-.06.08-.11-.02-.09-.07-.12c-.05-.03-.11-.05-.19-.07-.08-.02-.16-.04-.25-.06-.09-.02-.17-.05-.25-.09-.08-.04-.14-.1-.19-.17s-.07-.17-.07-.3c0-.12.02-.22.07-.3.05-.08.11-.15.19-.21.08-.05.17-.09.27-.12.1-.03.2-.04.3-.04.13,0,.26.02.39.06s.24.11.34.2l-.37.37Z"></path><path class="uuid-337a8e33-b933-4183-9af9-291f59d4ea8f" d="m41.97,42.26h.65l.4,1.24h0l.34-1.24h.66l.36,1.24h0l.37-1.24h.62l-.7,1.97h-.6l-.41-1.31h0l-.36,1.31h-.61l-.72-1.97Z"></path><path class="uuid-337a8e33-b933-4183-9af9-291f59d4ea8f" d="m46.18,41.17v1.36h0s.04-.08.07-.11.07-.07.12-.1c.05-.03.1-.05.16-.07.06-.02.13-.03.2-.03.15,0,.28.02.37.07.09.05.17.11.22.2.05.08.09.18.11.3.02.11.03.24.03.37v1.08h-.61v-.96c0-.06,0-.12,0-.18,0-.06-.02-.12-.04-.17-.02-.05-.05-.09-.09-.12s-.1-.05-.18-.05-.14.01-.19.04-.09.07-.11.11c-.03.05-.04.1-.05.16,0,.06-.01.12-.01.19v.98h-.61v-3.06h.61Z"></path><path class="uuid-337a8e33-b933-4183-9af9-291f59d4ea8f" d="m49.03,44.55c-.04.1-.08.2-.12.28-.04.08-.09.15-.14.2-.06.06-.13.1-.22.13-.09.03-.21.04-.35.04-.16,0-.31-.02-.45-.07l.08-.5c.09.04.19.06.28.06.07,0,.12,0,.17-.02.04-.01.08-.04.11-.06s.05-.06.07-.1c.02-.04.04-.09.06-.14l.04-.11-.86-1.99h.66l.51,1.3h0l.43-1.3h.62l-.89,2.29Z"></path><path class="uuid-337a8e33-b933-4183-9af9-291f59d4ea8f" d="m25.28,48.75c-.1.12-.22.22-.37.29s-.3.1-.46.1-.29-.02-.43-.07c-.13-.05-.25-.12-.35-.21-.1-.09-.18-.2-.23-.33s-.08-.27-.08-.43.03-.3.08-.42.13-.24.23-.33.21-.16.35-.21c.13-.05.28-.07.43-.07.14,0,.27.02.38.07.11.05.21.12.29.21s.14.2.18.33.06.27.06.42v.19h-1.41c.02.12.08.21.16.28.08.07.18.1.3.1.1,0,.18-.02.25-.07.07-.04.13-.1.18-.17l.43.31Zm-.51-.87c0-.1-.03-.19-.1-.26-.07-.07-.16-.11-.27-.11-.07,0-.13.01-.18.03-.05.02-.1.05-.13.08-.04.03-.06.07-.08.12-.02.04-.03.09-.03.14h.8Z"></path><path class="uuid-337a8e33-b933-4183-9af9-291f59d4ea8f" d="m25.54,47.12h.66l.5,1.34h0l.46-1.34h.61l-.78,1.97h-.64l-.81-1.97Z"></path><path class="uuid-337a8e33-b933-4183-9af9-291f59d4ea8f" d="m29.86,48.75c-.1.12-.22.22-.37.29s-.3.1-.46.1-.29-.02-.43-.07c-.13-.05-.25-.12-.35-.21-.1-.09-.18-.2-.23-.33s-.08-.27-.08-.43.03-.3.08-.42.13-.24.23-.33.21-.16.35-.21c.13-.05.28-.07.43-.07.14,0,.27.02.38.07.11.05.21.12.29.21s.14.2.18.33.06.27.06.42v.19h-1.41c.02.12.08.21.16.28.08.07.18.1.3.1.1,0,.18-.02.25-.07.07-.04.13-.1.18-.17l.43.31Zm-.51-.87c0-.1-.03-.19-.1-.26-.07-.07-.16-.11-.27-.11-.07,0-.13.01-.18.03-.05.02-.1.05-.13.08-.04.03-.06.07-.08.12-.02.04-.03.09-.03.14h.8Z"></path><path class="uuid-337a8e33-b933-4183-9af9-291f59d4ea8f" d="m30.32,47.12h.61v.32h0c.06-.12.14-.21.23-.27.09-.06.2-.09.34-.09.03,0,.07,0,.1,0s.07,0,.1.02v.56s-.09-.02-.13-.03c-.04,0-.09,0-.13,0-.12,0-.21.02-.28.05-.07.03-.12.08-.16.14-.04.06-.06.13-.07.21s-.02.17-.02.27v.82h-.61v-1.97Z"></path><path class="uuid-337a8e33-b933-4183-9af9-291f59d4ea8f" d="m33.1,49.41c-.04.1-.08.2-.12.28-.04.08-.09.15-.14.2-.06.06-.13.1-.22.13s-.21.04-.35.04c-.16,0-.31-.02-.45-.07l.08-.5c.09.04.19.06.28.06.07,0,.12,0,.17-.02.04-.01.08-.04.11-.06s.05-.06.07-.1c.02-.04.04-.09.06-.14l.04-.11-.86-1.99h.66l.51,1.3h0l.43-1.3h.62l-.89,2.29Z"></path><path class="uuid-337a8e33-b933-4183-9af9-291f59d4ea8f" d="m35.56,47.61h-.53v.66c0,.05,0,.1,0,.15,0,.04.02.08.04.12.02.03.05.06.09.07s.09.03.16.03c.03,0,.08,0,.13,0,.05,0,.09-.02.12-.05v.51c-.07.02-.14.04-.21.05-.07,0-.14.01-.21.01-.1,0-.2-.01-.28-.03-.09-.02-.16-.06-.23-.1-.06-.05-.12-.11-.15-.18-.04-.08-.05-.17-.05-.28v-.94h-.39v-.49h.39v-.58h.61v.58h.53v.49Z"></path><path class="uuid-337a8e33-b933-4183-9af9-291f59d4ea8f" d="m36.48,46.03v1.36h0s.04-.08.07-.11c.03-.04.07-.07.12-.1.05-.03.1-.05.16-.07.06-.02.13-.03.2-.03.15,0,.28.02.37.07.09.05.17.11.22.2.05.08.09.18.11.3.02.11.03.24.03.37v1.08h-.61v-.96c0-.06,0-.12,0-.18,0-.06-.02-.12-.04-.17-.02-.05-.05-.09-.09-.12-.04-.03-.1-.05-.18-.05s-.14.01-.19.04c-.05.03-.09.07-.11.11-.03.05-.04.1-.05.16,0,.06-.01.12-.01.19v.98h-.61v-3.06h.61Z"></path><path class="uuid-337a8e33-b933-4183-9af9-291f59d4ea8f" d="m38.15,46.5c0-.1.03-.18.1-.25.07-.07.15-.1.25-.1s.18.03.25.1c.07.07.1.15.1.25s-.03.18-.1.25c-.07.07-.15.1-.25.1s-.18-.04-.25-.1c-.07-.07-.1-.15-.1-.25Zm.05.62h.61v1.97h-.61v-1.97Z"></path><path class="uuid-337a8e33-b933-4183-9af9-291f59d4ea8f" d="m39.25,47.12h.58v.27h0s.05-.08.08-.11c.04-.04.08-.07.13-.1.05-.03.1-.05.17-.07.06-.02.13-.03.2-.03.15,0,.28.02.37.07.09.05.17.11.22.2.05.08.09.18.11.3.02.11.03.24.03.37v1.08h-.61v-.96c0-.06,0-.12,0-.18,0-.06-.02-.12-.04-.17-.02-.05-.05-.09-.09-.12-.04-.03-.1-.05-.18-.05s-.14.01-.19.04c-.05.03-.09.07-.11.11-.03.05-.04.1-.05.16,0,.06-.01.12-.01.19v.98h-.61v-1.97Z"></path><path class="uuid-337a8e33-b933-4183-9af9-291f59d4ea8f" d="m43.64,48.92c0,.37-.09.66-.28.85-.19.19-.47.29-.86.29-.18,0-.35-.02-.52-.06-.17-.04-.33-.12-.47-.23l.34-.5c.09.08.19.14.3.19.1.05.22.07.34.07.19,0,.32-.04.41-.14s.13-.21.13-.35v-.19h0c-.07.09-.16.16-.26.2s-.2.06-.29.06c-.15,0-.28-.03-.4-.08s-.22-.12-.31-.21c-.08-.09-.15-.2-.2-.32s-.07-.26-.07-.41c0-.13.02-.26.06-.38.04-.12.1-.23.18-.33s.17-.17.28-.23c.11-.06.24-.09.38-.09.09,0,.17,0,.24.03.07.02.14.04.19.07.06.03.11.06.15.1.04.04.07.07.1.11h0v-.26h.56v1.8Zm-1.53-.83c0,.06.01.13.04.18.02.06.06.11.1.15.04.04.1.08.15.11.06.03.12.04.19.04s.13-.01.19-.04.11-.06.16-.11c.04-.04.08-.1.1-.15.02-.06.04-.12.04-.18s-.01-.13-.04-.18c-.02-.06-.06-.11-.1-.15s-.1-.08-.16-.11c-.06-.03-.12-.04-.19-.04s-.13.01-.19.04c-.06.03-.11.06-.15.11-.04.04-.08.1-.1.15-.02.06-.04.12-.04.18Z"></path><path class="uuid-337a8e33-b933-4183-9af9-291f59d4ea8f" d="m46.43,47.7c-.09-.11-.21-.17-.35-.17-.05,0-.1.01-.15.04s-.07.07-.07.12c0,.05.03.08.08.11.05.02.11.04.19.06.08.02.16.04.25.06.09.02.17.05.25.09s.14.1.19.18.08.17.08.3-.03.23-.08.31c-.06.08-.13.15-.21.2-.09.05-.18.08-.29.11-.11.02-.21.03-.32.03-.14,0-.28-.02-.42-.06-.14-.04-.26-.11-.36-.21l.37-.41c.06.07.12.12.19.16.07.04.15.05.24.05.07,0,.13,0,.19-.03.06-.02.09-.06.09-.11s-.03-.09-.08-.12c-.05-.03-.11-.05-.19-.07s-.16-.04-.25-.06-.17-.05-.25-.09c-.08-.04-.14-.1-.19-.17s-.08-.17-.08-.3c0-.12.02-.22.07-.3.05-.08.11-.15.19-.21.08-.05.17-.09.26-.12.1-.03.2-.04.3-.04.13,0,.26.02.39.06.13.04.24.11.34.2l-.37.37Z"></path><path class="uuid-337a8e33-b933-4183-9af9-291f59d4ea8f" d="m48.54,47.61h-.54v.66c0,.05,0,.1,0,.15,0,.04.02.08.04.12.02.03.05.06.09.07s.09.03.16.03c.03,0,.07,0,.13,0s.09-.02.12-.05v.51c-.07.02-.14.04-.21.05-.07,0-.14.01-.21.01-.1,0-.2-.01-.28-.03-.09-.02-.16-.06-.23-.1-.07-.05-.12-.11-.15-.18-.04-.08-.05-.17-.05-.28v-.94h-.39v-.49h.39v-.58h.61v.58h.54v.49Z"></path><path class="uuid-337a8e33-b933-4183-9af9-291f59d4ea8f" d="m50.08,48.84h0c-.07.11-.16.18-.27.23-.11.05-.23.07-.35.07-.09,0-.18-.01-.27-.04-.08-.03-.16-.06-.22-.12-.06-.05-.12-.11-.15-.19-.04-.08-.06-.16-.06-.26,0-.11.02-.21.06-.29.04-.08.1-.14.17-.19.07-.05.15-.09.25-.12s.19-.05.29-.06c.1-.01.2-.02.3-.02.1,0,.19,0,.27,0,0-.11-.04-.19-.12-.26-.08-.06-.17-.09-.27-.09s-.19.02-.27.06c-.08.04-.16.1-.22.17l-.32-.33c.11-.11.25-.18.4-.24.15-.05.31-.08.47-.08.18,0,.33.02.44.07.12.04.21.11.28.2.07.09.12.19.14.32.03.12.04.27.04.44v1h-.56v-.25Zm-.15-.62s-.1,0-.17,0c-.07,0-.13.02-.2.03s-.12.05-.16.08c-.04.04-.07.09-.07.16,0,.07.03.13.09.16.06.04.13.05.19.05.06,0,.12,0,.17-.02.06-.02.1-.04.15-.07.04-.03.08-.07.1-.11.03-.05.04-.1.04-.16v-.13h-.15Z"></path><path class="uuid-337a8e33-b933-4183-9af9-291f59d4ea8f" d="m51.02,47.12h.61v.32h0c.07-.12.14-.21.23-.27.09-.06.2-.09.34-.09.04,0,.07,0,.11,0s.07,0,.1.02v.56s-.09-.02-.13-.03c-.04,0-.09,0-.13,0-.12,0-.21.02-.28.05s-.12.08-.16.14c-.04.06-.06.13-.07.21s-.02.17-.02.27v.82h-.61v-1.97Z"></path><path class="uuid-337a8e33-b933-4183-9af9-291f59d4ea8f" d="m54.01,47.61h-.54v.66c0,.05,0,.1,0,.15,0,.04.02.08.04.12.02.03.05.06.09.07s.09.03.16.03c.03,0,.07,0,.13,0s.09-.02.12-.05v.51c-.07.02-.14.04-.21.05-.07,0-.14.01-.21.01-.1,0-.2-.01-.28-.03-.09-.02-.16-.06-.23-.1-.07-.05-.12-.11-.15-.18-.04-.08-.05-.17-.05-.28v-.94h-.39v-.49h.39v-.58h.61v.58h.54v.49Z"></path><path class="uuid-337a8e33-b933-4183-9af9-291f59d4ea8f" d="m55.43,47.7c-.09-.11-.21-.17-.35-.17-.05,0-.1.01-.15.04s-.07.07-.07.12c0,.05.03.08.08.11.05.02.11.04.19.06.08.02.16.04.25.06.09.02.17.05.25.09s.14.1.19.18.08.17.08.3-.03.23-.08.31c-.06.08-.13.15-.21.2-.09.05-.18.08-.29.11-.11.02-.21.03-.32.03-.14,0-.28-.02-.42-.06-.14-.04-.26-.11-.36-.21l.37-.41c.06.07.12.12.19.16.07.04.15.05.24.05.07,0,.13,0,.19-.03.06-.02.09-.06.09-.11s-.03-.09-.08-.12c-.05-.03-.11-.05-.19-.07s-.16-.04-.25-.06-.17-.05-.25-.09c-.08-.04-.14-.1-.19-.17s-.08-.17-.08-.3c0-.12.02-.22.07-.3.05-.08.11-.15.19-.21.08-.05.17-.09.26-.12.1-.03.2-.04.3-.04.13,0,.26.02.39.06.13.04.24.11.34.2l-.37.37Z"></path><path class="uuid-337a8e33-b933-4183-9af9-291f59d4ea8f" d="m21.39,51.98h.65l.4,1.24h0l.34-1.24h.66l.36,1.24h0l.37-1.24h.62l-.7,1.97h-.6l-.41-1.31h0l-.36,1.31h-.61l-.72-1.97Z"></path><path class="uuid-337a8e33-b933-4183-9af9-291f59d4ea8f" d="m24.96,51.36c0-.1.03-.18.1-.25.07-.07.15-.1.25-.1s.18.03.25.1c.07.07.1.15.1.25s-.03.18-.1.25c-.07.07-.15.1-.25.1s-.18-.04-.25-.1c-.07-.07-.1-.15-.1-.25Zm.05.62h.61v1.97h-.61v-1.97Z"></path><path class="uuid-337a8e33-b933-4183-9af9-291f59d4ea8f" d="m27.39,52.46h-.53v.66c0,.05,0,.1,0,.15,0,.04.02.08.04.12.02.03.05.06.09.07s.09.03.16.03c.03,0,.08,0,.13,0,.05,0,.09-.02.12-.05v.51c-.07.02-.14.04-.21.05-.07,0-.14.01-.21.01-.1,0-.2-.01-.28-.03-.09-.02-.16-.06-.23-.1-.06-.05-.12-.11-.15-.18-.04-.08-.05-.17-.05-.28v-.94h-.39v-.49h.39v-.58h.61v.58h.53v.49Z"></path><path class="uuid-337a8e33-b933-4183-9af9-291f59d4ea8f" d="m28.3,50.89v1.36h0s.04-.08.07-.11c.03-.04.07-.07.12-.1.05-.03.1-.05.16-.07.06-.02.13-.03.2-.03.15,0,.28.02.37.07.09.05.17.11.22.2.05.08.09.18.11.3.02.11.03.24.03.37v1.08h-.61v-.96c0-.06,0-.12,0-.18,0-.06-.02-.12-.04-.17-.02-.05-.05-.09-.09-.12-.04-.03-.1-.05-.18-.05s-.14.01-.19.04c-.05.03-.09.07-.11.11-.03.05-.04.1-.05.16,0,.06-.01.12-.01.19v.98h-.61v-3.06h.61Z"></path><path class="uuid-337a8e33-b933-4183-9af9-291f59d4ea8f" d="m32.56,52.46h-.53v.66c0,.05,0,.1,0,.15,0,.04.02.08.04.12.02.03.05.06.09.07s.09.03.16.03c.03,0,.08,0,.13,0,.05,0,.09-.02.12-.05v.51c-.07.02-.14.04-.21.05-.07,0-.14.01-.21.01-.1,0-.2-.01-.28-.03-.09-.02-.16-.06-.23-.1-.06-.05-.12-.11-.15-.18-.04-.08-.05-.17-.05-.28v-.94h-.39v-.49h.39v-.58h.61v.58h.53v.49Z"></path><path class="uuid-337a8e33-b933-4183-9af9-291f59d4ea8f" d="m33.48,50.89v1.36h0s.04-.08.07-.11c.03-.04.07-.07.12-.1.05-.03.1-.05.16-.07.06-.02.13-.03.2-.03.15,0,.28.02.37.07.09.05.17.11.22.2.05.08.09.18.11.3.02.11.03.24.03.37v1.08h-.61v-.96c0-.06,0-.12,0-.18,0-.06-.02-.12-.04-.17-.02-.05-.05-.09-.09-.12-.04-.03-.1-.05-.18-.05s-.14.01-.19.04c-.05.03-.09.07-.11.11-.03.05-.04.1-.05.16,0,.06-.01.12-.01.19v.98h-.61v-3.06h.61Z"></path><path class="uuid-337a8e33-b933-4183-9af9-291f59d4ea8f" d="m37.06,53.61c-.1.12-.22.22-.37.29s-.3.1-.46.1-.29-.02-.43-.07c-.13-.05-.25-.12-.35-.21-.1-.09-.18-.2-.23-.33s-.08-.27-.08-.43.03-.3.08-.42.13-.24.23-.33.21-.16.35-.21c.13-.05.28-.07.43-.07.14,0,.27.02.38.07.11.05.21.12.29.21s.14.2.18.33.06.27.06.42v.19h-1.41c.02.12.08.21.16.28.08.07.18.1.3.1.1,0,.18-.02.25-.07.07-.04.13-.1.18-.17l.43.31Zm-.51-.87c0-.1-.03-.19-.1-.26-.07-.07-.16-.11-.27-.11-.07,0-.13.01-.18.03-.05.02-.1.05-.13.08-.04.03-.06.07-.08.12-.02.04-.03.09-.03.14h.8Z"></path><path class="uuid-337a8e33-b933-4183-9af9-291f59d4ea8f" d="m40.05,52.61s-.07-.08-.13-.11c-.05-.03-.11-.04-.17-.04-.15,0-.27.05-.36.14-.09.09-.13.21-.13.36s.04.27.13.36c.08.09.2.14.36.14.07,0,.13-.01.17-.04.05-.03.09-.07.13-.11l.4.42c-.09.1-.21.17-.33.21-.13.04-.25.06-.37.06-.15,0-.29-.02-.43-.07-.13-.05-.25-.12-.35-.21-.1-.09-.18-.2-.23-.33s-.08-.27-.08-.43.03-.3.08-.42.13-.24.23-.33.21-.16.35-.21c.13-.05.28-.07.43-.07.12,0,.24.02.37.06.13.04.24.11.33.2l-.4.42Z"></path><path class="uuid-337a8e33-b933-4183-9af9-291f59d4ea8f" d="m40.6,52.96c0-.16.03-.3.09-.42.06-.13.13-.24.23-.33s.21-.16.35-.21c.13-.05.28-.07.43-.07s.29.02.43.07c.13.05.25.12.35.21.1.09.18.2.23.33.06.13.08.27.08.42s-.03.3-.08.43c-.06.13-.13.24-.23.33-.1.09-.21.16-.35.21s-.28.07-.43.07-.29-.02-.43-.07-.25-.12-.35-.21c-.1-.09-.18-.2-.23-.33-.06-.13-.09-.27-.09-.43Zm.61,0c0,.15.04.27.13.36.08.09.2.14.36.14s.27-.05.36-.14c.08-.09.13-.21.13-.36s-.04-.27-.13-.36c-.09-.09-.21-.14-.36-.14s-.27.05-.36.14c-.09.09-.13.21-.13.36Z"></path><path class="uuid-337a8e33-b933-4183-9af9-291f59d4ea8f" d="m43.14,51.98h.58v.27h0s.05-.08.08-.11.08-.07.13-.1c.05-.03.1-.05.17-.07.06-.02.13-.03.2-.03.15,0,.28.02.37.07.09.05.17.11.22.2.05.08.09.18.11.3.02.11.03.24.03.37v1.08h-.61v-.96c0-.06,0-.12,0-.18,0-.06-.02-.12-.04-.17-.02-.05-.05-.09-.09-.12s-.1-.05-.18-.05-.14.01-.19.04-.09.07-.11.11c-.03.05-.04.1-.05.16,0,.06-.01.12-.01.19v.98h-.61v-1.97Z"></path><path class="uuid-337a8e33-b933-4183-9af9-291f59d4ea8f" d="m46.58,52.56c-.09-.11-.21-.17-.35-.17-.05,0-.1.01-.15.04s-.07.07-.07.12c0,.05.03.08.08.11.05.02.11.04.19.06.08.02.16.04.25.06.09.02.17.05.25.09s.14.1.19.18.08.17.08.3-.03.23-.08.31c-.06.08-.13.15-.21.2-.09.05-.18.08-.29.11-.11.02-.21.03-.32.03-.14,0-.28-.02-.42-.06-.14-.04-.26-.11-.36-.21l.37-.41c.06.07.12.12.19.16.07.04.15.05.24.05.07,0,.13,0,.19-.03.06-.02.09-.06.09-.11s-.03-.09-.08-.12c-.05-.03-.11-.05-.19-.07s-.16-.04-.25-.06-.17-.05-.25-.09c-.08-.04-.14-.1-.19-.17s-.08-.17-.08-.3c0-.12.02-.22.07-.3.05-.08.11-.15.19-.21.08-.05.17-.09.26-.12.1-.03.2-.04.3-.04.13,0,.26.02.39.06.13.04.24.11.34.2l-.37.37Z"></path><path class="uuid-337a8e33-b933-4183-9af9-291f59d4ea8f" d="m49.23,53.95h-.58v-.27h0s-.05.08-.08.11c-.03.04-.08.07-.12.1-.05.03-.1.05-.17.07-.06.02-.13.03-.2.03-.15,0-.28-.02-.37-.07-.1-.05-.17-.11-.22-.2-.05-.08-.09-.18-.11-.3s-.03-.24-.03-.37v-1.09h.61v.96c0,.06,0,.12,0,.18s.02.12.04.17c.02.05.05.09.09.13.04.03.1.05.18.05s.14-.01.19-.04c.05-.03.09-.07.11-.11.03-.05.04-.1.05-.16s.01-.12.01-.19v-.98h.61v1.97Z"></path><path class="uuid-337a8e33-b933-4183-9af9-291f59d4ea8f" d="m49.66,51.98h.58v.27h0s.05-.08.08-.11.08-.07.13-.1c.05-.03.1-.05.17-.07.06-.02.13-.03.2-.03.14,0,.26.03.37.08.11.06.19.15.24.27.07-.13.16-.22.26-.27.1-.05.22-.08.37-.08.13,0,.24.02.33.07.09.04.16.11.21.18s.09.17.11.27c.02.1.03.21.03.33v1.16h-.61v-1.15c0-.09-.02-.17-.06-.24s-.11-.1-.21-.1c-.07,0-.13.01-.18.03-.05.02-.08.05-.11.1-.03.04-.05.09-.06.14-.01.05-.02.11-.02.17v1.04h-.61v-1.04s0-.08,0-.13c0-.05-.01-.1-.03-.15-.02-.05-.04-.08-.08-.12s-.09-.05-.16-.05c-.08,0-.14.01-.19.04s-.09.07-.11.11c-.03.05-.04.1-.05.16,0,.06-.01.12-.01.19v.98h-.61v-1.97Z"></path><path class="uuid-337a8e33-b933-4183-9af9-291f59d4ea8f" d="m55.05,53.61c-.1.12-.22.22-.37.29s-.3.1-.46.1-.29-.02-.43-.07-.25-.12-.35-.21c-.1-.09-.18-.2-.23-.33s-.08-.27-.08-.43.03-.3.08-.42.13-.24.23-.33.21-.16.35-.21c.13-.05.28-.07.43-.07.14,0,.27.02.38.07.12.05.21.12.29.21.08.09.14.2.18.33.04.13.06.27.06.42v.19h-1.41c.02.12.08.21.16.28.08.07.18.1.3.1.1,0,.18-.02.25-.07.07-.04.13-.1.18-.17l.43.31Zm-.51-.87c0-.1-.03-.19-.1-.26-.07-.07-.16-.11-.27-.11-.07,0-.13.01-.18.03-.05.02-.1.05-.13.08-.04.03-.06.07-.08.12s-.03.09-.03.14h.8Z"></path><path class="uuid-337a8e33-b933-4183-9af9-291f59d4ea8f" d="m55.51,51.98h.61v.32h0c.07-.12.14-.21.23-.27.09-.06.2-.09.34-.09.04,0,.07,0,.11,0s.07,0,.1.02v.56s-.09-.02-.13-.03c-.04,0-.09,0-.13,0-.12,0-.21.02-.28.05s-.12.08-.16.14c-.04.06-.06.13-.07.21s-.02.17-.02.27v.82h-.61v-1.97Z"></path><path class="uuid-337a8e33-b933-4183-9af9-291f59d4ea8f" d="m56.8,53.6c0-.05,0-.1.03-.15.02-.05.05-.09.08-.12s.07-.06.12-.08.09-.03.15-.03.1,0,.15.03.09.04.12.08c.03.03.06.07.08.12.02.05.03.09.03.15s0,.1-.03.15c-.02.05-.04.08-.08.12-.03.03-.07.06-.12.08s-.09.03-.15.03-.1,0-.15-.03-.08-.04-.12-.08c-.03-.03-.06-.07-.08-.12-.02-.05-.03-.09-.03-.15Z"></path></g><g><g><g><g><rect class="uuid-3dd91579-9482-4c88-948f-4e60d1a4cbee" x=".97" y="31.85" width="14.32" height="8.13"></rect><rect class="uuid-e69eb06e-1381-4b2c-8607-a0a3ab73e61a" x="7.42" y="33.27" width="6.72" height="4.84"></rect><rect class="uuid-61672743-18d2-48d4-b0da-0115e81cded4" x="7.11" y="38.11" width="7.33" height=".46"></rect><rect class="uuid-61672743-18d2-48d4-b0da-0115e81cded4" x="2.35" y="32.96" width="4.22" height="7.68"></rect><rect class="uuid-e69eb06e-1381-4b2c-8607-a0a3ab73e61a" x="2.7" y="33.31" width="3.52" height="6.67"></rect><g class="uuid-fab355fe-9d67-46a2-b048-50b063f6ffe5"><path class="uuid-0dc60453-982c-43c8-b34e-65d320b6c448" d="m10.52,31.4H.97v1.47c0,.27.21.49.48.49s.48-.22.48-.49c0,.27.21.49.48.49s.48-.22.48-.49c0,.27.21.49.48.49s.48-.22.48-.49c0,.27.21.49.48.49s.48-.22.48-.49c0,.27.21.49.48.49s.48-.22.48-.49c0,.27.21.49.48.49s.48-.22.48-.49c0,.27.21.49.48.49s.48-.22.48-.49c0,.27.21.49.48.49s.48-.22.48-.49c0,.27.21.49.48.49s.48-.22.48-.49c0,.27.21.49.48.49.25,0,.45-.2.48-.45.02.25.23.45.48.45.26,0,.48-.22.48-.49,0,.27.21.49.48.49s.48-.22.48-.49c0,.27.21.49.48.49s.48-.22.48-.49c0,.27.21.49.48.49s.48-.22.48-.49c0,.27.21.49.48.49s.48-.22.48-.49v-1.47h-4.77Z"></path></g><rect class="uuid-27009d96-3e95-410c-ba9a-8bcc45b01068" x=".29" y="39.98" width="15.68" height="1.12"></rect><g><path class="uuid-6c7020b2-7388-4881-8208-21f5352d9254" d="m5.42,31.54H0v.28c0,.31.24.56.54.56s.54-.25.54-.56c0,.31.24.56.54.56s.54-.25.54-.56c0,.31.24.56.54.56s.54-.25.54-.56c0,.31.24.56.54.56s.54-.25.54-.56c0,.31.24.56.54.56s.54-.25.54-.56c0,.31.24.56.54.56s.54-.25.54-.56c0,.31.24.56.54.56s.54-.25.54-.56c0,.31.24.56.54.56s.54-.25.54-.56c0,.31.24.56.54.56s.54-.25.54-.56c0,.31.24.56.54.56s.54-.25.54-.56v-.28h-5.42Z"></path><path class="uuid-6c7020b2-7388-4881-8208-21f5352d9254" d="m10.85,31.54v.28c0,.31.24.56.54.56s.54-.25.54-.56c0,.31.24.56.54.56s.54-.25.54-.56c0,.31.24.56.54.56s.54-.25.54-.56c0,.31.24.56.54.56s.54-.25.54-.56c0,.31.24.56.54.56s.54-.25.54-.56v-.28h-5.42Z"></path></g><polygon class="uuid-c2af3e78-cb56-41e7-9524-7d9eb86eb13f" points="15.3 28.94 .97 28.94 0 31.54 16.27 31.54 15.3 28.94"></polygon><rect class="uuid-0a4e0c79-3bdf-438e-90e6-ad3898a93aca" x="3.15" y="33.91" width="2.61" height="5.5"></rect><rect class="uuid-e69eb06e-1381-4b2c-8607-a0a3ab73e61a" x="3.15" y="36.49" width="2.61" height=".31"></rect><rect class="uuid-61672743-18d2-48d4-b0da-0115e81cded4" x="2.12" y="36.55" width="1.6" height=".22" transform="translate(39.58 33.74) rotate(90)"></rect><polygon class="uuid-e69eb06e-1381-4b2c-8607-a0a3ab73e61a" points="1.08 31.54 1.94 28.94 2.9 28.94 2.17 31.54 1.08 31.54"></polygon><polygon class="uuid-e69eb06e-1381-4b2c-8607-a0a3ab73e61a" points="3.25 31.54 3.87 28.94 4.84 28.94 4.34 31.54 3.25 31.54"></polygon><polygon class="uuid-e69eb06e-1381-4b2c-8607-a0a3ab73e61a" points="5.42 31.54 5.8 28.94 6.77 28.94 6.51 31.54 5.42 31.54"></polygon><polygon class="uuid-e69eb06e-1381-4b2c-8607-a0a3ab73e61a" points="7.59 31.54 7.73 28.94 8.53 28.94 8.67 31.54 7.59 31.54"></polygon><polygon class="uuid-e69eb06e-1381-4b2c-8607-a0a3ab73e61a" points="15.18 31.54 14.33 28.94 13.36 28.94 14.09 31.54 15.18 31.54"></polygon><polygon class="uuid-e69eb06e-1381-4b2c-8607-a0a3ab73e61a" points="13.01 31.54 12.39 28.94 11.43 28.94 11.92 31.54 13.01 31.54"></polygon><polygon class="uuid-e69eb06e-1381-4b2c-8607-a0a3ab73e61a" points="10.84 31.54 10.46 28.94 9.5 28.94 9.76 31.54 10.84 31.54"></polygon><rect class="uuid-27009d96-3e95-410c-ba9a-8bcc45b01068" x="7.9" y="33.91" width="5.79" height="3.67"></rect></g><g><rect class="uuid-337a8e33-b933-4183-9af9-291f59d4ea8f" x="8.92" y="74.34" width="18.17" height=".87" rx=".38" ry=".38" transform="translate(36.02 149.55) rotate(180)"></rect><rect class="uuid-ac04c38d-5190-432f-9fd7-76b0a1c3deb0" x="16.48" y="65.38" width="10.29" height="8.96" transform="translate(43.24 139.72) rotate(-180)"></rect><path class="uuid-17e8cbf5-901a-4c3a-9866-cb2c2ccc8090" d="m9.27,74.34h6.71s0-6.45,0-6.45c0,0,0,0,0,0h-4.73c-.38,0-.72.22-.87.57l-1.12,2.53v3.36Z"></path><path class="uuid-c7c0b402-ab12-4509-bcf4-787bee27d538" d="m14.8,71.04v-1.92s-2.87,0-2.87,0c-.33,0-.63.2-.77.5l-.63,1.42h4.26Z"></path><circle class="uuid-5c9ff416-d2fc-4424-97af-c3a7df7a0b8f" cx="22.84" cy="75.47" r="1.87"></circle><circle class="uuid-1e380499-5049-4c96-b52d-c553e57a1af5" cx="22.84" cy="75.47" r=".99"></circle><circle class="uuid-5c9ff416-d2fc-4424-97af-c3a7df7a0b8f" cx="12.78" cy="75.47" r="1.87"></circle><rect class="uuid-5c9ff416-d2fc-4424-97af-c3a7df7a0b8f" x="27.86" y="68.84" width="3.02" height=".55"></rect><rect class="uuid-5c9ff416-d2fc-4424-97af-c3a7df7a0b8f" x="27.86" y="70.14" width="3.02" height=".55"></rect><rect class="uuid-5c9ff416-d2fc-4424-97af-c3a7df7a0b8f" x="27.86" y="71.43" width="3.98" height=".55"></rect><circle class="uuid-1e380499-5049-4c96-b52d-c553e57a1af5" cx="12.78" cy="75.47" r=".99"></circle></g><path class="uuid-337a8e33-b933-4183-9af9-291f59d4ea8f" d="m13.63,25.18c-.08,0-.17-.03-.24-.08-.16-.13-.19-.37-.06-.53,4.12-5.13,9.61-8.87,15.86-10.81.2-.06.41.05.47.25.06.2-.05.41-.25.47-6.11,1.9-11.46,5.55-15.49,10.56-.07.09-.18.14-.29.14Z"></path><path class="uuid-337a8e33-b933-4183-9af9-291f59d4ea8f" d="m12.31,64.13c-.12,0-.24-.06-.31-.16-3.87-5.53-5.91-12.04-5.91-18.81,0-.21.17-.38.38-.38s.38.17.38.38c0,6.62,2,12.97,5.77,18.38.12.17.08.41-.09.52-.07.05-.14.07-.22.07Z"></path><path class="uuid-337a8e33-b933-4183-9af9-291f59d4ea8f" d="m38.97,78.04c-1.38,0-2.76-.09-4.12-.26-.21-.03-.35-.21-.33-.42s.22-.35.42-.33c1.33.17,2.68.25,4.03.25,5.75,0,11.39-1.54,16.31-4.44.18-.11.41-.05.52.13.11.18.05.41-.13.52-5.04,2.97-10.81,4.55-16.69,4.55Z"></path><path class="uuid-337a8e33-b933-4183-9af9-291f59d4ea8f" d="m69.69,56.18s-.08,0-.12-.02c-.2-.07-.3-.28-.23-.48,1.17-3.38,1.76-6.92,1.76-10.52,0-.6-.02-1.2-.05-1.8-.01-.21.15-.39.36-.4.21-.01.39.15.4.36.03.61.05,1.23.05,1.84,0,3.69-.61,7.32-1.81,10.77-.05.16-.2.25-.36.25Z"></path><path class="uuid-337a8e33-b933-4183-9af9-291f59d4ea8f" d="m65.88,27.3c-.12,0-.24-.06-.31-.17-4.41-6.5-11.02-11.15-18.59-13.1-.2-.05-.32-.26-.27-.46.05-.2.26-.32.46-.27,7.75,1.99,14.51,6.75,19.02,13.4.12.17.07.41-.1.52-.06.04-.14.07-.21.07Z"></path><path class="uuid-337a8e33-b933-4183-9af9-291f59d4ea8f" d="m65.78,24.35c.03.42.03.84.01,1.25-.02.37-.02.76-.12,1.12-.02.07.02-.02-.02.04.01-.02.04-.04.05-.05h.02s-.04,0-.06,0c-.03,0-.03,0,0,0-.03,0-.05,0-.08-.01-.2-.03-.4-.06-.6-.09-.42-.06-.84-.12-1.26-.18-.2-.03-.4.05-.46.26-.05.18.06.43.26.46.47.07.94.14,1.42.2s1.07.27,1.37-.22c.12-.18.14-.4.16-.61.03-.25.06-.5.07-.74.03-.48.03-.96,0-1.44-.01-.2-.16-.38-.38-.38-.19,0-.39.17-.38.38h0Z"></path><path class="uuid-337a8e33-b933-4183-9af9-291f59d4ea8f" d="m68.56,53.85c.08.18.16.37.25.55.04.08.08.16.11.25.02.04.04.08.05.12,0,.01.05.12.03.06.15.35.25.71.32,1.08.05.27.45.38.63.17.1-.12.22-.24.34-.34.06-.05.12-.1.18-.15-.06.05.05-.04.06-.05.03-.03.07-.05.1-.07.35-.26.71-.51,1.04-.78.16-.13.13-.4,0-.53-.16-.16-.37-.13-.53,0-.56.46-1.26.83-1.73,1.4l.63.17c-.15-.8-.52-1.5-.84-2.24-.08-.19-.36-.23-.52-.14-.19.11-.22.33-.14.52h0Z"></path><path class="uuid-337a8e33-b933-4183-9af9-291f59d4ea8f" d="m36.52,75.75l-1.99,1.35c-.21.15-.24.4-.08.59.55.66,1.15,1.28,1.8,1.86.15.14.38.15.53,0,.14-.14.15-.4,0-.53-.64-.58-1.24-1.2-1.8-1.86l-.08.59,1.99-1.35c.17-.11.24-.33.14-.52-.1-.17-.35-.25-.52-.14h0Z"></path><path class="uuid-337a8e33-b933-4183-9af9-291f59d4ea8f" d="m8.3,47.06c-.54-.71-.98-1.48-1.51-2.18-.08-.11-.18-.19-.33-.19-.13,0-.26.07-.33.19-.42.77-.9,1.5-1.32,2.27-.1.18-.04.41.14.52s.42.04.52-.14c.42-.77.9-1.5,1.32-2.27h-.65c.54.71.98,1.48,1.51,2.18.12.16.32.25.52.14.16-.09.26-.35.14-.52h0Z"></path><path class="uuid-337a8e33-b933-4183-9af9-291f59d4ea8f" d="m26.39,13.38c.94.67,2.12.9,3.23,1.1l-.17-.63c-.37.34-.74.68-1.08,1.05s-.68.79-.99,1.21c-.12.17-.03.42.14.52.19.11.4.03.52-.14.57-.79,1.25-1.45,1.95-2.11.19-.18.11-.58-.17-.63-1.05-.18-2.17-.39-3.05-1.02-.17-.12-.42-.03-.52.14-.11.19-.03.4.14.52h0Z"></path><g><circle class="uuid-b6146273-52b3-4157-bd65-37b30d79eadc" cx="59.1" cy="68.71" r=".87"></circle><circle class="uuid-b6146273-52b3-4157-bd65-37b30d79eadc" cx="61.1" cy="67.9" r=".87"></circle><circle class="uuid-b6146273-52b3-4157-bd65-37b30d79eadc" cx="63.09" cy="67.08" r=".87"></circle><circle class="uuid-b6146273-52b3-4157-bd65-37b30d79eadc" cx="60.71" cy="72.55" r=".87"></circle><circle class="uuid-b6146273-52b3-4157-bd65-37b30d79eadc" cx="62.74" cy="71.75" r=".87"></circle><circle class="uuid-b6146273-52b3-4157-bd65-37b30d79eadc" cx="64.13" cy="75.35" r=".87"></circle><circle class="uuid-b6146273-52b3-4157-bd65-37b30d79eadc" cx="64.75" cy="70.93" r=".87"></circle><circle class="uuid-b6146273-52b3-4157-bd65-37b30d79eadc" cx="58.83" cy="71.07" r=".87"></circle><circle class="uuid-b6146273-52b3-4157-bd65-37b30d79eadc" cx="60.86" cy="70.24" r=".87"></circle><circle class="uuid-b6146273-52b3-4157-bd65-37b30d79eadc" cx="62.89" cy="69.41" r=".87"></circle><circle class="uuid-b6146273-52b3-4157-bd65-37b30d79eadc" cx="64.92" cy="68.58" r=".87"></circle><circle class="uuid-b6146273-52b3-4157-bd65-37b30d79eadc" cx="62.35" cy="74.04" r=".87"></circle><circle class="uuid-b6146273-52b3-4157-bd65-37b30d79eadc" cx="64.38" cy="73.21" r=".87"></circle><path class="uuid-db5e64a5-0f28-40cd-90f4-576fa5650569" d="m59.58,65.1c-.22.13-.42.31-.58.52s-.29.45-.36.69l1.92.55-.98-1.76Z"></path><path class="uuid-db5e64a5-0f28-40cd-90f4-576fa5650569" d="m60.25,65.17c.21-.05.43-.06.66-.03s.44.1.63.2l-.83,1.46-.46-1.63Z"></path><path class="uuid-2c2e6407-b1d4-456e-b9c3-7e49ae634a53" d="m61.03,73.03c-.39.16-.84-.03-1-.42-.08-.19-.07-.4,0-.58-.18.24-.24.56-.11.86.18.45.69.66,1.14.48s.66-.69.48-1.14c-.01-.02-.02-.05-.03-.07.08.36-.11.73-.46.87Z"></path><path class="uuid-2c2e6407-b1d4-456e-b9c3-7e49ae634a53" d="m62.66,74.52c-.39.16-.84-.03-1-.42-.08-.19-.07-.4,0-.58-.18.24-.24.56-.11.86.18.45.69.66,1.14.48s.66-.69.48-1.14c-.01-.02-.02-.05-.03-.07.08.36-.11.73-.46.87Z"></path><path class="uuid-2c2e6407-b1d4-456e-b9c3-7e49ae634a53" d="m64.69,73.68c-.39.16-.84-.03-1-.42-.08-.19-.07-.4,0-.58-.18.24-.24.56-.11.86.18.45.69.66,1.14.48s.66-.69.48-1.14c-.01-.02-.02-.05-.03-.07.08.36-.11.73-.46.87Z"></path><path class="uuid-2c2e6407-b1d4-456e-b9c3-7e49ae634a53" d="m63.05,72.22c-.39.16-.84-.03-1-.42-.08-.19-.07-.4,0-.58-.18.24-.24.56-.11.86.18.45.69.66,1.14.48s.66-.69.48-1.14c-.01-.02-.02-.05-.03-.07.08.36-.11.73-.46.87Z"></path><path class="uuid-2c2e6407-b1d4-456e-b9c3-7e49ae634a53" d="m64.45,75.83c-.39.16-.84-.03-1-.42-.08-.19-.07-.4,0-.58-.18.24-.24.56-.11.86.18.45.69.66,1.14.48s.66-.69.48-1.14c-.01-.02-.02-.05-.03-.07.08.36-.11.73-.46.87Z"></path><path class="uuid-2c2e6407-b1d4-456e-b9c3-7e49ae634a53" d="m65.06,71.4c-.39.16-.84-.03-1-.42-.08-.19-.07-.4,0-.58-.18.24-.24.56-.11.86.18.45.69.66,1.14.48s.66-.69.48-1.14c-.01-.02-.02-.05-.03-.07.08.36-.11.73-.46.87Z"></path><path class="uuid-2c2e6407-b1d4-456e-b9c3-7e49ae634a53" d="m59.15,71.54c-.39.16-.84-.03-1-.42-.08-.19-.07-.4,0-.58-.18.24-.24.56-.11.86.18.45.69.66,1.14.48s.66-.69.48-1.14c-.01-.02-.02-.05-.03-.07.08.36-.11.73-.46.87Z"></path><path class="uuid-2c2e6407-b1d4-456e-b9c3-7e49ae634a53" d="m61.17,70.71c-.39.16-.84-.03-1-.42-.08-.19-.07-.4,0-.58-.18.24-.24.56-.11.86.18.45.69.66,1.14.48s.66-.69.48-1.14c-.01-.02-.02-.05-.03-.07.08.36-.11.73-.46.87Z"></path><path class="uuid-2c2e6407-b1d4-456e-b9c3-7e49ae634a53" d="m59.41,69.19c-.39.16-.84-.03-1-.42-.08-.19-.07-.4,0-.58-.18.24-.24.56-.11.86.18.45.69.66,1.14.48s.66-.69.48-1.14c-.01-.02-.02-.05-.03-.07.08.36-.11.73-.46.87Z"></path><path class="uuid-2c2e6407-b1d4-456e-b9c3-7e49ae634a53" d="m61.41,68.37c-.39.16-.84-.03-1-.42-.08-.19-.07-.4,0-.58-.18.24-.24.56-.11.86.18.45.69.66,1.14.48s.66-.69.48-1.14c-.01-.02-.02-.05-.03-.07.08.36-.11.73-.46.87Z"></path><path class="uuid-2c2e6407-b1d4-456e-b9c3-7e49ae634a53" d="m63.4,67.55c-.39.16-.84-.03-1-.42-.08-.19-.07-.4,0-.58-.18.24-.24.56-.11.86.18.45.69.66,1.14.48s.66-.69.48-1.14c-.01-.02-.02-.05-.03-.07.08.36-.11.73-.46.87Z"></path><path class="uuid-2c2e6407-b1d4-456e-b9c3-7e49ae634a53" d="m63.2,69.88c-.39.16-.84-.03-1-.42-.08-.19-.07-.4,0-.58-.18.24-.24.56-.11.86.18.45.69.66,1.14.48s.66-.69.48-1.14c-.01-.02-.02-.05-.03-.07.08.36-.11.73-.46.87Z"></path><path class="uuid-2c2e6407-b1d4-456e-b9c3-7e49ae634a53" d="m65.23,69.05c-.39.16-.84-.03-1-.42-.08-.19-.07-.4,0-.58-.18.24-.24.56-.11.86.18.45.69.66,1.14.48s.66-.69.48-1.14c-.01-.02-.02-.05-.03-.07.08.36-.11.73-.46.87Z"></path></g><g><circle class="uuid-90c5256f-a623-4450-b9bf-c52994744137" cx="64.92" cy="61.52" r="3.69"></circle><path class="uuid-27ad830b-d137-41e0-b2dc-d79190c9aae6" d="m66.96,59.19c-.51-.45-1.17-.74-1.89-.79v2.68l1.89-1.89Z"></path><path class="uuid-27ad830b-d137-41e0-b2dc-d79190c9aae6" d="m68,61.34c-.04-.72-.33-1.37-.77-1.88l-1.88,1.88h2.65Z"></path><g><path class="uuid-27ad830b-d137-41e0-b2dc-d79190c9aae6" d="m65.35,61.72l1.87,1.87c.45-.51.73-1.16.78-1.87h-2.65Z"></path><path class="uuid-27ad830b-d137-41e0-b2dc-d79190c9aae6" d="m65.07,61.98v2.66c.72-.04,1.37-.33,1.88-.78l-1.88-1.88Z"></path></g><path class="uuid-27ad830b-d137-41e0-b2dc-d79190c9aae6" d="m62.8,59.19c.51-.45,1.17-.74,1.89-.79v2.68s-1.89-1.89-1.89-1.89Z"></path><path class="uuid-27ad830b-d137-41e0-b2dc-d79190c9aae6" d="m61.76,61.34c.04-.72.33-1.37.77-1.88l1.88,1.88h-2.65Z"></path><g><path class="uuid-27ad830b-d137-41e0-b2dc-d79190c9aae6" d="m64.41,61.72l-1.87,1.87c-.45-.51-.73-1.16-.78-1.87h2.65Z"></path><path class="uuid-27ad830b-d137-41e0-b2dc-d79190c9aae6" d="m64.69,61.98v2.66c-.72-.04-1.37-.33-1.88-.78l1.88-1.88Z"></path></g></g><g><path class="uuid-599ff69a-758f-42c0-bbeb-13007167e177" d="m60.38,59.66h-.06c-2.34.56-2.29,2.78-2.29,2.8v.06s.35-.01.35-.01v-.06c0-.08-.04-1.96,2.02-2.43h.06s-.08-.36-.08-.36Z"></path><path class="uuid-241837c1-9fcc-438c-9453-030499b4ec52" d="m58.92,62.58h0s0,0,0,0c0,0,0,0,0,0h0c-.09-.11-.22-.18-.36-.2-.13-.02-.27,0-.38.05-.09-.09-.21-.16-.34-.18-.14-.03-.28,0-.4.06h0s0,0,0,0c0,0,0,0,0,0h0c-.31.14-.53.46-.59.82-.12.65.3,1.27.95,1.39s1.27-.3,1.39-.95c.07-.36-.01-.75-.25-.98Z"></path><path class="uuid-599ff69a-758f-42c0-bbeb-13007167e177" d="m59.03,58.52c-.16.11-.3.24-.41.41s-.19.34-.24.53l1.45.33-.8-1.26Z"></path></g></g><g id="uuid-4105994a-00b6-4e42-9bc3-b779a96914ed" data-name="boom"><g><circle class="uuid-b5e89532-fec1-469a-93bb-edcc04f049e2" cx="66.35" cy="33.52" r=".68"></circle><path class="uuid-d74b4785-1b07-4640-8fbd-6378e9522129" d="m66.4,34.12c-.37,0-.68-.31-.68-.68,0-.13.03-.24.1-.35-.1.11-.16.27-.16.43,0,.37.31.68.68.68.24,0,.47-.13.58-.32-.11.14-.31.24-.51.24Z"></path></g><g><circle class="uuid-b5e89532-fec1-469a-93bb-edcc04f049e2" cx="77.25" cy="31.31" r=".59"></circle><path class="uuid-d74b4785-1b07-4640-8fbd-6378e9522129" d="m77.31,31.84c-.34,0-.59-.27-.59-.59,0-.11.03-.23.08-.31-.08.1-.14.24-.14.39,0,.34.27.59.59.59.23,0,.42-.11.51-.29-.1.11-.27.21-.45.21Z"></path></g><g><circle class="uuid-b5e89532-fec1-469a-93bb-edcc04f049e2" cx="69.64" cy="28.2" r=".59"></circle><path class="uuid-d74b4785-1b07-4640-8fbd-6378e9522129" d="m69.69,28.73c-.34,0-.59-.27-.59-.59,0-.11.03-.23.08-.31-.08.1-.14.24-.14.39,0,.34.27.59.59.59.23,0,.42-.11.51-.29-.1.13-.27.21-.45.21Z"></path></g><g><circle class="uuid-b5e89532-fec1-469a-93bb-edcc04f049e2" cx="73.87" cy="30.82" r=".59"></circle><path class="uuid-d74b4785-1b07-4640-8fbd-6378e9522129" d="m73.92,31.35c-.34,0-.59-.27-.59-.59,0-.11.03-.23.08-.31-.08.1-.14.24-.14.39,0,.34.27.59.59.59.23,0,.42-.11.51-.29-.1.13-.26.21-.45.21Z"></path></g><g><circle class="uuid-f1b3d059-26bf-4971-bc41-e4cea222b078" cx="76.51" cy="31.9" r=".76"></circle><path class="uuid-d74b4785-1b07-4640-8fbd-6378e9522129" d="m76.58,32.56c-.42,0-.76-.34-.76-.76,0-.14.03-.27.11-.39-.11.13-.18.29-.18.48,0,.42.34.76.76.76.27,0,.51-.14.64-.37-.14.18-.35.27-.58.27Z"></path></g><g><circle class="uuid-b5e89532-fec1-469a-93bb-edcc04f049e2" cx="75.39" cy="35" r=".59"></circle><path class="uuid-d74b4785-1b07-4640-8fbd-6378e9522129" d="m75.43,35.53c-.34,0-.59-.27-.59-.59,0-.11.03-.23.08-.31-.08.1-.14.24-.14.39,0,.34.27.59.59.59.23,0,.42-.11.51-.29-.1.13-.26.21-.45.21Z"></path></g><path class="uuid-25e7eacc-ec99-4f50-a9e8-ae3501634848" d="m70.3,35.45l-4.66-3.8-.4-.1,4.76,5.37s-.08,2.7-1.45,4.68h4.95c-1.53-2.94-1.58-4.68-1.58-4.68l3.23-2.06.93-3.06-.26-.26-1.19,2.83-2.8.88-.1-3.1,3.44-3.06-.18-.29-3.28,2.49-.03-.85-1.77-4.02-.45-.35,1.21,4.57-.18,1.72-3.84-1.93h-.4l4.1,2.78-.06,2.22Z"></path><path class="uuid-3bc9563e-23c6-40a3-809b-c14a3239d116" d="m69.92,26.45l-.48-.34,1.24,4.57-.18,1.72-3.84-1.93h-.4l4.1,2.78-.05,2.2-4.66-3.8-.4-.1,4.76,5.37s-.1,2.17-1.45,4.68h2.49l.23-12.04-1.35-3.12Z"></path><g><g><path class="uuid-579094b4-e9ea-43f6-86e8-8f90321644ee" d="m65.22,32.14c.71-.11,1.05.55,1.05.55,0,0-.13.72-.84.84-.58.08-1.21-.53-1.21-.53,0,0,.35-.76,1-.85Z"></path><path class="uuid-49bf1937-6e1a-44e3-b8ba-85bb484a5a01" d="m65.43,32.77c.71-.11.84-.08.84-.08,0,0-.13.72-.84.84-.58.08-1.21-.53-1.21-.53,0,0,.56-.13,1.21-.23Z"></path></g><path class="uuid-6bbfdb65-91dc-40ac-b449-f0a2b03b3acb" d="m64.22,32.99l.02.02,2.01-.24s.02-.08.02-.08c-.02-.06-.1-.14-.1-.14l-1.91.39-.03.06Z"></path></g><g><g><path class="uuid-579094b4-e9ea-43f6-86e8-8f90321644ee" d="m66.88,31.77c-.05.43-.48.51-.48.51,0,0-.4-.19-.35-.63.05-.35.5-.63.5-.63,0,0,.39.35.34.74Z"></path><path class="uuid-49bf1937-6e1a-44e3-b8ba-85bb484a5a01" d="m66.48,31.79c-.05.43-.08.5-.08.5,0,0-.4-.19-.35-.63.05-.35.5-.63.5-.63,0,0-.02.37-.06.76Z"></path></g><path class="uuid-6bbfdb65-91dc-40ac-b449-f0a2b03b3acb" d="m66.54,31.05h0l-.19,1.22s.05.03.05.03c.03,0,.1-.03.1-.03l.08-1.17-.03-.05Z"></path></g><g><g><path class="uuid-579094b4-e9ea-43f6-86e8-8f90321644ee" d="m68.66,34.34c-.48.16-.82-.26-.82-.26,0,0,0-.53.48-.71.4-.13.93.23.93.23,0,0-.16.58-.59.74Z"></path><path class="uuid-49bf1937-6e1a-44e3-b8ba-85bb484a5a01" d="m68.42,33.91c-.48.16-.58.16-.58.16,0,0,0-.53.48-.71.4-.13.93.23.93.23,0,0-.39.18-.84.32Z"></path></g><path class="uuid-6bbfdb65-91dc-40ac-b449-f0a2b03b3acb" d="m69.26,33.6h0l-1.42.42s0,.06,0,.06c.02.05.08.1.1.1l1.32-.53v-.05Z"></path></g><g><g><path class="uuid-579094b4-e9ea-43f6-86e8-8f90321644ee" d="m66.12,33.48c.82-.21,1.3.53,1.3.53,0,0-.06.87-.88,1.08-.68.18-1.5-.47-1.5-.47,0,0,.34-.96,1.08-1.14Z"></path><path class="uuid-49bf1937-6e1a-44e3-b8ba-85bb484a5a01" d="m66.44,34.18c.82-.21.96-.19.96-.19,0,0-.06.87-.88,1.08-.68.18-1.5-.47-1.5-.47,0,0,.68-.23,1.42-.42Z"></path></g><path class="uuid-6bbfdb65-91dc-40ac-b449-f0a2b03b3acb" d="m65.05,34.6l.02.02,2.33-.53s.02-.1.02-.1c-.03-.06-.13-.16-.13-.16l-2.2.69-.03.08Z"></path></g><g><g><path class="uuid-579094b4-e9ea-43f6-86e8-8f90321644ee" d="m66.89,31.21c.48-.32.95.05.95.05,0,0,.14.58-.34.88-.39.26-1.06.02-1.06.02,0,0,.02-.66.45-.95Z"></path><path class="uuid-5f0c680c-833f-4fd7-9e9b-5012d20f457c" d="m67.26,31.61c.48-.32.58-.34.58-.34,0,0,.14.58-.34.88-.39.26-1.06.02-1.06.02,0,0,.39-.27.82-.56Z"></path></g><path class="uuid-6bbfdb65-91dc-40ac-b449-f0a2b03b3acb" d="m66.46,32.17h0l1.4-.85s-.02-.06-.02-.06c-.03-.03-.11-.08-.13-.08l-1.27.93.02.06Z"></path></g><g><g><path class="uuid-579094b4-e9ea-43f6-86e8-8f90321644ee" d="m68.65,32.95c-.08-.56.45-.84.45-.84,0,0,.58.11.66.68.06.47-.43.96-.43.96,0,0-.59-.29-.68-.8Z"></path><path class="uuid-49bf1937-6e1a-44e3-b8ba-85bb484a5a01" d="m69.16,32.78c-.08-.56-.06-.68-.06-.68,0,0,.58.11.66.68.06.47-.43.96-.43.96,0,0-.08-.45-.16-.96Z"></path></g><path class="uuid-6bbfdb65-91dc-40ac-b449-f0a2b03b3acb" d="m69.34,33.77h0l-.16-1.64s-.06-.02-.06-.02c-.05.02-.13.08-.11.08l.31,1.54.03.03Z"></path></g><g><path class="uuid-49bf1937-6e1a-44e3-b8ba-85bb484a5a01" d="m77.25,31.29c-.48.76-1.37.53-1.37.53,0,0-.58-.71-.11-1.46.39-.61,1.48-.71,1.48-.71,0,0,.43.95,0,1.64Z"></path><path class="uuid-579094b4-e9ea-43f6-86e8-8f90321644ee" d="m76.41,30.95c-.48.76-.55.87-.55.87,0,0-.58-.71-.11-1.46.39-.61,1.48-.71,1.48-.71,0,0-.39.61-.82,1.3Z"></path><path class="uuid-6bbfdb65-91dc-40ac-b449-f0a2b03b3acb" d="m76.06,31.84l1.22-2.17-.02-.05h-.03l-1.43,2.07c.03.1.08.11.08.11.05.03.18.03.18.03Z"></path></g><g><path class="uuid-49bf1937-6e1a-44e3-b8ba-85bb484a5a01" d="m75.5,29.42c-.48.23-.87-.18-.87-.18,0,0-.06-.55.43-.77.4-.18.98.13.98.13,0,0-.1.63-.55.82Z"></path><path class="uuid-579094b4-e9ea-43f6-86e8-8f90321644ee" d="m75.19,28.97c-.48.23-.56.26-.56.26,0,0-.06-.55.43-.77.4-.18.98.13.98.13,0,0-.4.19-.85.39Z"></path><path class="uuid-6bbfdb65-91dc-40ac-b449-f0a2b03b3acb" d="m74.73,29.31l1.33-.69v-.03l-.02-.02-1.4.58c-.02.06,0,.08,0,.08.02.03.08.08.08.08Z"></path></g><g><path class="uuid-49bf1937-6e1a-44e3-b8ba-85bb484a5a01" d="m75.76,35.26c-.69-.56-.39-1.43-.39-1.43,0,0,.77-.5,1.48.05.56.45.55,1.56.55,1.56,0,0-1,.32-1.64-.18Z"></path><path class="uuid-579094b4-e9ea-43f6-86e8-8f90321644ee" d="m76.19,34.46c-.69-.56-.8-.63-.8-.63,0,0,.77-.5,1.48.05.56.45.55,1.56.55,1.56,0,0-.59-.47-1.22-.98Z"></path><path class="uuid-6bbfdb65-91dc-40ac-b449-f0a2b03b3acb" d="m75.34,34.01l2.03,1.45.05-.02v-.03l-1.9-1.64c-.1.03-.11.06-.11.06-.05.06-.06.18-.06.18Z"></path></g><g><path class="uuid-49bf1937-6e1a-44e3-b8ba-85bb484a5a01" d="m74.26,31.18c-.64-.29-.56-1.01-.56-1.01,0,0,.5-.53,1.13-.24.51.24.71,1.08.71,1.08,0,0-.69.43-1.27.18Z"></path><path class="uuid-579094b4-e9ea-43f6-86e8-8f90321644ee" d="m74.42,30.5c-.64-.29-.72-.32-.72-.32,0,0,.5-.53,1.13-.24.51.24.71,1.08.71,1.08,0,0-.53-.26-1.11-.51Z"></path><path class="uuid-6bbfdb65-91dc-40ac-b449-f0a2b03b3acb" d="m73.7,30.32l1.8.71.03-.02v-.02l-1.75-.88c-.06.05-.08.06-.08.06,0,.03,0,.14,0,.14Z"></path></g><g><path class="uuid-49bf1937-6e1a-44e3-b8ba-85bb484a5a01" d="m69.32,26.83c.69.08.84.79.84.79,0,0-.31.64-1.01.56-.56-.06-1-.82-1-.82,0,0,.55-.61,1.17-.53Z"></path><path class="uuid-579094b4-e9ea-43f6-86e8-8f90321644ee" d="m69.37,27.54c.69.08.79.1.79.1,0,0-.31.64-1.01.56-.56-.06-1-.82-1-.82,0,0,.59.08,1.22.16Z"></path><path class="uuid-6bbfdb65-91dc-40ac-b449-f0a2b03b3acb" d="m70.13,27.49l-1.95-.14-.02.03.02.02,1.95.32c.05-.06.05-.1.05-.1-.02-.03-.05-.13-.05-.13Z"></path></g><g><path class="uuid-49bf1937-6e1a-44e3-b8ba-85bb484a5a01" d="m75.24,32.35c.43.79-.19,1.46-.19,1.46,0,0-.9.16-1.33-.61-.35-.64.1-1.64.1-1.64,0,0,1.03.08,1.43.79Z"></path><path class="uuid-579094b4-e9ea-43f6-86e8-8f90321644ee" d="m74.53,32.93c.43.79.5.88.5.88,0,0-.9.16-1.33-.61-.35-.64.1-1.64.1-1.64,0,0,.35.66.74,1.37Z"></path><path class="uuid-6bbfdb65-91dc-40ac-b449-f0a2b03b3acb" d="m75.14,33.67l-1.3-2.11h-.05l-.02.03,1.13,2.25c.1.02.13-.02.13-.02.05-.05.11-.16.11-.16Z"></path></g><g><path class="uuid-49bf1937-6e1a-44e3-b8ba-85bb484a5a01" d="m74.76,28.72c.03.63-.56.85-.56.85,0,0-.61-.16-.66-.79-.03-.5.55-1.01.55-1.01,0,0,.64.39.68.95Z"></path><path class="uuid-579094b4-e9ea-43f6-86e8-8f90321644ee" d="m74.15,28.86c.03.63.05.71.05.71,0,0-.61-.16-.66-.79-.03-.5.55-1.01.55-1.01,0,0,.03.53.06,1.09Z"></path><path class="uuid-6bbfdb65-91dc-40ac-b449-f0a2b03b3acb" d="m74.32,29.52l-.19-1.72-.03-.02-.02.02.03,1.75c.06.03.08.03.08.03.05-.03.13-.06.13-.06Z"></path></g><g><path class="uuid-49bf1937-6e1a-44e3-b8ba-85bb484a5a01" d="m70.67,29.36c.59.68.13,1.46.13,1.46,0,0-.85.37-1.45-.31-.48-.55-.27-1.62-.27-1.62,0,0,1.05-.14,1.59.47Z"></path><path class="uuid-579094b4-e9ea-43f6-86e8-8f90321644ee" d="m70.13,30.07c.59.68.69.76.69.76,0,0-.85.37-1.45-.31-.48-.55-.27-1.62-.27-1.62,0,0,.48.56,1.03,1.17Z"></path><path class="uuid-6bbfdb65-91dc-40ac-b449-f0a2b03b3acb" d="m70.88,30.65l-1.75-1.77h-.05v.03l1.59,1.95c.1-.02.13-.05.13-.05.03-.03.08-.16.08-.16Z"></path></g><g><path class="uuid-49bf1937-6e1a-44e3-b8ba-85bb484a5a01" d="m65.99,30.76c.14.68-.47,1.06-.47,1.06,0,0-.72-.08-.87-.76-.13-.56.43-1.22.43-1.22,0,0,.77.29.9.92Z"></path><path class="uuid-579094b4-e9ea-43f6-86e8-8f90321644ee" d="m65.35,31.03c.14.68.18.79.18.79,0,0-.72-.08-.87-.76-.13-.56.43-1.22.43-1.22,0,0,.13.58.26,1.19Z"></path><path class="uuid-6bbfdb65-91dc-40ac-b449-f0a2b03b3acb" d="m65.66,31.72l-.53-1.88-.03-.02-.02.02.35,1.95c.06.03.1.02.1.02.05-.02.13-.08.13-.08Z"></path></g><g><path class="uuid-49bf1937-6e1a-44e3-b8ba-85bb484a5a01" d="m68.95,30.86c-.19.5-.76.48-.76.48,0,0-.43-.35-.24-.85.16-.42.8-.59.8-.59,0,0,.37.5.19.96Z"></path><path class="uuid-579094b4-e9ea-43f6-86e8-8f90321644ee" d="m68.42,30.74c-.19.5-.21.58-.21.58,0,0-.43-.35-.24-.85.16-.42.8-.59.8-.59,0,0-.18.42-.35.87Z"></path><path class="uuid-6bbfdb65-91dc-40ac-b449-f0a2b03b3acb" d="m68.31,31.32l.47-1.43-.02-.02h-.02l-.59,1.4s.06.05.06.05c.03.02.1,0,.1,0Z"></path></g><g><path class="uuid-49bf1937-6e1a-44e3-b8ba-85bb484a5a01" d="m74.45,35.78c-.23-.58.26-1,.26-1,0,0,.64-.03.87.55.19.47-.21,1.13-.21,1.13,0,0-.71-.14-.92-.68Z"></path><path class="uuid-579094b4-e9ea-43f6-86e8-8f90321644ee" d="m74.97,35.44c-.23-.58-.27-.66-.27-.66,0,0,.64-.03.87.55.19.47-.21,1.13-.21,1.13,0,0-.18-.48-.39-1.01Z"></path><path class="uuid-6bbfdb65-91dc-40ac-b449-f0a2b03b3acb" d="m74.61,34.88l.72,1.58h.03l.02-.02-.59-1.66c-.06-.02-.1,0-.1,0-.02.03-.08.1-.08.1Z"></path></g><g><path class="uuid-49bf1937-6e1a-44e3-b8ba-85bb484a5a01" d="m72.01,31.5c.11-.61.76-.69.76-.69,0,0,.56.32.45.93-.1.5-.79.84-.79.84,0,0-.51-.51-.42-1.08Z"></path><path class="uuid-579094b4-e9ea-43f6-86e8-8f90321644ee" d="m72.64,31.5c.11-.61.13-.71.13-.71,0,0,.56.32.45.93-.1.5-.79.84-.79.84,0,0,.11-.5.21-1.06Z"></path><path class="uuid-6bbfdb65-91dc-40ac-b449-f0a2b03b3acb" d="m72.64,30.84l-.24,1.72.02.02.02-.02.4-1.7s-.08-.05-.08-.05c-.02,0-.11.03-.11.03Z"></path></g><g><path class="uuid-49bf1937-6e1a-44e3-b8ba-85bb484a5a01" d="m68.13,33.2c.02.63-.58.84-.58.84,0,0-.61-.19-.63-.8-.02-.51.58-1,.58-1,0,0,.61.4.63.96Z"></path><path class="uuid-579094b4-e9ea-43f6-86e8-8f90321644ee" d="m67.52,33.33c.02.63.03.71.03.71,0,0-.61-.19-.63-.8-.02-.51.58-1,.58-1,0,0,0,.53.02,1.09Z"></path><path class="uuid-6bbfdb65-91dc-40ac-b449-f0a2b03b3acb" d="m67.67,33.99l-.14-1.72-.03-.02-.02.02-.02,1.75c.06.03.08.03.08.03.05-.02.13-.06.13-.06Z"></path></g><g><path class="uuid-49bf1937-6e1a-44e3-b8ba-85bb484a5a01" d="m69.23,31.72c-.43.27-.85-.05-.85-.05,0,0-.13-.51.31-.79.35-.23.95-.02.95-.02,0,0,0,.59-.4.85Z"></path><path class="uuid-579094b4-e9ea-43f6-86e8-8f90321644ee" d="m68.87,31.34c-.43.27-.5.32-.5.32,0,0-.13-.51.31-.79.35-.23.95-.02.95-.02,0,0-.35.24-.76.48Z"></path><path class="uuid-6bbfdb65-91dc-40ac-b449-f0a2b03b3acb" d="m68.47,31.72l1.16-.84v-.03h-.02l-1.25.74c0,.06.02.08.02.08.03.02.1.05.1.05Z"></path></g><g><path class="uuid-579094b4-e9ea-43f6-86e8-8f90321644ee" d="m71.91,27.69c-.64.8-1.46.32-1.46.32,0,0-.59-.77-.02-1.51.42-.51,1.56-.45,1.56-.45,0,0,.37,1.08-.08,1.64Z"></path><path class="uuid-49bf1937-6e1a-44e3-b8ba-85bb484a5a01" d="m71.41,27.32c-.64.8-.96.69-.96.69,0,0-.59-.77-.02-1.51.42-.51,1.56-.45,1.56-.45,0,0-.13.71-.58,1.27Z"></path><path class="uuid-6bbfdb65-91dc-40ac-b449-f0a2b03b3acb" d="m70.38,27.93c.24-.08.47-.21.66-.39.19-.18.35-.39.5-.64.26-.43.45-.82.45-.82l.02.06s-.13.31-.34.82c-.11.29-.29.55-.5.74-.18.16-.39.29-.61.39l-.14-.06-.03-.1Z"></path></g><g><path class="uuid-579094b4-e9ea-43f6-86e8-8f90321644ee" d="m76.66,33.48c-.77.18-1.05-.5-1.05-.5,0,0,0-.76.71-.92.5-.11,1.16.47,1.16.47,0,0-.29.82-.82.95Z"></path><path class="uuid-49bf1937-6e1a-44e3-b8ba-85bb484a5a01" d="m76.53,33.01c-.77.18-.92-.03-.92-.03,0,0,0-.76.71-.92.5-.11,1.16.47,1.16.47,0,0-.4.35-.95.48Z"></path><path class="uuid-6bbfdb65-91dc-40ac-b449-f0a2b03b3acb" d="m75.63,32.9c.18.06.39.1.58.08s.4-.06.61-.14c.35-.14.66-.29.66-.29l-.02.05s-.23.13-.59.34c-.21.13-.43.19-.64.21-.19.02-.37,0-.55-.05l-.06-.11.02-.08Z"></path></g><g><path class="uuid-579094b4-e9ea-43f6-86e8-8f90321644ee" d="m70.16,26c.51.59.03,1.16.03,1.16,0,0-.66.34-1.14-.21-.34-.39-.11-1.24-.11-1.24,0,0,.87-.13,1.22.29Z"></path><path class="uuid-49bf1937-6e1a-44e3-b8ba-85bb484a5a01" d="m69.81,26.32c.51.59.39.84.39.84,0,0-.66.34-1.14-.21-.34-.39-.11-1.24-.11-1.24,0,0,.51.19.87.61Z"></path><path class="uuid-6bbfdb65-91dc-40ac-b449-f0a2b03b3acb" d="m70.13,27.19c-.03-.19-.1-.37-.21-.55-.1-.16-.24-.32-.42-.47-.29-.26-.56-.45-.56-.45h.06s.21.13.58.37c.21.13.37.29.48.48.1.16.18.34.21.51l-.06.1h-.08Z"></path></g><g><path class="uuid-579094b4-e9ea-43f6-86e8-8f90321644ee" d="m73.41,29.47c.24.76-.42,1.08-.42,1.08,0,0-.74.05-.96-.64-.16-.48.39-1.19.39-1.19,0,0,.82.23,1,.76Z"></path><path class="uuid-49bf1937-6e1a-44e3-b8ba-85bb484a5a01" d="m72.96,29.63c.24.76.03.92.03.92,0,0-.74.05-.96-.64-.16-.48.39-1.19.39-1.19,0,0,.37.39.55.92Z"></path><path class="uuid-6bbfdb65-91dc-40ac-b449-f0a2b03b3acb" d="m72.89,30.55c.05-.19.06-.39.03-.58s-.1-.4-.19-.59c-.18-.35-.34-.64-.34-.64l.05.02s.14.21.39.56c.13.21.23.42.26.63.03.19.02.37-.02.55l-.11.06h-.06Z"></path></g><g><path class="uuid-579094b4-e9ea-43f6-86e8-8f90321644ee" d="m66.72,35.07c.23-1.01,1.17-.93,1.17-.93,0,0,.87.43.68,1.35-.14.64-1.21,1.09-1.21,1.09,0,0-.8-.8-.64-1.51Z"></path><path class="uuid-49bf1937-6e1a-44e3-b8ba-85bb484a5a01" d="m67.33,35.18c.23-1.01.56-1.06.56-1.06,0,0,.87.43.68,1.35-.14.64-1.21,1.09-1.21,1.09,0,0-.18-.68-.03-1.38Z"></path><path class="uuid-6bbfdb65-91dc-40ac-b449-f0a2b03b3acb" d="m67.99,34.18c-.18.18-.32.39-.42.64-.1.24-.14.51-.18.8-.03.5-.03.93-.03.95l-.05-.05s-.03-.32-.06-.88c-.02-.32.02-.63.11-.88.1-.23.21-.43.37-.61h.16l.1.03Z"></path></g><g><path class="uuid-49bf1937-6e1a-44e3-b8ba-85bb484a5a01" d="m66.46,29.89c.56.24.5.87.5.87,0,0-.42.47-.98.23-.45-.19-.64-.93-.64-.93,0,0,.61-.39,1.13-.16Z"></path><path class="uuid-579094b4-e9ea-43f6-86e8-8f90321644ee" d="m66.32,30.49c.56.24.64.27.64.27,0,0-.42.47-.98.23-.45-.19-.64-.93-.64-.93,0,0,.47.21.98.43Z"></path><path class="uuid-6bbfdb65-91dc-40ac-b449-f0a2b03b3acb" d="m66.96,30.63l-1.59-.59-.03.02v.02l1.54.76c.06-.03.06-.06.06-.06.02-.03.02-.13.02-.13Z"></path></g><g><path class="uuid-49bf1937-6e1a-44e3-b8ba-85bb484a5a01" d="m68,29.58c.23.87-.55,1.37-.55,1.37,0,0-.92-.06-1.16-.92-.19-.71.48-1.58.48-1.58,0,0,1.03.34,1.22,1.13Z"></path><path class="uuid-579094b4-e9ea-43f6-86e8-8f90321644ee" d="m67.2,29.97c.23.87.27.98.27.98,0,0-.92-.06-1.16-.92-.19-.71.48-1.58.48-1.58,0,0,.19.72.4,1.51Z"></path><path class="uuid-6bbfdb65-91dc-40ac-b449-f0a2b03b3acb" d="m67.62,30.84l-.76-2.36-.05-.02-.02.03.55,2.46c.1.03.13.02.13.02.05-.05.14-.13.14-.13Z"></path></g></g><g id="uuid-55d7a811-e01d-43de-a32b-0eb8b0aa072b" data-name="groeiende sinaasappels"><g><circle class="uuid-b5e89532-fec1-469a-93bb-edcc04f049e2" cx="75.98" cy="33.59" r=".59"></circle><path class="uuid-d74b4785-1b07-4640-8fbd-6378e9522129" d="m76.04,34.12c-.34,0-.59-.27-.59-.59,0-.11.03-.23.08-.31-.08.1-.14.24-.14.39,0,.34.27.59.59.59.23,0,.42-.11.51-.29-.1.13-.27.21-.45.21Z"></path></g><g><circle class="uuid-b5e89532-fec1-469a-93bb-edcc04f049e2" cx="70.24" cy="27.56" r=".59"></circle><path class="uuid-d74b4785-1b07-4640-8fbd-6378e9522129" d="m70.29,28.09c-.34,0-.59-.27-.59-.59,0-.11.03-.23.08-.31-.08.1-.14.24-.14.39,0,.34.27.59.59.59.23,0,.42-.11.51-.29-.1.13-.26.21-.45.21Z"></path></g><g><circle class="uuid-b5e89532-fec1-469a-93bb-edcc04f049e2" cx="67.47" cy="34.09" r=".59"></circle><path class="uuid-d74b4785-1b07-4640-8fbd-6378e9522129" d="m67.52,34.62c-.34,0-.59-.27-.59-.59,0-.11.03-.23.08-.31-.08.1-.14.24-.14.39,0,.34.27.59.59.59.23,0,.42-.11.51-.29-.1.13-.26.21-.45.21Z"></path></g><g><circle class="uuid-b5e89532-fec1-469a-93bb-edcc04f049e2" cx="66.25" cy="32.62" r=".51"></circle><path class="uuid-d74b4785-1b07-4640-8fbd-6378e9522129" d="m66.3,33.07c-.29,0-.51-.23-.51-.51,0-.1.03-.19.08-.26-.08.1-.11.21-.11.32,0,.29.23.51.51.51.19,0,.35-.1.45-.26-.11.11-.26.19-.42.19Z"></path></g><g><circle class="uuid-b5e89532-fec1-469a-93bb-edcc04f049e2" cx="68.65" cy="32.05" r=".59"></circle><path class="uuid-d74b4785-1b07-4640-8fbd-6378e9522129" d="m68.7,32.58c-.34,0-.59-.27-.59-.59,0-.11.03-.23.08-.31-.08.1-.14.24-.14.39,0,.34.27.59.59.59.23,0,.42-.11.51-.29-.1.11-.26.21-.45.21Z"></path></g><g><circle class="uuid-f1b3d059-26bf-4971-bc41-e4cea222b078" cx="75.59" cy="32.64" r=".59"></circle><path class="uuid-d74b4785-1b07-4640-8fbd-6378e9522129" d="m75.45,33.15c-.31-.11-.47-.47-.35-.77.03-.11.11-.19.19-.26-.11.06-.21.18-.26.31-.11.31.05.66.35.77.21.08.43.03.59-.1-.16.1-.35.11-.53.05Z"></path></g><g><circle class="uuid-f1b3d059-26bf-4971-bc41-e4cea222b078" cx="74.84" cy="34.63" r=".45"></circle><path class="uuid-d74b4785-1b07-4640-8fbd-6378e9522129" d="m74.74,35.02c-.23-.08-.35-.34-.26-.58.03-.08.08-.14.14-.19-.08.05-.16.13-.19.23-.08.23.03.48.26.58.16.06.32.03.43-.06-.11.06-.26.08-.39.03Z"></path></g><g><circle class="uuid-f1b3d059-26bf-4971-bc41-e4cea222b078" cx="74.31" cy="29.63" r=".45"></circle><path class="uuid-d74b4785-1b07-4640-8fbd-6378e9522129" d="m74.2,30.02c-.23-.08-.35-.34-.26-.58.03-.08.08-.14.14-.19-.08.05-.16.13-.19.23-.08.23.03.48.26.58.16.06.32.03.43-.06-.11.06-.26.08-.39.03Z"></path></g><g><circle class="uuid-f1b3d059-26bf-4971-bc41-e4cea222b078" cx="73.15" cy="30.55" r=".59"></circle><path class="uuid-d74b4785-1b07-4640-8fbd-6378e9522129" d="m73.01,31.06c-.31-.11-.47-.47-.35-.77.03-.11.11-.19.19-.26-.11.06-.21.18-.26.31-.11.31.05.66.35.77.21.08.43.03.59-.1-.16.08-.35.11-.53.05Z"></path></g><g><circle class="uuid-f1b3d059-26bf-4971-bc41-e4cea222b078" cx="70.54" cy="30.95" r=".59"></circle><path class="uuid-d74b4785-1b07-4640-8fbd-6378e9522129" d="m70.42,31.47c-.31-.11-.47-.47-.35-.77.03-.11.11-.19.19-.26-.11.06-.21.18-.26.31-.11.31.05.66.35.77.21.08.43.03.59-.1-.18.1-.35.11-.53.05Z"></path></g><g><circle class="uuid-b5e89532-fec1-469a-93bb-edcc04f049e2" cx="68.04" cy="30.95" r=".51"></circle><path class="uuid-d74b4785-1b07-4640-8fbd-6378e9522129" d="m68.08,31.4c-.29,0-.51-.23-.51-.51,0-.1.03-.19.08-.26-.08.08-.11.21-.11.32,0,.29.23.51.51.51.19,0,.35-.1.43-.24-.1.11-.24.18-.4.18Z"></path></g><g><circle class="uuid-f1b3d059-26bf-4971-bc41-e4cea222b078" cx="67.86" cy="31.69" r=".59"></circle><path class="uuid-d74b4785-1b07-4640-8fbd-6378e9522129" d="m67.92,32.22c-.34,0-.59-.27-.59-.59,0-.11.03-.23.08-.31-.08.1-.14.24-.14.39,0,.34.27.59.59.59.23,0,.42-.11.51-.29-.1.13-.27.21-.45.21Z"></path></g></g></g><g><g><g><path class="uuid-5c9ff416-d2fc-4424-97af-c3a7df7a0b8f" d="m33.82,11.4h7.33c.28,0,.51.23.51.51v6.56h-8.34v-6.56c0-.28.23-.51.51-.51Z"></path><polygon class="uuid-1e380499-5049-4c96-b52d-c553e57a1af5" points="39.6 18.47 35.65 18.47 34.48 11.4 40.48 11.4 39.6 18.47"></polygon></g><g><polygon class="uuid-40c78611-70b3-41ff-a37b-86c835dea1e1" points="38.71 11.43 37.48 12.27 36.25 11.43 36.25 9.75 38.71 9.75 38.71 11.43"></polygon><path class="uuid-e23ca2a0-adca-4655-bbb1-c2a9f500d5c9" d="m40.59,6.72v-3.42h-4.27s-1.88-.09-1.88,1.43v1.68l6.15.31Z"></path><path class="uuid-40c78611-70b3-41ff-a37b-86c835dea1e1" d="m39.96,6.22v-1.1h-4.96v1.1c-.51,0-.92.41-.92.92s.41.92.92.92c0,0,.02,0,.02,0,.16,1.22,1.2,2.16,2.46,2.16s2.3-.94,2.46-2.16c0,0,.02,0,.02,0,.51,0,.92-.41.92-.92s-.41-.92-.92-.92Z"></path><path class="uuid-f86ffd75-f66f-4a3d-960f-c0a601fc0cf0" d="m40.05,7.68c0,1.4-1.14,2.54-2.54,2.54s-2.54-1.14-2.54-2.54v-2.5l2.57-.21,2.5.49v2.22Z"></path><path class="uuid-e23ca2a0-adca-4655-bbb1-c2a9f500d5c9" d="m34.84,5.2c.79.62,1.87.87,2.96.87.89,0,1.73-.25,2.43-.69v-.65h-5.12l-.27.47Z"></path></g></g><path class="uuid-27ad830b-d137-41e0-b2dc-d79190c9aae6" d="m50.41.81c-2.49-1.56-5.78-.81-7.34,1.68-.94,1.5-1.04,3.29-.43,4.82l-1.23,1.13,2.02.22c.36.45.8.85,1.32,1.17,2.49,1.56,5.78.81,7.34-1.68s.81-5.78-1.68-7.34Z"></path><g><path class="uuid-e633f669-636a-4451-aa0f-70d82e5dde84" d="m43.55,4.13h.37v1.69h-.37v-1.69Z"></path><path class="uuid-e633f669-636a-4451-aa0f-70d82e5dde84" d="m44.78,4.66h.38l.24.73h0l.2-.73h.39l.21.73h0l.22-.73h.36l-.41,1.16h-.35l-.24-.77h0l-.21.77h-.36l-.43-1.16Z"></path><path class="uuid-e633f669-636a-4451-aa0f-70d82e5dde84" d="m47.64,5.68h0c-.04.06-.09.11-.16.13-.07.03-.14.04-.21.04-.05,0-.11,0-.16-.02-.05-.02-.09-.04-.13-.07-.04-.03-.07-.07-.09-.11-.02-.04-.03-.1-.03-.16,0-.07.01-.12.04-.17s.06-.08.1-.11c.04-.03.09-.05.14-.07s.11-.03.17-.04c.06,0,.12-.01.17-.01.06,0,.11,0,.16,0,0-.06-.02-.11-.07-.15-.05-.04-.1-.06-.16-.06-.06,0-.11.01-.16.04s-.09.06-.13.1l-.19-.2c.07-.06.14-.11.23-.14.09-.03.18-.05.28-.05.11,0,.19.01.26.04.07.03.12.06.16.12s.07.11.08.19c.02.07.02.16.02.26v.59h-.33v-.15Zm-.09-.36s-.06,0-.1,0c-.04,0-.08,0-.12.02-.04.01-.07.03-.1.05-.03.02-.04.05-.04.09,0,.04.02.07.05.1.04.02.07.03.11.03.03,0,.07,0,.1-.01s.06-.02.09-.04c.03-.02.05-.04.06-.07.02-.03.02-.06.02-.1v-.08h-.09Z"></path><path class="uuid-e633f669-636a-4451-aa0f-70d82e5dde84" d="m48.19,4.66h.34v.16h0s.03-.04.05-.07c.02-.02.05-.04.07-.06.03-.02.06-.03.1-.04.04-.01.08-.02.12-.02.09,0,.16.01.22.04.06.03.1.07.13.12s.05.11.06.17c.01.07.02.14.02.22v.64h-.36v-.57s0-.07,0-.1,0-.07-.02-.1c-.01-.03-.03-.05-.05-.07-.02-.02-.06-.03-.11-.03s-.08,0-.11.03c-.03.02-.05.04-.07.07s-.03.06-.03.09,0,.07,0,.11v.58h-.36v-1.16Z"></path><path class="uuid-e633f669-636a-4451-aa0f-70d82e5dde84" d="m50.35,4.95h-.32v.39s0,.06,0,.09.01.05.02.07c.01.02.03.03.05.04.02.01.05.02.09.02.02,0,.04,0,.08,0,.03,0,.05-.01.07-.03v.3s-.08.02-.12.03c-.04,0-.09,0-.13,0-.06,0-.12,0-.17-.02-.05-.01-.1-.03-.13-.06-.04-.03-.07-.06-.09-.11-.02-.04-.03-.1-.03-.16v-.55h-.23v-.29h.23v-.34h.36v.34h.32v.29Z"></path><path class="uuid-e633f669-636a-4451-aa0f-70d82e5dde84" d="m50.54,5.62s0-.06.02-.09c.01-.03.03-.05.05-.07.02-.02.04-.04.07-.05.03-.01.06-.02.09-.02s.06,0,.09.02c.03.01.05.03.07.05.02.02.04.04.05.07.01.03.02.06.02.09s0,.06-.02.09c-.01.03-.03.05-.05.07s-.04.04-.07.05c-.03.01-.06.02-.09.02s-.06,0-.09-.02c-.03-.01-.05-.03-.07-.05s-.04-.04-.05-.07c-.01-.03-.02-.06-.02-.09Z"></path><path class="uuid-e633f669-636a-4451-aa0f-70d82e5dde84" d="m51.25,5.62s0-.06.02-.09c.01-.03.03-.05.05-.07.02-.02.04-.04.07-.05.03-.01.06-.02.09-.02s.06,0,.09.02c.03.01.05.03.07.05.02.02.04.04.05.07.01.03.02.06.02.09s0,.06-.02.09c-.01.03-.03.05-.05.07s-.04.04-.07.05c-.03.01-.06.02-.09.02s-.06,0-.09-.02c-.03-.01-.05-.03-.07-.05s-.04-.04-.05-.07c-.01-.03-.02-.06-.02-.09Z"></path><path class="uuid-e633f669-636a-4451-aa0f-70d82e5dde84" d="m51.95,5.62s0-.06.02-.09c.01-.03.03-.05.05-.07.02-.02.04-.04.07-.05.03-.01.06-.02.09-.02s.06,0,.09.02c.03.01.05.03.07.05.02.02.04.04.05.07.01.03.02.06.02.09s0,.06-.02.09c-.01.03-.03.05-.05.07s-.04.04-.07.05c-.03.01-.06.02-.09.02s-.06,0-.09-.02c-.03-.01-.05-.03-.07-.05s-.04-.04-.05-.07c-.01-.03-.02-.06-.02-.09Z"></path></g></g></g></svg>