<svg xmlns="http://www.w3.org/2000/svg" id="uuid-a1a07d18-15d7-41e9-a994-6dbe437d3a0e" data-name="Laag 1" viewBox="0 0 28.11 28.11"><defs><style>      .uuid-ae4e5726-fb78-4248-b997-a3e8b4ee5060 {        fill: #f2f2f2;      }      .uuid-ae4e5726-fb78-4248-b997-a3e8b4ee5060, .uuid-52b6236f-d656-45c0-922b-9cd6f0305891, .uuid-b6facabc-a5c7-4a43-86b3-3db2c03e0a95 {        stroke-width: 0px;      }      .uuid-52b6236f-d656-45c0-922b-9cd6f0305891 {        fill: #acca38;      }      .uuid-b6facabc-a5c7-4a43-86b3-3db2c03e0a95 {        fill: #6d2f71;      }    </style></defs><circle class="uuid-ae4e5726-fb78-4248-b997-a3e8b4ee5060" cx="14.05" cy="14.05" r="14.05"></circle><g><path class="uuid-52b6236f-d656-45c0-922b-9cd6f0305891" d="m18.95,17.19l-1.13-1.13,2.72-2.72c.96-.96.96-2.53,0-3.49-.96-.96-2.53-.96-3.49,0l-2.72,2.72c-.96.96-.96,2.53,0,3.49l-1.13,1.13c-1.59-1.59-1.59-4.17,0-5.75l2.72-2.72c1.59-1.59,4.17-1.59,5.75,0,1.59,1.59,1.59,4.17,0,5.75l-2.72,2.72Z"></path><path class="uuid-b6facabc-a5c7-4a43-86b3-3db2c03e0a95" d="m10.1,21.32c-1.04,0-2.08-.4-2.88-1.19h0c-1.59-1.59-1.59-4.17,0-5.75l2.72-2.72c.77-.77,1.79-1.19,2.88-1.19s2.11.42,2.88,1.19c.77.77,1.19,1.79,1.19,2.88s-.42,2.11-1.19,2.88l-2.72,2.72c-.79.79-1.83,1.19-2.88,1.19Zm-1.74-2.32c.96.96,2.53.96,3.49,0l2.72-2.72c.46-.46.72-1.08.72-1.74s-.26-1.28-.72-1.74-1.08-.72-1.74-.72-1.28.26-1.74.72l-2.72,2.72c-.96.96-.96,2.53,0,3.49h0Z"></path><path class="uuid-52b6236f-d656-45c0-922b-9cd6f0305891" d="m16.08,18.38c-1.09,0-2.11-.42-2.88-1.19l1.13-1.13c.46.46,1.08.72,1.74.72s1.28-.26,1.74-.72l1.13,1.13c-.77.77-1.79,1.19-2.88,1.19Z"></path></g></svg>