<svg xmlns="http://www.w3.org/2000/svg" id="uuid-fca0e7bc-257d-433b-9b53-c6c50cf35af5" data-name="Laag 1" viewBox="0 0 28.11 28.11"><defs><style>      .uuid-8282138b-dd95-484d-aec4-bb730d8a3b4b {        fill: #f2f2f2;      }      .uuid-8282138b-dd95-484d-aec4-bb730d8a3b4b, .uuid-8e9fc1db-a8f0-49b2-9e26-bb351514cd46, .uuid-1895ce54-a685-4bcf-8b72-ed0703fb0abd {        stroke-width: 0px;      }      .uuid-8e9fc1db-a8f0-49b2-9e26-bb351514cd46 {        fill: #f6a200;      }      .uuid-1895ce54-a685-4bcf-8b72-ed0703fb0abd {        fill: #ea580c;      }    </style></defs><circle class="uuid-8282138b-dd95-484d-aec4-bb730d8a3b4b" cx="14.05" cy="14.05" r="14.05"></circle><g><path class="uuid-1895ce54-a685-4bcf-8b72-ed0703fb0abd" d="m16.61,21.85s.3-.48.32-.52h0s0,0,0,0c.19-.38.31-.79.31-1.22,0-.93-.75-1.68-1.68-1.68-.66,0-1.23.38-1.51.94-.27-.55-.85-.94-1.51-.94-.93,0-1.68.75-1.68,1.68,0,.43.12.84.31,1.22h0s0,0,0,0c.02.04.04.08.07.13h0c.06.11.16.26.25.4h0s.07.1.11.14c.03.04.06.07.08.1h0c.3.37.99.97.99.97-4.78-.91-6.6-6.52-3.35-10.24,1.31-1.49,3.4-3.14,3.3-5.33-.03-.55-.07-1.02-.59-1.33.71.14,1.24.53,1.82.97,2.12,1.64,3.34,5.07,2.57,7.72.85-1.09,1.27-2.69.89-3.93h0c.19.16.46.32.63.49,1.82,1.78,2.84,4.23,2.36,6.84-.21,1.13-.98,2.49-1.77,3.31-.84.88-1.98,1.35-3.18,1.53,0,0,.89-.76,1.25-1.26Z"></path><path class="uuid-8e9fc1db-a8f0-49b2-9e26-bb351514cd46" d="m16.76,21.95h0c.09-.16.3-.5.32-.54l.07-.12h0c.18-.41.27-.8.27-1.19,0-1.03-.83-1.86-1.86-1.86-.61,0-1.17.29-1.51.78-.35-.49-.9-.78-1.51-.78-1.03,0-1.86.83-1.86,1.86,0,.41.1.82.29,1.23h0s.03.05.03.05v.02s.01,0,.01,0c.33.64,1,1.33,1.29,1.58.56.14.96.22,1.57.22,0,0-1.36-.69-2.07-2.18s0-.02,0-.02c-.15-.31-.23-.61-.23-.91,0-.55.45-.99.99-.99.93,0,1.35,1.1,1.35,1.11l.17.47.15-.48s.37-1.11,1.35-1.11c.55,0,.99.45.99.99,0,.29-.08.6-.23.9-.02.04-.15.25-.28.47-.56.82-1.72,1.74-1.72,1.74.59,0,.89-.06,1.43-.17.41-.35.75-.72,1.01-1.08Z"></path></g></svg>