<svg xmlns="http://www.w3.org/2000/svg" viewBox="0 0 120 120">
  <path d="M60 20c-24 2-40 22-40 44 0 22 18 38 40 38s40-16 40-38c0-22-16-42-40-44z" fill="#e0457a"/>
  <g fill="#4f8d36">
    <path d="M60 18l-4 10h8z"/>
    <path d="M38 30l-8 8 6 6z"/>
    <path d="M82 30l8 8-6 6z"/>
    <path d="M28 58l-10 2 4 8z"/>
    <path d="M92 58l10 2-4 8z"/>
    <path d="M60 100l-4 10h8z"/>
  </g>
  <circle cx="60" cy="64" r="22" fill="#fbf7ee"/>
  <g fill="#33224a">
    <circle cx="52" cy="56" r="2"/><circle cx="64" cy="54" r="2"/><circle cx="70" cy="64" r="2"/>
    <circle cx="58" cy="68" r="2"/><circle cx="48" cy="70" r="2"/><circle cx="66" cy="76" r="2"/><circle cx="54" cy="78" r="2"/>
  </g>
</svg>
