<svg xmlns="http://www.w3.org/2000/svg" viewBox="0 0 120 120">
  <path d="M68 16c-10 4-16 12-18 22" stroke="#4f8d36" stroke-width="4" fill="none" stroke-linecap="round"/>
  <path d="M68 16c10 6 16 16 17 26" stroke="#4f8d36" stroke-width="4" fill="none" stroke-linecap="round"/>
  <path d="M68 16c11-6 22-5 28 2-7 6-19 7-28-2z" fill="#7aa82d"/>
  <path
    d="M62 34c-24 2-42 22-42 44 0 20 16 34 34 34 26 0 46-24 46-50 0-16-16-30-38-28z"
    fill="#f6a200"
  />
  <ellipse cx="46" cy="58" rx="13" ry="17" fill="#ffc966" opacity="0.55"/>
</svg>
