<svg xmlns="http://www.w3.org/2000/svg" viewBox="0 0 120 120">
  <path d="M64 20c-4 8-3 16 2 22" stroke="#4f8d36" stroke-width="4" fill="none" stroke-linecap="round"/>
  <path d="M64 20c8-5 16-4 20 2-6 5-15 4-20-2z" fill="#7aa82d"/>
  <circle cx="58" cy="66" r="32" fill="#c0273a"/>
  <g fill="#a51e2f" opacity="0.6">
    <circle cx="44" cy="52" r="3"/><circle cx="56" cy="48" r="3"/><circle cx="68" cy="52" r="3"/>
    <circle cx="38" cy="64" r="3"/><circle cx="50" cy="62" r="3"/><circle cx="64" cy="62" r="3"/><circle cx="76" cy="64" r="3"/>
    <circle cx="44" cy="76" r="3"/><circle cx="58" cy="78" r="3"/><circle cx="72" cy="76" r="3"/>
    <circle cx="50" cy="90" r="3"/><circle cx="66" cy="90" r="3"/>
  </g>
</svg>
