<?xml version="1.0" encoding="UTF-8"?>
<svg id="a" data-name="Laag 1" xmlns="http://www.w3.org/2000/svg" viewBox="0 0 10.92 10.22">
  <defs>
    <style>
      .b {
        fill: #f4adb5;
        stroke-width: 0px;
      }
    </style>
  </defs>
  <path class="b" d="m8.29,4.95s-.06,0-.09,0C7.76,1.6,5.19.13,5.07.07c-.17-.1-.39-.09-.56,0-.17.1-.27.29-.27.49.04,2.69-1.26,3.98-1.78,4.39-1.37.09-2.46,1.23-2.46,2.63s1.18,2.63,2.63,2.63c.66,0,1.28-.22,1.89-.68.3-.23.66-.66.94-1.09.32.5.71.93,1.05,1.17.57.4,1.16.6,1.78.6,1.45,0,2.63-1.18,2.63-2.63s-1.18-2.63-2.63-2.63Zm-5.66,3.92c-.71,0-1.29-.58-1.29-1.29s.58-1.29,1.29-1.29c.62,0,1.17.37,1.77,1.29-.5.94-1.15,1.29-1.77,1.29Zm2.83-2.15c-.26-.5-.63-.86-.94-1.09-.24-.18-.48-.32-.72-.43.61-.69,1.31-1.84,1.5-3.57.68.63,1.6,1.79,1.8,3.57-.24.11-.48.25-.71.43-.3.23-.64.59-.94,1.09Zm2.83,2.15c-.62,0-1.27-.36-1.77-1.29.53-.96,1.15-1.29,1.77-1.29.71,0,1.29.58,1.29,1.29s-.58,1.29-1.29,1.29Z"/>
</svg>