<svg xmlns="http://www.w3.org/2000/svg" id="uuid-55bf02ad-cae4-4a6e-aef1-d135cedb3057" data-name="Laag 1" viewBox="0 0 35.13 35.13"><defs><style>      .uuid-5ce62810-df51-444f-b119-739ce1365b6a {        fill: #f2f2f2;      }      .uuid-5ce62810-df51-444f-b119-739ce1365b6a, .uuid-2f3a602b-e922-4bfa-9fdf-6b91e6015da8, .uuid-5743233a-efa5-42cc-b5c2-53490ef8aabb, .uuid-b0fd6c8f-3b7e-471c-a90b-8749c926dbc8 {        stroke-width: 0px;      }      .uuid-2f3a602b-e922-4bfa-9fdf-6b91e6015da8 {        fill: #da306c;      }      .uuid-5743233a-efa5-42cc-b5c2-53490ef8aabb {        fill: #6d2f71;      }      .uuid-b0fd6c8f-3b7e-471c-a90b-8749c926dbc8 {        fill: #f6a200;      }    </style></defs><circle class="uuid-5ce62810-df51-444f-b119-739ce1365b6a" cx="17.57" cy="17.57" r="17.57"></circle><g><path class="uuid-5743233a-efa5-42cc-b5c2-53490ef8aabb" d="m19.79,26.74c-.26.93-1.11,1.62-2.12,1.62s-1.87-.69-2.12-1.62h4.25Z"></path><path class="uuid-b0fd6c8f-3b7e-471c-a90b-8749c926dbc8" d="m23.35,16.38c0-3.14-2.55-5.69-5.69-5.69s-5.69,2.55-5.69,5.69c0,3.65,2.69,4.1,2.69,6.01v.71h6.01v-.71c0-1.8,2.69-2.45,2.69-6.01Z"></path><rect class="uuid-2f3a602b-e922-4bfa-9fdf-6b91e6015da8" x="17.19" y="7.5" width=".88" height="2.33"></rect><rect class="uuid-2f3a602b-e922-4bfa-9fdf-6b91e6015da8" x="19.95" y="9.08" width="2.33" height=".88" transform="translate(2.17 22.84) rotate(-59.37)"></rect><rect class="uuid-2f3a602b-e922-4bfa-9fdf-6b91e6015da8" x="22.88" y="11.47" width="2.33" height=".88" transform="translate(-2.7 14.05) rotate(-30.91)"></rect><rect class="uuid-2f3a602b-e922-4bfa-9fdf-6b91e6015da8" x="24.77" y="14.26" width=".88" height="2.33" transform="translate(9.69 40.57) rotate(-89.78)"></rect><rect class="uuid-2f3a602b-e922-4bfa-9fdf-6b91e6015da8" x="24.32" y="18.08" width=".88" height="2.33" transform="translate(-1.96 35.66) rotate(-69.41)"></rect><rect class="uuid-2f3a602b-e922-4bfa-9fdf-6b91e6015da8" x="13.58" y="8.35" width=".88" height="2.33" transform="translate(-2.89 8.47) rotate(-30.62)"></rect><rect class="uuid-2f3a602b-e922-4bfa-9fdf-6b91e6015da8" x="10.65" y="10.75" width=".88" height="2.33" transform="translate(-4.83 15.3) rotate(-59.08)"></rect><rect class="uuid-2f3a602b-e922-4bfa-9fdf-6b91e6015da8" x="8.76" y="14.98" width="2.33" height=".88" transform="translate(-.06 .04) rotate(-.22)"></rect><rect class="uuid-2f3a602b-e922-4bfa-9fdf-6b91e6015da8" x="9.21" y="18.8" width="2.33" height=".88" transform="translate(-6.1 4.88) rotate(-20.59)"></rect><rect class="uuid-5743233a-efa5-42cc-b5c2-53490ef8aabb" x="14.61" y="23.68" width="6.1" height="1.22"></rect><rect class="uuid-5743233a-efa5-42cc-b5c2-53490ef8aabb" x="15.19" y="25.33" width="4.94" height=".99"></rect></g></svg>