<svg xmlns="http://www.w3.org/2000/svg" id="uuid-e02d79b9-0b0b-4ca9-a671-2eb295bbe48f" data-name="Laag 1" viewBox="0 0 27.63 14.42"><defs><style>      .uuid-c2fdad7c-00ba-4f18-b643-d5c01895d4ec {        fill: #619b26;      }      .uuid-c2fdad7c-00ba-4f18-b643-d5c01895d4ec, .uuid-25b50279-f296-4f3c-b7b1-a5173c8a7016, .uuid-d0667524-d902-4f85-8414-dc389908cc35, .uuid-c81ade4c-5cee-4570-b176-947ce429eab2, .uuid-d72d5706-0c25-42c1-9e10-204f337db83d, .uuid-92367d5f-73a4-47bc-9b0b-7280eb5fb386 {        stroke-width: 0px;      }      .uuid-25b50279-f296-4f3c-b7b1-a5173c8a7016 {        fill: #F6A200;      }      .uuid-d0667524-d902-4f85-8414-dc389908cc35 {        fill: #8d72b1;      }      .uuid-c81ade4c-5cee-4570-b176-947ce429eab2 {        fill: #6d2f71;      }      .uuid-d72d5706-0c25-42c1-9e10-204f337db83d {        fill: #e9580b;      }      .uuid-92367d5f-73a4-47bc-9b0b-7280eb5fb386 {        fill: #f5aeb6;      }    </style></defs><rect class="uuid-c2fdad7c-00ba-4f18-b643-d5c01895d4ec" x="5.73" y="10.81" width="21.9" height="1.05" rx=".39" ry=".39"></rect><rect class="uuid-d72d5706-0c25-42c1-9e10-204f337db83d" x="6.13" width="12.4" height="10.81"></rect><path class="uuid-25b50279-f296-4f3c-b7b1-a5173c8a7016" d="m27.22,10.81h-8.09V3.03s0,0,0,0h5.7c.45,0,.86.27,1.05.68l1.35,3.05v4.04Z"></path><path class="uuid-92367d5f-73a4-47bc-9b0b-7280eb5fb386" d="m20.54,6.82v-2.31h3.45c.4,0,.76.24.93.6l.75,1.71h-5.13Z"></path><circle class="uuid-c81ade4c-5cee-4570-b176-947ce429eab2" cx="10.85" cy="12.16" r="2.25"></circle><circle class="uuid-d0667524-d902-4f85-8414-dc389908cc35" cx="10.85" cy="12.16" r="1.2"></circle><circle class="uuid-c81ade4c-5cee-4570-b176-947ce429eab2" cx="22.98" cy="12.16" r="2.25"></circle><rect class="uuid-c81ade4c-5cee-4570-b176-947ce429eab2" x="1.16" y="4.18" width="3.64" height=".66"></rect><rect class="uuid-c81ade4c-5cee-4570-b176-947ce429eab2" x="1.16" y="5.73" width="3.64" height=".66"></rect><rect class="uuid-c81ade4c-5cee-4570-b176-947ce429eab2" y="7.29" width="4.8" height=".66"></rect><circle class="uuid-d0667524-d902-4f85-8414-dc389908cc35" cx="22.98" cy="12.16" r="1.2"></circle></svg>