<svg xmlns="http://www.w3.org/2000/svg" id="uuid-ad9ad970-d2d7-4ad5-b9c5-64e80fb34702" data-name="Laag 1" viewBox="0 0 29.38 17.88"><defs><style>      .uuid-38eb93ab-4556-4c57-8cf2-7f7b2c3f5ccc {        opacity: .2;      }      .uuid-28533b5d-3e16-4815-be9f-3ae8323d84a7 {        fill: #53b9cf;      }      .uuid-28533b5d-3e16-4815-be9f-3ae8323d84a7, .uuid-add26fdc-f8df-4eae-b783-a91f0890f4ff, .uuid-7ab8a6c1-ac8f-4f76-9508-b49335ebc6e7, .uuid-2bb8af2b-6ba6-4a84-899b-db3b09d1ab4d, .uuid-39c5c4c5-3c7d-408e-bc2a-efd421ea67fa, .uuid-91aab75d-eed8-4dc3-882c-68ac11b74c8f, .uuid-8ba4f820-5ec9-4eb5-b2d2-8af324ebfd2b {        stroke-width: 0px;      }      .uuid-add26fdc-f8df-4eae-b783-a91f0890f4ff {        fill: #2f3571;      }      .uuid-7ab8a6c1-ac8f-4f76-9508-b49335ebc6e7 {        fill: #d51937;      }      .uuid-2bb8af2b-6ba6-4a84-899b-db3b09d1ab4d {        fill: #acdae6;      }      .uuid-39c5c4c5-3c7d-408e-bc2a-efd421ea67fa {        fill: #fff;      }      .uuid-91aab75d-eed8-4dc3-882c-68ac11b74c8f {        fill: #e63b4b;      }      .uuid-8ba4f820-5ec9-4eb5-b2d2-8af324ebfd2b {        fill: #005791;      }    </style></defs><g id="uuid-2d77d80e-516e-4bae-abfc-e2d02da39742" data-name="winkel"><g><rect class="uuid-28533b5d-3e16-4815-be9f-3ae8323d84a7" x="1.1" y="7.42" width="16.18" height="9.18"></rect><rect class="uuid-39c5c4c5-3c7d-408e-bc2a-efd421ea67fa" x="8.38" y="9.04" width="7.6" height="5.46"></rect><rect class="uuid-2bb8af2b-6ba6-4a84-899b-db3b09d1ab4d" x="8.04" y="14.5" width="8.28" height=".52"></rect><rect class="uuid-2bb8af2b-6ba6-4a84-899b-db3b09d1ab4d" x="2.66" y="8.68" width="4.76" height="8.68"></rect><rect class="uuid-39c5c4c5-3c7d-408e-bc2a-efd421ea67fa" x="3.04" y="9.08" width="3.98" height="7.54"></rect><g class="uuid-38eb93ab-4556-4c57-8cf2-7f7b2c3f5ccc"><path class="uuid-add26fdc-f8df-4eae-b783-a91f0890f4ff" d="m11.88,6.92H1.08v1.66c0,.3.24.56.54.56s.54-.24.54-.56c0,.3.24.56.54.56s.54-.24.54-.56c0,.3.24.56.54.56s.54-.24.54-.56c0,.3.24.56.54.56s.54-.24.54-.56c0,.3.24.56.54.56s.54-.24.54-.56c0,.3.24.56.54.56s.54-.24.54-.56c0,.3.24.56.54.56s.54-.24.54-.56c0,.3.24.56.54.56s.54-.24.54-.56c0,.3.24.56.54.56s.54-.24.54-.56c0,.3.24.56.54.56.28,0,.52-.22.54-.52.02.28.26.52.54.52.3,0,.54-.24.54-.56,0,.3.24.56.54.56s.54-.24.54-.56c0,.3.24.56.54.56s.54-.24.54-.56c0,.3.24.56.54.56s.54-.24.54-.56c0,.3.24.56.54.56s.54-.24.54-.56v-1.66h-5.4Z"></path></g><rect class="uuid-8ba4f820-5ec9-4eb5-b2d2-8af324ebfd2b" x=".32" y="16.62" width="17.72" height="1.26"></rect><g><path class="uuid-7ab8a6c1-ac8f-4f76-9508-b49335ebc6e7" d="m6.12,7.08H0v.32C0,7.74.28,8.02.62,8.02s.62-.28.62-.62c0,.34.28.62.62.62s.62-.28.62-.62c0,.34.28.62.62.62s.62-.28.62-.62c0,.34.28.62.62.62s.62-.28.62-.62c0,.34.28.62.62.62s.62-.28.62-.62c0,.34.28.62.62.62s.62-.28.62-.62c0,.34.28.62.62.62s.62-.28.62-.62c0,.34.28.62.62.62s.62-.28.62-.62c0,.34.28.62.62.62s.62-.28.62-.62c0,.34.28.62.62.62s.62-.28.62-.62v-.32h-6.28Z"></path><path class="uuid-7ab8a6c1-ac8f-4f76-9508-b49335ebc6e7" d="m12.26,7.08v.32c0,.34.28.62.62.62s.62-.28.62-.62c0,.34.28.62.62.62s.62-.28.62-.62c0,.34.28.62.62.62s.62-.28.62-.62c0,.34.28.62.62.62s.62-.28.62-.62c0,.34.28.62.62.62s.62-.28.62-.62v-.32h-6.2Z"></path></g><polygon class="uuid-91aab75d-eed8-4dc3-882c-68ac11b74c8f" points="17.28 4.14 1.1 4.14 0 7.08 18.38 7.08 17.28 4.14"></polygon><rect id="uuid-a0053443-ced5-4f1c-96cf-7eb4a9c58afd" data-name="SVGID" class="uuid-8ba4f820-5ec9-4eb5-b2d2-8af324ebfd2b" x="3.56" y="9.76" width="2.94" height="6.2"></rect><rect class="uuid-39c5c4c5-3c7d-408e-bc2a-efd421ea67fa" x="3.56" y="12.68" width="2.94" height=".34"></rect><rect class="uuid-2bb8af2b-6ba6-4a84-899b-db3b09d1ab4d" x="3.18" y="11.96" width=".24" height="1.8"></rect><polygon class="uuid-39c5c4c5-3c7d-408e-bc2a-efd421ea67fa" points="1.22 7.08 2.18 4.14 3.28 4.14 2.44 7.08 1.22 7.08"></polygon><polygon class="uuid-39c5c4c5-3c7d-408e-bc2a-efd421ea67fa" points="3.68 7.08 4.36 4.14 5.46 4.14 4.9 7.08 3.68 7.08"></polygon><polygon class="uuid-39c5c4c5-3c7d-408e-bc2a-efd421ea67fa" points="6.12 7.08 6.56 4.14 7.64 4.14 7.34 7.08 6.12 7.08"></polygon><polygon class="uuid-39c5c4c5-3c7d-408e-bc2a-efd421ea67fa" points="8.58 7.08 8.74 4.14 9.64 4.14 9.8 7.08 8.58 7.08"></polygon><polygon class="uuid-39c5c4c5-3c7d-408e-bc2a-efd421ea67fa" points="17.14 7.08 16.18 4.14 15.08 4.14 15.92 7.08 17.14 7.08"></polygon><polygon class="uuid-39c5c4c5-3c7d-408e-bc2a-efd421ea67fa" points="14.7 7.08 14 4.14 12.9 4.14 13.46 7.08 14.7 7.08"></polygon><polygon class="uuid-39c5c4c5-3c7d-408e-bc2a-efd421ea67fa" points="12.24 7.08 11.82 4.14 10.72 4.14 11.02 7.08 12.24 7.08"></polygon><rect class="uuid-8ba4f820-5ec9-4eb5-b2d2-8af324ebfd2b" x="8.92" y="9.76" width="6.54" height="4.14"></rect></g></g></svg>