<svg xmlns="http://www.w3.org/2000/svg" id="uuid-c4f1fa18-2563-43af-9b51-d9a818498df4" data-name="a" viewBox="0 0 7.94 9.42"><defs><style>      .uuid-9928104b-74be-4891-bf26-e8c8c51c6a60 {        fill: #F6A200;      }      .uuid-9928104b-74be-4891-bf26-e8c8c51c6a60, .uuid-b26dbf5b-fa14-40ba-94f7-370cdbc090ac {        stroke-width: 0px;      }      .uuid-b26dbf5b-fa14-40ba-94f7-370cdbc090ac {        fill: #f6a200;      }    </style></defs><g id="uuid-5f534331-94dc-4c05-9a17-71c8aeea7b23" data-name="b"><g><path class="uuid-b26dbf5b-fa14-40ba-94f7-370cdbc090ac" d="m3.96,0c2.2,0,3.98,1.78,3.98,3.98,0,1.32-.64,2.5-1.64,3.22l.52,2.22-1.54-1.68c-.4.14-.84.22-1.3.22-2.2,0-3.98-1.78-3.98-3.98S1.76,0,3.96,0Z"></path><g><path class="uuid-9928104b-74be-4891-bf26-e8c8c51c6a60" d="m1.72,2.84v.8h0s.02-.04.04-.06c.02-.02.04-.04.06-.06s.06-.04.1-.04c.04-.02.08-.02.12-.02.08,0,.16.02.22.04s.1.06.12.12c.04.04.06.1.06.18s.02.14.02.22v.64h-.36v-.66s0-.06-.02-.1c-.02-.02-.02-.06-.06-.08-.02-.02-.06-.02-.1-.02s-.08,0-.12.02c-.02.02-.06.04-.06.06-.02.02-.02.06-.02.1v.68h-.36v-1.78h.36v-.04Z"></path><path class="uuid-9928104b-74be-4891-bf26-e8c8c51c6a60" d="m3.82,4.44c-.06.08-.12.12-.22.16-.08.04-.18.06-.26.06s-.18-.02-.24-.04c-.08-.02-.14-.06-.2-.12s-.1-.12-.14-.2-.04-.16-.04-.24c0-.1.02-.18.04-.24.04-.08.08-.14.14-.2s.12-.1.2-.12.16-.04.24-.04.16.02.22.04.12.06.18.12c.04.06.08.12.1.2s.04.16.04.24v.12h-.82c.02.06.04.12.1.16.04.04.1.06.18.06.06,0,.1-.02.14-.04.04-.02.08-.06.1-.1,0,0,.24.18.24.18Zm-.3-.52c0-.06-.02-.12-.06-.16s-.1-.06-.16-.06c-.04,0-.08,0-.1.02-.04.02-.06.02-.08.04s-.04.04-.04.06c-.02.02-.02.06-.02.08h.46s0,.02,0,.02Z"></path><path class="uuid-9928104b-74be-4891-bf26-e8c8c51c6a60" d="m4.1,2.84h.36v1.78h-.36v-1.78Z"></path><path class="uuid-9928104b-74be-4891-bf26-e8c8c51c6a60" d="m4.7,2.84h.36v1.78h-.36v-1.78Z"></path><path class="uuid-9928104b-74be-4891-bf26-e8c8c51c6a60" d="m5.28,4.06c0-.1.02-.18.04-.24.04-.08.08-.14.14-.2s.12-.1.2-.12.16-.04.24-.04.18.02.24.04c.08.02.14.06.2.12s.1.12.14.2.04.16.04.24c0,.1-.02.18-.04.24-.04.08-.08.14-.14.2s-.12.1-.2.12-.16.04-.24.04-.18-.02-.24-.04c-.08-.02-.14-.06-.2-.12s-.1-.12-.14-.2c-.02-.06-.04-.16-.04-.24Zm.34,0c0,.08.02.16.08.22.04.06.12.08.2.08s.16-.02.2-.08.08-.12.08-.22c0-.08-.02-.16-.08-.22-.04-.06-.12-.08-.2-.08s-.16.02-.2.08-.08.14-.08.22Z"></path></g></g></g></svg>