<svg xmlns="http://www.w3.org/2000/svg" id="uuid-e3988c7f-ea99-42ad-95d8-b0de88e09c1b" data-name="a" viewBox="0 0 10.22 10.78"><defs><style>      .uuid-669b9d8a-f481-486f-aeba-26bd588b2a88 {        fill: #F6A200;      }      .uuid-669b9d8a-f481-486f-aeba-26bd588b2a88, .uuid-ddb59f11-1b49-4071-ab16-815a8bb60db2 {        stroke-width: 0px;      }      .uuid-ddb59f11-1b49-4071-ab16-815a8bb60db2 {        fill: #f6a200;      }    </style></defs><g id="uuid-92cb60cb-4f68-4a03-9c71-fd18325c5cf7" data-name="b"><g><path class="uuid-669b9d8a-f481-486f-aeba-26bd588b2a88" d="m5.1,0C2.28,0,0,2.28,0,5.1c0,1.7.84,3.2,2.12,4.14l-.42,1.54,1.74-.86c.52.18,1.08.28,1.68.28,2.82,0,5.1-2.28,5.1-5.1S7.92,0,5.1,0Z"></path><g><path class="uuid-ddb59f11-1b49-4071-ab16-815a8bb60db2" d="m3.64,2.3v.64h0s.02-.04.04-.06.04-.04.06-.04c.02-.02.04-.02.08-.04.02,0,.06-.02.1-.02.08,0,.12.02.18.04.04.02.08.06.1.1s.04.08.06.14c0,.06.02.12.02.18v.5h-.28v-.54s0-.06-.02-.08-.02-.04-.04-.06-.04-.02-.08-.02-.06,0-.08.02-.04.04-.06.06-.02.04-.02.08v.54h-.28v-1.44s.22,0,.22,0Z"></path><path class="uuid-ddb59f11-1b49-4071-ab16-815a8bb60db2" d="m4.42,3.26c0-.08.02-.14.04-.2s.06-.12.1-.16.1-.08.16-.1.12-.04.2-.04.14.02.2.04c.06.02.12.06.16.1s.08.1.1.16.04.12.04.2-.02.14-.04.2-.06.12-.1.16-.1.08-.16.1-.12.04-.2.04-.14-.02-.2-.04c-.06-.02-.12-.06-.16-.1s-.08-.1-.1-.16c-.04-.06-.04-.12-.04-.2Zm.28,0c0,.06.02.12.06.16s.1.06.16.06c.08,0,.12-.02.16-.06s.06-.1.06-.16-.02-.12-.06-.16-.1-.06-.16-.06c-.08,0-.12.02-.16.06-.04.04-.06.1-.06.16Z"></path><path class="uuid-ddb59f11-1b49-4071-ab16-815a8bb60db2" d="m5.48,2.8h.3l.18.58h0l.16-.58h.32l.18.58h0l.18-.58h.28l-.32.92h-.28l-.2-.62h0l-.18.62h-.28s-.34-.92-.34-.92Z"></path><path class="uuid-ddb59f11-1b49-4071-ab16-815a8bb60db2" d="m1.62,4.84s-.04-.04-.06-.06-.06-.02-.08-.02c-.08,0-.12.02-.16.06s-.06.1-.06.16.02.12.06.16.1.06.16.06c.04,0,.06,0,.08-.02s.04-.04.06-.04l.18.2s-.1.08-.16.1-.12.02-.18.02c-.08,0-.14-.02-.2-.04-.06-.02-.12-.06-.16-.1s-.08-.1-.1-.16-.04-.12-.04-.2.02-.14.04-.2.06-.12.1-.16.1-.08.16-.1.12-.04.2-.04c.06,0,.12,0,.18.02s.12.06.16.1l-.18.26Z"></path><path class="uuid-ddb59f11-1b49-4071-ab16-815a8bb60db2" d="m2.48,5.34h0s-.08.08-.12.1c-.06.02-.1.04-.16.04-.04,0-.08,0-.12-.02s-.08-.04-.1-.06c-.04-.02-.06-.06-.08-.08s-.02-.08-.02-.12c0-.06,0-.1.02-.14s.04-.06.08-.1c.04-.02.08-.04.12-.06s.08-.02.14-.02c.04,0,.1-.02.14-.02h.12c0-.06-.02-.1-.06-.12s-.08-.04-.12-.04-.08,0-.12.02-.08.04-.1.08l-.16-.16c.06-.04.12-.08.18-.12.08-.02.14-.04.22-.04s.16.02.2.04c.06.02.1.06.12.1.04.04.06.08.06.14.02.06.02.12.02.2v.46h-.26s0-.08,0-.08Zm-.06-.28h-.08s-.06,0-.1.02c-.02,0-.06.02-.08.04s-.04.04-.04.08.02.06.04.08.06.02.1.02c.02,0,.06,0,.08-.02.02,0,.04-.02.06-.04.02-.02.04-.04.04-.06.02-.02.02-.04.02-.08v-.06h-.04v.02Z"></path><path class="uuid-ddb59f11-1b49-4071-ab16-815a8bb60db2" d="m2.92,4.54h.28v.12h0s.02-.04.04-.06.04-.04.06-.04c.02-.02.04-.02.08-.04.02,0,.06-.02.1-.02.08,0,.12.02.18.04.04.02.08.06.1.1s.04.08.06.14c0,.06.02.12.02.18v.5h-.28v-.52s0-.06-.02-.08c0-.02-.02-.04-.04-.06s-.04-.02-.08-.02-.06,0-.08.02-.04.04-.06.06-.02.04-.02.08v.54h-.28v-.94s-.06,0-.06,0Z"></path><path class="uuid-ddb59f11-1b49-4071-ab16-815a8bb60db2" d="m4.6,4.12h.3v1.34h-.3v-1.34Z"></path><path class="uuid-ddb59f11-1b49-4071-ab16-815a8bb60db2" d="m5.96,4.04v.64h0s.02-.04.04-.06.04-.04.06-.04c.02-.02.04-.02.08-.04.02,0,.06-.02.1-.02.08,0,.12.02.18.04.04.02.08.06.1.1s.04.08.06.14c0,.06.02.12.02.18v.5h-.32v-.54s0-.06-.02-.08c0-.02-.02-.04-.04-.06s-.04-.02-.08-.02-.06,0-.08.02-.04.04-.06.06-.02.04-.02.08v.54h-.3v-1.44s.28,0,.28,0Z"></path><path class="uuid-ddb59f11-1b49-4071-ab16-815a8bb60db2" d="m7.64,5.3c-.04.06-.1.1-.18.14-.06.04-.14.04-.22.04s-.14-.02-.2-.04c-.06-.02-.12-.06-.16-.1s-.08-.1-.1-.16-.04-.12-.04-.2.02-.14.04-.2.06-.12.1-.16.1-.08.16-.1.12-.04.2-.04c.06,0,.12.02.18.04s.1.06.14.1.06.1.08.16.04.12.04.2v.08h-.66c.02.06.04.1.08.12s.08.04.14.04c.04,0,.08-.02.12-.04s.06-.04.08-.08c0,0,.2.2.2.2Zm-.24-.4s-.02-.08-.04-.12c-.04-.04-.08-.06-.12-.06s-.06,0-.08.02-.04.02-.06.04c-.02.02-.04.04-.04.06s-.02.04-.02.06h.36Z"></path><path class="uuid-ddb59f11-1b49-4071-ab16-815a8bb60db2" d="m7.86,4.04h.28v1.44h-.28v-1.44Z"></path><path class="uuid-ddb59f11-1b49-4071-ab16-815a8bb60db2" d="m8.38,4.54h.26v.12h0s.02-.04.04-.06.04-.04.06-.04.06-.02.08-.04c.02,0,.06-.02.1-.02.06,0,.12.02.18.04s.1.06.14.1.08.1.1.16.04.12.04.2c0,.06,0,.12-.02.18s-.04.12-.08.16-.08.08-.14.1-.12.04-.18.04-.12,0-.16-.02c-.06-.02-.1-.04-.12-.1h0v.52h-.28v-1.34s-.02,0-.02,0Zm.26.46c0,.06.02.12.06.16s.1.06.16.06c.08,0,.12-.02.16-.06s.06-.1.06-.16-.02-.12-.06-.16-.1-.06-.16-.06c-.08,0-.12.02-.16.06-.04.04-.06.1-.06.16Z"></path><path class="uuid-ddb59f11-1b49-4071-ab16-815a8bb60db2" d="m3.62,7.34s-.04.1-.06.14-.04.06-.06.1c-.02.02-.06.04-.1.06s-.1.02-.16.02c-.08,0-.14-.02-.22-.04l.04-.24s.08.02.14.02c.04,0,.06,0,.08-.02.02,0,.04-.02.06-.04.01-.01.03-.03.04-.04.02-.02.02-.04.02-.06l.02-.06-.4-.92h.3l.24.6h0l.2-.6h.3s-.44,1.08-.44,1.08Z"></path><path class="uuid-ddb59f11-1b49-4071-ab16-815a8bb60db2" d="m4.12,6.74c0-.08.02-.14.04-.2s.06-.12.1-.16.1-.08.16-.1.12-.04.2-.04.14.02.2.04c.06.02.12.06.16.1s.08.1.1.16.04.12.04.2-.02.14-.04.2-.06.12-.1.16-.1.08-.16.1-.12.04-.2.04-.14-.02-.2-.04c-.06-.02-.12-.06-.16-.1s-.08-.1-.1-.16c-.04-.06-.04-.12-.04-.2Zm.28,0c0,.06.02.12.06.16s.1.06.16.06c.08,0,.12-.02.16-.06s.06-.1.06-.16-.02-.12-.06-.16-.1-.06-.16-.06c-.08,0-.12.02-.16.06-.04.04-.06.08-.06.16Z"></path><path class="uuid-ddb59f11-1b49-4071-ab16-815a8bb60db2" d="m6.18,7.2h-.28v-.12h0s-.02.04-.04.06-.04.04-.06.04c-.02.02-.04.02-.08.04-.02,0-.06.02-.1.02-.08,0-.14-.02-.18-.04s-.08-.06-.1-.1-.04-.08-.04-.14-.02-.12-.02-.18v-.5h.28v.54s0,.06.02.08c0,.02.02.04.04.06s.04.02.08.02.06,0,.08-.02.04-.04.06-.06.02-.04.02-.08v-.54h.28v.92s.04,0,.04,0Z"></path><path class="uuid-ddb59f11-1b49-4071-ab16-815a8bb60db2" d="m6.7,6.68s0-.08.02-.1c0-.02.02-.06.06-.08.04-.04.06-.06.1-.08.02-.02.06-.04.08-.08.02-.02.04-.04.04-.06s.02-.04.02-.06c0-.04-.02-.08-.04-.1s-.06-.04-.1-.04c-.06,0-.1.02-.14.04-.04.04-.04.08-.06.12l-.3-.02c.02-.14.06-.24.14-.3.08-.08.2-.1.32-.1.06,0,.12,0,.16.02.06.02.1.04.14.08s.06.08.1.12.04.1.04.16c0,.04,0,.06-.02.1,0,.02-.02.06-.04.08s-.04.06-.08.08c-.02.02-.06.06-.12.1-.02.02-.04.04-.06.06s-.02.04-.02.06v.06h-.28v-.06s.04,0,.04,0Zm-.04.36s0-.04.02-.06c0-.02.02-.04.04-.06s.04-.02.06-.04.04-.02.06-.02.04,0,.06.02c.02,0,.04.02.06.04.02.02.02.04.04.06,0,.02.02.04.02.06s0,.04-.02.06c0,.02-.02.04-.04.06s-.04.02-.06.04c-.02,0-.04.02-.06.02s-.04,0-.06-.02c-.02,0-.04-.02-.06-.04-.02-.02-.02-.04-.04-.06s-.02-.04-.02-.06Z"></path></g></g></g></svg>