<svg xmlns="http://www.w3.org/2000/svg" viewBox="0 0 200 174">
<defs><linearGradient id="gold" x1="0" y1="0" x2="1" y2="0">
  <stop offset="0" stop-color="#C79B4B"/><stop offset="0.25" stop-color="#E8CE8B"/>
  <stop offset="0.5" stop-color="#D4AF63"/><stop offset="0.75" stop-color="#EED9A0"/>
  <stop offset="1" stop-color="#C79B4B"/></linearGradient></defs>
<g transform="translate(0,-14)">
  <defs><clipPath id="w0"><path d="M100.00,88.00 L61.42,20.91 A88,88 0 0 1 138.58,20.91 Z"/></clipPath><clipPath id="w1"><path d="M110.39,94.00 L149.21,27.04 A88,88 0 0 1 187.79,93.86 Z"/></clipPath><clipPath id="w2"><path d="M110.39,106.00 L187.79,106.14 A88,88 0 0 1 149.21,172.96 Z"/></clipPath><clipPath id="w3"><path d="M100.00,112.00 L138.58,179.09 A88,88 0 0 1 61.42,179.09 Z"/></clipPath><clipPath id="w4"><path d="M89.61,106.00 L50.79,172.96 A88,88 0 0 1 12.21,106.14 Z"/></clipPath><clipPath id="w5"><path d="M89.61,94.00 L12.21,93.86 A88,88 0 0 1 50.79,27.04 Z"/></clipPath></defs>
  <!-- wedge 0 (top): mango slice — orange flesh with deeper curve -->
  <path d="M100.00,88.00 L61.42,20.91 A88,88 0 0 1 138.58,20.91 Z" fill="#F49C00"/>
  <g clip-path="url(#w0)">
    <path d="M100,16 A84,84 0 0 1 144,30 L100,100 Z" fill="#EC660E"/>
    
  </g>
  <!-- wedge 1 (upper right): mango skin — green rind band, red-orange flesh -->
  <path d="M110.39,94.00 L149.21,27.04 A88,88 0 0 1 187.79,93.86 Z" fill="#E4332A"/>
  <g clip-path="url(#w1)">
    <path d="M149.2,27.0 A88,88 0 0 1 187.8,93.9 L169.8,95.1 A70,70 0 0 0 139.1,42.0 Z" fill="#74A72D"/>
  </g>
  <!-- wedge 2 (lower right): blossom cluster — pink buds -->
  <path d="M110.39,106.00 L187.79,106.14 A88,88 0 0 1 149.21,172.96 Z" fill="#DA306C"/>
  <g clip-path="url(#w2)" fill="#B7115F">
    <circle cx="138" cy="128" r="9"/><circle cx="152" cy="140" r="9"/><circle cx="139" cy="151" r="9"/>
    <circle cx="124" cy="141" r="9"/><circle cx="153" cy="121" r="9"/><circle cx="126" cy="120" r="8"/>
    <circle cx="146" cy="160" r="8"/><circle cx="161" cy="152" r="8"/>
  </g>
  <!-- wedge 3 (bottom): whole mango silhouette — purple like original grape wedge -->
  <path d="M100.00,112.00 L138.58,179.09 A88,88 0 0 1 61.42,179.09 Z" fill="#926AAA"/>
  <g clip-path="url(#w3)">
    <path d="M100,128 c18,0 26,14 24,30 c-2,15 -12,26 -24,26 c-12,0 -22,-11 -24,-26 c-2,-16 6,-30 24,-30 Z" fill="#713C77"/>
    <path d="M100,124 c3,-6 8,-9 14,-9 c-1,6 -6,10 -14,9 Z" fill="#5F3170"/>
  </g>
  <!-- wedge 4 (lower left): hedgehog cut — lime with yellow cubes -->
  <path d="M89.61,106.00 L50.79,172.96 A88,88 0 0 1 12.21,106.14 Z" fill="#ACCA38"/>
  <g clip-path="url(#w4)" fill="#F7D154">
    <rect x="40" y="112" width="15" height="15" rx="2"/><rect x="58" y="112" width="15" height="15" rx="2"/>
    <rect x="31" y="130" width="15" height="15" rx="2"/><rect x="49" y="130" width="15" height="15" rx="2"/><rect x="67" y="130" width="15" height="15" rx="2"/>
    <rect x="40" y="148" width="15" height="15" rx="2"/><rect x="58" y="148" width="15" height="15" rx="2"/>
  </g>
  <!-- wedge 5 (upper left): half mango with pit — soft pink like original -->
  <path d="M89.61,94.00 L12.21,93.86 A88,88 0 0 1 50.79,27.04 Z" fill="#F4ADB5"/>
  <g clip-path="url(#w5)">
    <ellipse cx="56" cy="70" rx="20" ry="13" transform="rotate(-32 56 70)" fill="#E59B8F"/>
    <ellipse cx="56" cy="70" rx="12" ry="7" transform="rotate(-32 56 70)" fill="#F6C9B2"/>
  </g></g>

  <!-- ribbon -->
  <path d="M5,136 L31,155 L5,174 L19,155 Z" fill="#B98A3E"/>
  <path d="M195,136 L169,155 L195,174 L181,155 Z" fill="#B98A3E"/>
  <path d="M25,132 L175,132 L167,154 L175,166 L25,166 L33,154 Z" fill="#8F6A2B" opacity="0"/>
  <rect x="25" y="132" width="150" height="34" fill="url(#gold)"/>
  <path d="M25,132 L30,132 L25,140 Z" fill="#8F6A2B"/>
  <text x="100" y="156" text-anchor="middle" font-family="Filson Pro Black" font-size="19" fill="#8A6428" letter-spacing="1">RM MANGOES</text>
</svg>