<svg xmlns="http://www.w3.org/2000/svg" viewBox="0 0 84.7 99">
  <!-- trunk -->
  <path d="M39.5 60 h5.7 v34 h-5.7 z" fill="#7E4E24"/>
  <path d="M42.35 78 c-4-3-9-4-13-3 c3 3 8 4 13 4 z" fill="#7E4E24"/>
  <path d="M42.35 72 c4-3 9-4 13-3 c-3 3 -8 4 -13 4 z" fill="#7E4E24"/>
  <!-- foliage -->
  <circle cx="42.35" cy="30" r="26" fill="#7AA82D"/>
  <circle cx="22" cy="38" r="17" fill="#619B26"/>
  <circle cx="63" cy="38" r="17" fill="#619B26"/>
  <circle cx="42.35" cy="18" r="18" fill="#ACCA38"/>
  <circle cx="30" cy="26" r="14" fill="#7AA82D"/>
  <circle cx="55" cy="26" r="14" fill="#7AA82D"/>
  <!-- hanging mangoes -->
  <g>
    <path d="M25 40 c5 0 7.5 4 7 8 c-0.5 4 -3.5 7 -7 7 c-3.5 0 -6.5 -3 -7 -7 c-0.5 -4 2 -8 7 -8 z" fill="#F6A200"/>
    <path d="M25.6 40 l-0.6 -4 l1.2 0 z" fill="#651220"/>
  </g>
  <g>
    <path d="M43 46 c5 0 7.5 4 7 8 c-0.5 4 -3.5 7 -7 7 c-3.5 0 -6.5 -3 -7 -7 c-0.5 -4 2 -8 7 -8 z" fill="#EDA20B"/>
    <path d="M43.6 46 l-0.6 -4 l1.2 0 z" fill="#651220"/>
  </g>
  <g>
    <path d="M60 40 c5 0 7.5 4 7 8 c-0.5 4 -3.5 7 -7 7 c-3.5 0 -6.5 -3 -7 -7 c-0.5 -4 2 -8 7 -8 z" fill="#F6A200"/>
    <path d="M60.6 40 l-0.6 -4 l1.2 0 z" fill="#651220"/>
  </g>
</svg>
