<?xml version="1.0" encoding="utf-8"?>
<!-- Generator: Adobe Illustrator 27.9.0, SVG Export Plug-In . SVG Version: 6.00 Build 0)  -->
<svg version="1.1" id="Laag_1" xmlns="http://www.w3.org/2000/svg" xmlns:xlink="http://www.w3.org/1999/xlink" x="0px" y="0px"
	 viewBox="0 0 84.7 99" style="enable-background:new 0 0 84.7 99;" xml:space="preserve">
<style type="text/css">
	.st0{fill:#F6A200;}
	.st1{fill:#EA7108;}
	.st2{fill:#F08F0A;}
	.st3{fill-rule:evenodd;clip-rule:evenodd;fill:#906037;}
	.st4{fill-rule:evenodd;clip-rule:evenodd;fill:#B07E4A;}
	.st5{fill:#73A52D;}
	.st6{fill:#94BF1F;}
	.st7{fill:#008B39;}
	.st8{fill:#B1CA08;}
</style>
<g id="boom">
	<g>
		<g>
			<circle class="st0" cx="13.2" cy="48.7" r="4.2"/>
			<path class="st1" d="M13.5,52.4c-2.3,0-4.2-1.9-4.2-4.2c0-0.8,0.2-1.5,0.6-2.2c-0.6,0.7-1,1.7-1,2.7c0,2.3,1.9,4.2,4.2,4.2
				c1.5,0,2.9-0.8,3.6-2C16,51.8,14.8,52.4,13.5,52.4z"/>
		</g>
	</g>
	<g>
		<g>
			<circle class="st0" cx="81" cy="34.9" r="3.7"/>
			<path class="st1" d="M81.4,38.2c-2.1,0-3.7-1.7-3.7-3.7c0-0.7,0.2-1.4,0.5-1.9c-0.5,0.6-0.9,1.5-0.9,2.4c0,2.1,1.7,3.7,3.7,3.7
				c1.4,0,2.6-0.7,3.2-1.8C83.6,37.6,82.5,38.2,81.4,38.2z"/>
		</g>
	</g>
	<g>
		<g>
			<circle class="st0" cx="33.7" cy="15.6" r="3.7"/>
			<path class="st1" d="M34,18.9c-2.1,0-3.7-1.7-3.7-3.7c0-0.7,0.2-1.4,0.5-1.9c-0.5,0.6-0.9,1.5-0.9,2.4c0,2.1,1.7,3.7,3.7,3.7
				c1.4,0,2.6-0.7,3.2-1.8C36.2,18.4,35.1,18.9,34,18.9z"/>
		</g>
	</g>
	<g>
		<g>
			<circle class="st0" cx="60" cy="31.9" r="3.7"/>
			<path class="st1" d="M60.3,35.2c-2.1,0-3.7-1.7-3.7-3.7c0-0.7,0.2-1.4,0.5-1.9c-0.5,0.6-0.9,1.5-0.9,2.4c0,2.1,1.7,3.7,3.7,3.7
				c1.4,0,2.6-0.7,3.2-1.8C62.5,34.7,61.5,35.2,60.3,35.2z"/>
		</g>
	</g>
	<g>
		<g>
			<circle class="st2" cx="76.4" cy="38.6" r="4.7"/>
			<path class="st1" d="M76.8,42.7c-2.6,0-4.7-2.1-4.7-4.7c0-0.9,0.2-1.7,0.7-2.4c-0.7,0.8-1.1,1.8-1.1,3c0,2.6,2.1,4.7,4.7,4.7
				c1.7,0,3.2-0.9,4-2.3C79.5,42.1,78.2,42.7,76.8,42.7z"/>
		</g>
	</g>
	<g>
		<g>
			<circle class="st0" cx="69.4" cy="57.9" r="3.7"/>
			<path class="st1" d="M69.7,61.2c-2.1,0-3.7-1.7-3.7-3.7c0-0.7,0.2-1.4,0.5-1.9c-0.5,0.6-0.9,1.5-0.9,2.4c0,2.1,1.7,3.7,3.7,3.7
				c1.4,0,2.6-0.7,3.2-1.8C71.9,60.7,70.9,61.2,69.7,61.2z"/>
		</g>
	</g>
	<path class="st3" d="M37.8,60.7l-29-23.6l-2.5-0.6l29.6,33.4c0,0-0.5,16.8-9,29.1h30.8c-9.5-18.3-9.8-29.1-9.8-29.1L68,57.1l5.8-19
		l-1.6-1.6l-7.4,17.6l-17.4,5.5l-0.6-19.3l21.4-19l-1.1-1.8L46.7,35l-0.2-5.3l-11-25l-2.8-2.2l7.5,28.4l-1.1,10.7l-23.9-12h-2.5
		l25.5,17.3L37.8,60.7z"/>
	<path class="st4" d="M35.4,4.7l-3-2.1L40.1,31L39,41.7l-23.9-12h-2.5L38.1,47l-0.3,13.7l-29-23.6l-2.5-0.6l29.6,33.4
		c0,0-0.6,13.5-9,29.1h15.5l1.4-74.9L35.4,4.7z"/>
	<g>
		<g>
			<path class="st5" d="M6.2,40.1c4.4-0.7,6.5,3.4,6.5,3.4s-0.8,4.5-5.2,5.2C3.9,49.2,0,45.4,0,45.4S2.2,40.7,6.2,40.1z"/>
			<path class="st6" d="M7.5,44c4.4-0.7,5.2-0.5,5.2-0.5s-0.8,4.5-5.2,5.2C3.9,49.2,0,45.4,0,45.4S3.5,44.6,7.5,44z"/>
		</g>
		<path class="st7" d="M0,45.4l0.1,0.1L12.6,44c0.1-0.2,0.1-0.5,0.1-0.5c-0.1-0.4-0.6-0.9-0.6-0.9L0.2,45L0,45.4z"/>
	</g>
	<g>
		<g>
			<path class="st5" d="M16.5,37.8c-0.3,2.7-3,3.2-3,3.2s-2.5-1.2-2.2-3.9c0.3-2.2,3.1-3.9,3.1-3.9S16.8,35.4,16.5,37.8z"/>
			<path class="st6" d="M14,37.9c-0.3,2.7-0.5,3.1-0.5,3.1s-2.5-1.2-2.2-3.9c0.3-2.2,3.1-3.9,3.1-3.9S14.3,35.5,14,37.9z"/>
		</g>
		<path class="st7" d="M14.4,33.3L14.4,33.3l-1.2,7.6c0.1,0.1,0.3,0.2,0.3,0.2c0.2,0,0.6-0.2,0.6-0.2l0.5-7.3L14.4,33.3z"/>
	</g>
	<g>
		<g>
			<path class="st5" d="M27.6,53.8c-3,1-5.1-1.6-5.1-1.6s0-3.3,3-4.4c2.5-0.8,5.8,1.4,5.8,1.4S30.3,52.8,27.6,53.8z"/>
			<path class="st6" d="M26.1,51.1c-3,1-3.6,1-3.6,1s0-3.3,3-4.4c2.5-0.8,5.8,1.4,5.8,1.4S28.9,50.2,26.1,51.1z"/>
		</g>
		<path class="st7" d="M31.3,49.2L31.3,49.2l-8.8,2.6c-0.1,0.2,0,0.4,0,0.4c0.1,0.3,0.5,0.6,0.6,0.6l8.2-3.3V49.2z"/>
	</g>
	<g>
		<g>
			<path class="st5" d="M11.8,48.4c5.1-1.3,8.1,3.3,8.1,3.3s-0.4,5.4-5.5,6.7c-4.2,1.1-9.3-2.9-9.3-2.9S7.2,49.5,11.8,48.4z"/>
			<path class="st6" d="M13.8,52.8c5.1-1.3,6-1.2,6-1.2s-0.4,5.4-5.5,6.7C10.1,59.4,5,55.4,5,55.4S9.2,54,13.8,52.8z"/>
		</g>
		<path class="st7" d="M5.1,55.4l0.1,0.1l14.5-3.3c0.1-0.3,0.1-0.6,0.1-0.6c-0.2-0.4-0.8-1-0.8-1L5.3,54.9L5.1,55.4z"/>
	</g>
	<g>
		<g>
			<path class="st5" d="M16.6,34.3c3-2,5.9,0.3,5.9,0.3s0.9,3.6-2.1,5.5c-2.4,1.6-6.6,0.1-6.6,0.1S13.9,36.1,16.6,34.3z"/>
			<path class="st8" d="M18.9,36.8c3-2,3.6-2.1,3.6-2.1s0.9,3.6-2.1,5.5c-2.4,1.6-6.6,0.1-6.6,0.1S16.2,38.6,18.9,36.8z"/>
		</g>
		<path class="st7" d="M13.9,40.3L13.9,40.3l8.7-5.3c0-0.2-0.1-0.4-0.1-0.4c-0.2-0.2-0.7-0.5-0.8-0.5l-7.9,5.8L13.9,40.3z"/>
	</g>
	<g>
		<g>
			<path class="st5" d="M27.5,45.1c-0.5-3.5,2.8-5.2,2.8-5.2s3.6,0.7,4.1,4.2c0.4,2.9-2.7,6-2.7,6S28,48.3,27.5,45.1z"/>
			<path class="st6" d="M30.7,44.1c-0.5-3.5-0.4-4.2-0.4-4.2s3.6,0.7,4.1,4.2c0.4,2.9-2.7,6-2.7,6S31.2,47.3,30.7,44.1z"/>
		</g>
		<path class="st7" d="M31.8,50.2L31.8,50.2l-1-10.2c-0.2-0.1-0.4-0.1-0.4-0.1c-0.3,0.1-0.8,0.5-0.7,0.5l1.9,9.6L31.8,50.2z"/>
	</g>
	<g>
		<path class="st6" d="M81,34.8c-3,4.7-8.5,3.3-8.5,3.3s-3.6-4.4-0.7-9.1c2.4-3.8,9.2-4.4,9.2-4.4S83.7,30.5,81,34.8z"/>
		<path class="st5" d="M75.8,32.7c-3,4.7-3.4,5.4-3.4,5.4s-3.6-4.4-0.7-9.1c2.4-3.8,9.2-4.4,9.2-4.4S78.5,28.4,75.8,32.7z"/>
		<path class="st7" d="M73.6,38.2l7.6-13.5l-0.1-0.3h-0.2L72,37.3c0.2,0.6,0.5,0.7,0.5,0.7C72.8,38.2,73.6,38.2,73.6,38.2z"/>
	</g>
	<g>
		<path class="st6" d="M70.1,23.2c-3,1.4-5.4-1.1-5.4-1.1s-0.4-3.4,2.7-4.8c2.5-1.1,6.1,0.8,6.1,0.8S72.9,22,70.1,23.2z"/>
		<path class="st5" d="M68.2,20.4c-3,1.4-3.5,1.6-3.5,1.6s-0.4-3.4,2.7-4.8c2.5-1.1,6.1,0.8,6.1,0.8S71,19.2,68.2,20.4z"/>
		<path class="st7" d="M65.3,22.5l8.3-4.3V18l-0.1-0.1l-8.7,3.6c-0.1,0.4,0,0.5,0,0.5C64.9,22.2,65.3,22.5,65.3,22.5z"/>
	</g>
	<g>
		<path class="st6" d="M71.7,59.5c-4.3-3.5-2.4-8.9-2.4-8.9s4.8-3.1,9.2,0.3c3.5,2.8,3.4,9.7,3.4,9.7S75.7,62.6,71.7,59.5z"/>
		<path class="st5" d="M74.4,54.5c-4.3-3.5-5-3.9-5-3.9s4.8-3.1,9.2,0.3c3.5,2.8,3.4,9.7,3.4,9.7S78.3,57.7,74.4,54.5z"/>
		<path class="st7" d="M69.1,51.7l12.6,9l0.3-0.1v-0.2L70.2,50.2c-0.6,0.2-0.7,0.4-0.7,0.4C69.2,51,69.1,51.7,69.1,51.7z"/>
	</g>
	<g>
		<path class="st6" d="M62.4,34.1c-4-1.8-3.5-6.3-3.5-6.3s3.1-3.3,7-1.5c3.2,1.5,4.4,6.7,4.4,6.7S66,35.7,62.4,34.1z"/>
		<path class="st5" d="M63.4,29.9c-4-1.8-4.5-2-4.5-2s3.1-3.3,7-1.5c3.2,1.5,4.4,6.7,4.4,6.7S67,31.5,63.4,29.9z"/>
		<path class="st7" d="M58.9,28.8l11.2,4.4l0.2-0.1V33l-10.9-5.5c-0.4,0.3-0.5,0.4-0.5,0.4C58.9,28.1,58.9,28.8,58.9,28.8z"/>
	</g>
	<g>
		<path class="st6" d="M31.7,7.1C36,7.6,36.9,12,36.9,12s-1.9,4-6.3,3.5c-3.5-0.4-6.2-5.1-6.2-5.1S27.8,6.6,31.7,7.1z"/>
		<path class="st5" d="M32,11.5c4.3,0.5,4.9,0.6,4.9,0.6s-1.9,4-6.3,3.5c-3.5-0.4-6.2-5.1-6.2-5.1S28.1,11,32,11.5z"/>
		<path class="st7" d="M36.7,11.2l-12.1-0.9l-0.1,0.2l0.1,0.1l12.1,2C37,12.2,37,12,37,12C36.9,11.8,36.7,11.2,36.7,11.2z"/>
	</g>
	<g>
		<path class="st6" d="M68.5,41.4c2.7,4.9-1.2,9.1-1.2,9.1s-5.6,1-8.3-3.8c-2.2-4,0.6-10.2,0.6-10.2S66,37,68.5,41.4z"/>
		<path class="st5" d="M64.1,45c2.7,4.9,3.1,5.5,3.1,5.5s-5.6,1-8.3-3.8c-2.2-4,0.6-10.2,0.6-10.2S61.7,40.6,64.1,45z"/>
		<path class="st7" d="M67.9,49.6l-8.1-13.1h-0.3l-0.1,0.2l7,14c0.6,0.1,0.8-0.1,0.8-0.1C67.5,50.3,67.9,49.6,67.9,49.6z"/>
	</g>
	<g>
		<path class="st6" d="M65.5,18.8c0.2,3.9-3.5,5.3-3.5,5.3s-3.8-1-4.1-4.9c-0.2-3.1,3.4-6.3,3.4-6.3S65.3,15.3,65.5,18.8z"/>
		<path class="st5" d="M61.7,19.7c0.2,3.9,0.3,4.4,0.3,4.4s-3.8-1-4.1-4.9c-0.2-3.1,3.4-6.3,3.4-6.3S61.5,16.2,61.7,19.7z"/>
		<path class="st7" d="M62.8,23.8l-1.2-10.7L61.4,13l-0.1,0.1L61.5,24c0.4,0.2,0.5,0.2,0.5,0.2C62.3,24,62.8,23.8,62.8,23.8z"/>
	</g>
	<g>
		<path class="st6" d="M40.1,22.8c3.7,4.2,0.8,9.1,0.8,9.1s-5.3,2.3-9-1.9c-3-3.4-1.7-10.1-1.7-10.1S36.7,19,40.1,22.8z"/>
		<path class="st5" d="M36.7,27.2c3.7,4.2,4.3,4.7,4.3,4.7s-5.3,2.3-9-1.9c-3-3.4-1.7-10.1-1.7-10.1S33.3,23.4,36.7,27.2z"/>
		<path class="st7" d="M41.4,30.8l-10.9-11h-0.3V20l9.9,12.1c0.6-0.1,0.8-0.3,0.8-0.3C41.1,31.6,41.4,30.8,41.4,30.8z"/>
	</g>
	<g>
		<path class="st6" d="M11,31.5c0.9,4.2-2.9,6.6-2.9,6.6s-4.5-0.5-5.4-4.7c-0.8-3.5,2.7-7.6,2.7-7.6S10.2,27.6,11,31.5z"/>
		<path class="st5" d="M7,33.2c0.9,4.2,1.1,4.9,1.1,4.9s-4.5-0.5-5.4-4.7c-0.8-3.5,2.7-7.6,2.7-7.6S6.2,29.4,7,33.2z"/>
		<path class="st7" d="M8.9,37.5L5.6,25.8l-0.2-0.1l-0.1,0.1l2.2,12.1C7.9,38.1,8.1,38,8.1,38C8.4,37.9,8.9,37.5,8.9,37.5z"/>
	</g>
	<g>
		<path class="st6" d="M29.4,32.1c-1.2,3.1-4.7,3-4.7,3s-2.7-2.2-1.5-5.3c1-2.6,5-3.7,5-3.7S30.5,29.2,29.4,32.1z"/>
		<path class="st5" d="M26.1,31.4c-1.2,3.1-1.3,3.6-1.3,3.6s-2.7-2.2-1.5-5.3c1-2.6,5-3.7,5-3.7S27.2,28.6,26.1,31.4z"/>
		<path class="st7" d="M25.4,35l2.9-8.9L28.2,26h-0.1l-3.7,8.7c0.2,0.3,0.4,0.3,0.4,0.3C25,35.1,25.4,35,25.4,35z"/>
	</g>
	<g>
		<path class="st6" d="M63.6,62.7c-1.4-3.6,1.6-6.2,1.6-6.2s4-0.2,5.4,3.4c1.2,2.9-1.3,7-1.3,7S64.9,66,63.6,62.7z"/>
		<path class="st5" d="M66.8,60.6c-1.4-3.6-1.7-4.1-1.7-4.1s4-0.2,5.4,3.4c1.2,2.9-1.3,7-1.3,7S68.1,63.9,66.8,60.6z"/>
		<path class="st7" d="M64.6,57.1l4.5,9.8h0.2l0.1-0.1l-3.7-10.3c-0.4-0.1-0.6,0-0.6,0C65,56.7,64.6,57.1,64.6,57.1z"/>
	</g>
	<g>
		<path class="st6" d="M48.4,36.1c0.7-3.8,4.7-4.3,4.7-4.3s3.5,2,2.8,5.8c-0.6,3.1-4.9,5.2-4.9,5.2S47.8,39.6,48.4,36.1z"/>
		<path class="st5" d="M52.3,36.1c0.7-3.8,0.8-4.4,0.8-4.4s3.5,2,2.8,5.8c-0.6,3.1-4.9,5.2-4.9,5.2S51.7,39.6,52.3,36.1z"/>
		<path class="st7" d="M52.3,32l-1.5,10.7l0.1,0.1l0.1-0.1l2.5-10.6c-0.3-0.3-0.5-0.3-0.5-0.3C52.9,31.8,52.3,32,52.3,32z"/>
	</g>
	<g>
		<path class="st6" d="M24.3,46.7c0.1,3.9-3.6,5.2-3.6,5.2s-3.8-1.2-3.9-5c-0.1-3.2,3.6-6.2,3.6-6.2S24.2,43.2,24.3,46.7z"/>
		<path class="st5" d="M20.5,47.5c0.1,3.9,0.2,4.4,0.2,4.4s-3.8-1.2-3.9-5c-0.1-3.2,3.6-6.2,3.6-6.2S20.4,44,20.5,47.5z"/>
		<path class="st7" d="M21.4,51.6l-0.9-10.7l-0.2-0.1l-0.1,0.1l-0.1,10.9c0.4,0.2,0.5,0.2,0.5,0.2C20.9,51.9,21.4,51.6,21.4,51.6z"
			/>
	</g>
	<g>
		<path class="st6" d="M31.1,37.5c-2.7,1.7-5.3-0.3-5.3-0.3S25,34,27.7,32.3c2.2-1.4,5.9-0.1,5.9-0.1S33.6,35.9,31.1,37.5z"/>
		<path class="st5" d="M28.9,35.1c-2.7,1.7-3.1,2-3.1,2s-0.8-3.2,1.9-4.9c2.2-1.4,5.9-0.1,5.9-0.1S31.4,33.6,28.9,35.1z"/>
		<path class="st7" d="M26.4,37.5l7.2-5.2v-0.2h-0.1l-7.8,4.6c0,0.4,0.1,0.5,0.1,0.5C26,37.3,26.4,37.5,26.4,37.5z"/>
	</g>
	<g>
		<path class="st5" d="M47.8,12.4c-4,5-9.1,2-9.1,2S35,9.6,38.6,5c2.6-3.2,9.7-2.8,9.7-2.8S50.6,8.9,47.8,12.4z"/>
		<path class="st6" d="M44.7,10.1c-4,5-6,4.3-6,4.3S35,9.6,38.6,5c2.6-3.2,9.7-2.8,9.7-2.8S47.5,6.6,44.7,10.1z"/>
		<g>
			<path class="st7" d="M38.3,13.9c1.5-0.5,2.9-1.3,4.1-2.4c1.2-1.1,2.2-2.4,3.1-4c1.6-2.7,2.8-5.1,2.8-5.1l0.1,0.4
				c0,0.1-0.8,1.9-2.1,5.1c-0.7,1.8-1.8,3.4-3.1,4.6c-1.1,1-2.4,1.8-3.8,2.4l-0.9-0.4L38.3,13.9z"/>
		</g>
	</g>
	<g>
		<path class="st5" d="M77.3,48.4c-4.8,1.1-6.5-3.1-6.5-3.1s0-4.7,4.4-5.7c3.1-0.7,7.2,2.9,7.2,2.9S80.6,47.6,77.3,48.4z"/>
		<path class="st6" d="M76.5,45.5c-4.8,1.1-5.7-0.2-5.7-0.2s0-4.7,4.4-5.7c3.1-0.7,7.2,2.9,7.2,2.9S79.9,44.7,76.5,45.5z"/>
		<g>
			<path class="st7" d="M70.9,44.8c1.1,0.4,2.4,0.6,3.6,0.5c1.2-0.1,2.5-0.4,3.8-0.9c2.2-0.9,4.1-1.8,4.1-1.8l-0.1,0.3
				c-0.1,0.1-1.4,0.8-3.7,2.1c-1.3,0.8-2.7,1.2-4,1.3c-1.2,0.1-2.3,0-3.4-0.3l-0.4-0.7L70.9,44.8z"/>
		</g>
	</g>
	<g>
		<path class="st5" d="M36.9,1.9c3.2,3.7,0.2,7.2,0.2,7.2S33,11.2,30,7.8c-2.1-2.4-0.7-7.7-0.7-7.7S34.7-0.7,36.9,1.9z"/>
		<path class="st6" d="M34.7,3.9c3.2,3.7,2.4,5.2,2.4,5.2S33,11.2,30,7.8c-2.1-2.4-0.7-7.7-0.7-7.7S32.5,1.3,34.7,3.9z"/>
		<g>
			<path class="st7" d="M36.7,9.3c-0.2-1.2-0.6-2.3-1.3-3.4c-0.6-1-1.5-2-2.6-2.9c-1.8-1.6-3.5-2.8-3.5-2.8h0.4
				c0.1,0,1.3,0.8,3.6,2.3c1.3,0.8,2.3,1.8,3,3c0.6,1,1.1,2.1,1.3,3.2l-0.4,0.6L36.7,9.3z"/>
		</g>
	</g>
	<g>
		<path class="st5" d="M57.1,23.5c1.5,4.7-2.6,6.7-2.6,6.7s-4.6,0.3-6-4c-1-3,2.4-7.4,2.4-7.4S56,20.2,57.1,23.5z"/>
		<path class="st6" d="M54.3,24.5c1.5,4.7,0.2,5.7,0.2,5.7s-4.6,0.3-6-4c-1-3,2.4-7.4,2.4-7.4S53.2,21.2,54.3,24.5z"/>
		<g>
			<path class="st7" d="M53.9,30.2c0.3-1.2,0.4-2.4,0.2-3.6c-0.2-1.2-0.6-2.5-1.2-3.7c-1.1-2.2-2.1-4-2.1-4l0.3,0.1
				c0.1,0.1,0.9,1.3,2.4,3.5c0.8,1.3,1.4,2.6,1.6,3.9c0.2,1.2,0.1,2.3-0.1,3.4l-0.7,0.4L53.9,30.2z"/>
		</g>
	</g>
	<g>
		<path class="st5" d="M15.5,58.3c1.4-6.3,7.3-5.8,7.3-5.8s5.4,2.7,4.2,8.4c-0.9,4-7.5,6.8-7.5,6.8S14.5,62.7,15.5,58.3z"/>
		<path class="st6" d="M19.3,59c1.4-6.3,3.5-6.6,3.5-6.6s5.4,2.7,4.2,8.4c-0.9,4-7.5,6.8-7.5,6.8S18.4,63.4,19.3,59z"/>
		<g>
			<path class="st7" d="M23.4,52.8c-1.1,1.1-2,2.4-2.6,4c-0.6,1.5-0.9,3.2-1.1,5c-0.2,3.1-0.2,5.8-0.2,5.9l-0.3-0.3
				c0-0.1-0.2-2-0.4-5.5c-0.1-2,0.1-3.9,0.7-5.5c0.6-1.4,1.3-2.7,2.3-3.8h1L23.4,52.8z"/>
		</g>
	</g>
	<g>
		<path class="st6" d="M13.9,26.1c3.5,1.5,3.1,5.4,3.1,5.4s-2.6,2.9-6.1,1.4c-2.8-1.2-4-5.8-4-5.8S10.7,24.7,13.9,26.1z"/>
		<path class="st5" d="M13,29.8c3.5,1.5,4,1.7,4,1.7s-2.6,2.9-6.1,1.4c-2.8-1.2-4-5.8-4-5.8S9.8,28.4,13,29.8z"/>
		<path class="st7" d="M17,30.7L7.1,27l-0.2,0.1v0.1l9.6,4.7c0.4-0.2,0.4-0.4,0.4-0.4C17,31.3,17,30.7,17,30.7z"/>
	</g>
	<g>
		<path class="st6" d="M23.5,24.2c1.4,5.4-3.4,8.5-3.4,8.5s-5.7-0.4-7.2-5.7c-1.2-4.4,3-9.8,3-9.8S22.3,19.3,23.5,24.2z"/>
		<path class="st5" d="M18.5,26.6c1.4,5.4,1.7,6.1,1.7,6.1S14.5,32.3,13,27c-1.2-4.4,3-9.8,3-9.8S17.2,21.7,18.5,26.6z"/>
		<path class="st7" d="M21.1,32l-4.7-14.7l-0.3-0.1L16,17.4l3.4,15.3c0.6,0.2,0.8,0.1,0.8,0.1C20.5,32.5,21.1,32,21.1,32z"/>
	</g>
</g>
<g id="groeiende_sinaasappels">
	<g>
		<g>
			<circle class="st0" cx="73.1" cy="49.1" r="3.7"/>
			<path class="st1" d="M73.5,52.4c-2.1,0-3.7-1.7-3.7-3.7c0-0.7,0.2-1.4,0.5-1.9c-0.5,0.6-0.9,1.5-0.9,2.4c0,2.1,1.7,3.7,3.7,3.7
				c1.4,0,2.6-0.7,3.2-1.8C75.7,51.9,74.6,52.4,73.5,52.4z"/>
		</g>
	</g>
	<g>
		<g>
			<circle class="st0" cx="37.4" cy="11.6" r="3.7"/>
			<path class="st1" d="M37.7,14.9c-2.1,0-3.7-1.7-3.7-3.7c0-0.7,0.2-1.4,0.5-1.9c-0.5,0.6-0.9,1.5-0.9,2.4c0,2.1,1.7,3.7,3.7,3.7
				c1.4,0,2.6-0.7,3.2-1.8C39.9,14.4,38.9,14.9,37.7,14.9z"/>
		</g>
	</g>
	<g>
		<g>
			<circle class="st0" cx="20.2" cy="52.2" r="3.7"/>
			<path class="st1" d="M20.5,55.5c-2.1,0-3.7-1.7-3.7-3.7c0-0.7,0.2-1.4,0.5-1.9c-0.5,0.6-0.9,1.5-0.9,2.4c0,2.1,1.7,3.7,3.7,3.7
				c1.4,0,2.6-0.7,3.2-1.8C22.7,55,21.7,55.5,20.5,55.5z"/>
		</g>
	</g>
	<g>
		<g>
			<circle class="st0" cx="12.6" cy="43.1" r="3.2"/>
			<path class="st1" d="M12.9,45.9c-1.8,0-3.2-1.4-3.2-3.2c0-0.6,0.2-1.2,0.5-1.6c-0.5,0.6-0.7,1.3-0.7,2c0,1.8,1.4,3.2,3.2,3.2
				c1.2,0,2.2-0.6,2.8-1.6C14.8,45.4,13.9,45.9,12.9,45.9z"/>
		</g>
	</g>
	<g>
		<g>
			<circle class="st0" cx="27.5" cy="39.5" r="3.7"/>
			<path class="st1" d="M27.8,42.8c-2.1,0-3.7-1.7-3.7-3.7c0-0.7,0.2-1.4,0.5-1.9c-0.5,0.6-0.9,1.5-0.9,2.4c0,2.1,1.7,3.7,3.7,3.7
				c1.4,0,2.6-0.7,3.2-1.8C30,42.2,29,42.8,27.8,42.8z"/>
		</g>
	</g>
	<g>
		<g>
			<circle class="st2" cx="70.7" cy="43.2" r="3.7"/>
			<path class="st1" d="M69.8,46.4c-1.9-0.7-2.9-2.9-2.2-4.8c0.2-0.7,0.7-1.2,1.2-1.6c-0.7,0.4-1.3,1.1-1.6,1.9
				c-0.7,1.9,0.3,4.1,2.2,4.8c1.3,0.5,2.7,0.2,3.7-0.6C72.1,46.7,70.9,46.8,69.8,46.4z"/>
		</g>
	</g>
	<g>
		<g>
			<circle class="st2" cx="66" cy="55.6" r="2.8"/>
			<path class="st1" d="M65.4,58c-1.4-0.5-2.2-2.1-1.6-3.6c0.2-0.5,0.5-0.9,0.9-1.2c-0.5,0.3-1,0.8-1.2,1.4c-0.5,1.4,0.2,3,1.6,3.6
				c1,0.4,2,0.2,2.7-0.4C67.1,58.2,66.2,58.3,65.4,58z"/>
		</g>
	</g>
	<g>
		<g>
			<circle class="st2" cx="62.7" cy="24.5" r="2.8"/>
			<path class="st1" d="M62,26.9c-1.4-0.5-2.2-2.1-1.6-3.6c0.2-0.5,0.5-0.9,0.9-1.2c-0.5,0.3-1,0.8-1.2,1.4c-0.5,1.4,0.2,3,1.6,3.6
				c1,0.4,2,0.2,2.7-0.4C63.7,27.1,62.8,27.2,62,26.9z"/>
		</g>
	</g>
	<g>
		<g>
			<circle class="st2" cx="55.5" cy="30.2" r="3.7"/>
			<path class="st1" d="M54.6,33.4c-1.9-0.7-2.9-2.9-2.2-4.8c0.2-0.7,0.7-1.2,1.2-1.6c-0.7,0.4-1.3,1.1-1.6,1.9
				c-0.7,1.9,0.3,4.1,2.2,4.8c1.3,0.5,2.7,0.2,3.7-0.6C56.9,33.6,55.7,33.8,54.6,33.4z"/>
		</g>
	</g>
	<g>
		<g>
			<circle class="st2" cx="39.3" cy="32.7" r="3.7"/>
			<path class="st1" d="M38.5,35.9c-1.9-0.7-2.9-2.9-2.2-4.8c0.2-0.7,0.7-1.2,1.2-1.6c-0.7,0.4-1.3,1.1-1.6,1.9
				c-0.7,1.9,0.3,4.1,2.2,4.8c1.3,0.5,2.7,0.2,3.7-0.6C40.7,36.2,39.6,36.3,38.5,35.9z"/>
		</g>
	</g>
	<g>
		<g>
			<circle class="st0" cx="23.7" cy="32.7" r="3.2"/>
			<path class="st1" d="M24,35.5c-1.8,0-3.2-1.4-3.2-3.2c0-0.6,0.2-1.2,0.5-1.6c-0.5,0.5-0.7,1.3-0.7,2c0,1.8,1.4,3.2,3.2,3.2
				c1.2,0,2.2-0.6,2.7-1.5C25.9,35.1,25,35.5,24,35.5z"/>
		</g>
	</g>
	<g>
		<g>
			<circle class="st2" cx="22.6" cy="37.3" r="3.7"/>
			<path class="st1" d="M23,40.6c-2.1,0-3.7-1.7-3.7-3.7c0-0.7,0.2-1.4,0.5-1.9c-0.5,0.6-0.9,1.5-0.9,2.4c0,2.1,1.7,3.7,3.7,3.7
				c1.4,0,2.6-0.7,3.2-1.8C25.2,40.1,24.1,40.6,23,40.6z"/>
		</g>
	</g>
</g>
</svg>
