<svg xmlns="http://www.w3.org/2000/svg" id="uuid-d2c9580c-6cd1-4418-86f3-54bda64307db" data-name="Laag 1" viewBox="0 0 29.28 29.28"><defs><style>      .uuid-dfa14d9b-a57b-43df-b87c-af90e9c9664b {        fill: #f2f2f2;      }      .uuid-dfa14d9b-a57b-43df-b87c-af90e9c9664b, .uuid-abaf3cd1-e628-4914-bbd8-219b761006a3, .uuid-8bc649e5-27e5-45de-a47b-9d99e906fb4f, .uuid-cb459277-c327-43b8-b003-99e466785df8, .uuid-3b566d04-db30-48de-aed4-97a10f28d053, .uuid-2cad4af0-fecd-4c71-bf7b-128c3f2036f7 {        stroke-width: 0px;      }      .uuid-abaf3cd1-e628-4914-bbd8-219b761006a3 {        fill: #da306c;      }      .uuid-8bc649e5-27e5-45de-a47b-9d99e906fb4f {        fill: #8d72b1;      }      .uuid-cb459277-c327-43b8-b003-99e466785df8 {        fill: #6d2f71;      }      .uuid-3b566d04-db30-48de-aed4-97a10f28d053 {        fill: #f6a200;      }      .uuid-2cad4af0-fecd-4c71-bf7b-128c3f2036f7 {        fill: #ea580c;      }    </style></defs><circle class="uuid-dfa14d9b-a57b-43df-b87c-af90e9c9664b" cx="14.64" cy="14.64" r="14.64"></circle><g><rect class="uuid-2cad4af0-fecd-4c71-bf7b-128c3f2036f7" x="21.27" y="17.17" width=".81" height=".81" transform="translate(18.77 -10.18) rotate(45)"></rect><rect class="uuid-2cad4af0-fecd-4c71-bf7b-128c3f2036f7" x="22.57" y="17.17" width=".81" height=".81" transform="translate(19.15 -11.1) rotate(45)"></rect><g><rect class="uuid-abaf3cd1-e628-4914-bbd8-219b761006a3" x="21.98" y="13.18" width=".66" height="3.24"></rect><path class="uuid-8bc649e5-27e5-45de-a47b-9d99e906fb4f" d="m8.36,13.83l.05,4.72c.38,1.39,2.91,2.47,5.97,2.47s5.59-1.08,5.97-2.47l.05-4.72h-12.04Z"></path><path class="uuid-cb459277-c327-43b8-b003-99e466785df8" d="m5.86,12.73l8.67-3.02c.07-.02.15-.02.22,0l8.32,3.01c.28.1.29.5,0,.61l-8.33,3.23c-.19.07-.4.07-.59,0l-8.31-3.23c-.28-.11-.28-.51.01-.61Z"></path><path class="uuid-3b566d04-db30-48de-aed4-97a10f28d053" d="m23.64,18.12l-.61-.61-.71.61-.67-.61-.66.61c0-1.06.34-2.23,1.32-2.23s1.32,1.18,1.32,2.23Z"></path></g></g></svg>