<svg xmlns="http://www.w3.org/2000/svg" id="a" data-name="Laag 1" viewBox="0 0 20.01 20.01"><defs><style>      .b {        fill: #f7c5a6;      }      .b, .c, .d, .e, .f, .g, .h, .i, .j, .k, .l, .m, .n, .o, .p, .q {        stroke-width: 0px;      }      .c {        fill: #619b26;      }      .d {        fill: #c79b66;      }      .e {        fill: #d09e84;      }      .f {        fill: #b1355a;      }      .g {        fill: #acca38;      }      .h {        fill: #da306c;      }      .i {        fill: #bd907b;      }      .j {        fill: #8d72b1;      }      .k {        fill: #6d2f71;      }      .l {        fill: #f2a195;      }      .m {        fill: #e59b8f;      }      .n {        fill: #e5b79a;      }      .o {        fill: #f0f0f0;      }      .p {        fill: #e96609;      }      .q {        fill: #683b10;      }    </style></defs><circle class="o" cx="10" cy="10" r="10"></circle><g><path class="h" d="m13.09,10.47h2.04c.4,0,.73.33.73.73v3.42h-3.5v-3.42c0-.4.33-.73.73-.73Z"></path><polygon class="f" points="15.21 14.62 13.01 14.62 13.21 12.12 13.01 11.81 13.18 10.47 15.04 10.47 15.21 11.81 15.02 12.12 15.21 14.62"></polygon><polygon class="i" points="14.53 10.47 14.11 10.91 13.69 10.47 13.69 9.6 14.53 9.6 14.53 10.47"></polygon><path class="k" d="m4.92,10h2c.42,0,.75.34.75.75v3.94h-3.5v-3.94c0-.42.34-.75.75-.75Z"></path><rect class="j" x="4.99" y="10" width="1.86" height="4.7"></rect><polygon class="n" points="6.34 10 5.92 10.44 5.5 10 5.5 9.13 6.34 9.13 6.34 10"></polygon><path class="e" d="m15.37,8.6c0,.69-.56,1.25-1.25,1.25s-1.25-.56-1.25-1.25v-1.12l1.25-.64,1.25.64v1.12Z"></path><path class="q" d="m15.59,7.56c0-.5-.25-.94-.63-1.21,0-.04.01-.08.01-.13,0-.47-.38-.85-.85-.85s-.85.38-.85.85c0,.04,0,.09.01.13-.38.27-.63.71-.63,1.21v.42h0s0,.07,0,.07h.29c.83-.05,1.02-.96,1.02-.96,0,1.44,1.63,1.43,1.63,1.43,0-.13.01-.25,0-.36h0s0-.6,0-.6Z"></path><path class="g" d="m8.29,10.42h3.43c.48,0,.87.39.87.87v4.16h-5.13v-4.2c0-.46.37-.83.83-.83Z"></path><polygon class="c" points="11.62 15.44 8.45 15.44 8.62 12.84 8.29 12.39 8.45 10.42 11.62 10.42 11.78 12.37 11.45 12.8 11.62 15.44"></polygon><path class="p" d="m11.96,7.65c0-1.06-.86-1.93-1.93-1.93s-1.93.86-1.93,1.93v2.66h3.86s0-2.66,0-2.66Z"></path><path class="m" d="m10.49,9.6v.82s.72,0,.72,0h.04c0,.68-.55,1.23-1.23,1.23s-1.23-.55-1.23-1.23h.04s.76,0,.76,0v-.82s.9,0,.9,0Z"></path><path class="l" d="m11.53,8.44c0,.83-.67,1.5-1.5,1.5s-1.5-.67-1.5-1.5v-1.34l1.5-.76,1.5.76v1.34Z"></path><path class="p" d="m10.22,6.67s.22,1.11,1.15,1.17h.33s.09-1.57-1.37-1.72-2.06.75-1.95,2.29c0,0,1.84.02,1.84-1.75Z"></path><path class="d" d="m7.52,7.58v-1.77h-2.21s-.98-.05-.98.74v.87l3.19.16Z"></path><path class="n" d="m7.19,7.32v-.57h-2.57v.57c-.26,0-.48.21-.48.48s.21.48.48.48c0,0,0,0,.01,0,.08.63.62,1.12,1.27,1.12s1.19-.49,1.27-1.12c0,0,0,0,.01,0,.26,0,.48-.21.48-.48s-.21-.48-.48-.48Z"></path><path class="b" d="m7.24,8.08c0,.73-.59,1.31-1.31,1.31s-1.31-.59-1.31-1.31v-1.29l1.33-.11,1.3.25v1.15Z"></path><path class="d" d="m4.54,6.79c.41.32.97.45,1.53.45.46,0,.89-.13,1.26-.35v-.34h-2.65l-.14.24Z"></path></g></svg>